<?xml version="1.0" encoding="utf-8"?>
<!-- Generator: Adobe Illustrator 19.0.1, SVG Export Plug-In . SVG Version: 6.00 Build 0)  -->
<svg version="1.1" id="Layer_1" xmlns="http://www.w3.org/2000/svg" xmlns:xlink="http://www.w3.org/1999/xlink" x="0px" y="0px"
	 viewBox="0 0 20.7 20.4" enable-background="new 0 0 20.7 20.4" xml:space="preserve">
<g>
	<path d="M15.7,4.8c-0.6,0-1.1-0.5-1.1-1.1l0-2.6c0-0.6,0.5-1.1,1.1-1.1c0.6,0,1.1,0.5,1.1,1.1v2.6C16.8,4.3,16.3,4.8,15.7,4.8z"/>
	<path d="M5.1,4.8C4.5,4.8,4,4.3,4,3.7V1.1C4,0.5,4.5,0,5.1,0c0.6,0,1.1,0.5,1.1,1.1v2.6C6.2,4.3,5.7,4.8,5.1,4.8z"/>
	<path d="M17.8,2.2v1.4c0,1-0.7,2-1.7,2.1c-1.3,0.2-2.4-0.8-2.4-2V2.2c0-0.3-0.3-0.6-0.6-0.6H7.7c-0.3,0-0.6,0.3-0.6,0.6v1.4
		c0,1-0.7,2-1.7,2.1c-1.3,0.2-2.4-0.8-2.4-2V2.2c0-0.3-0.3-0.6-0.6-0.6h-1C0.6,1.6,0,2.2,0,3v15.9c0,0.8,0.6,1.4,1.4,1.4h17.8
		c0.8,0,1.4-0.6,1.4-1.4V3c0-0.8-0.6-1.4-1.4-1.4h-0.9C18,1.6,17.8,1.8,17.8,2.2z M18.2,18.5H2.5c-0.3,0-0.6-0.3-0.6-0.6V7.3
		c0-0.3,0.3-0.6,0.6-0.6h15.7c0.3,0,0.6,0.3,0.6,0.6v10.6C18.8,18.2,18.5,18.5,18.2,18.5z"/>
	<path d="M6.3,10.9v1v3.7c0,0.4,0.3,0.8,0.8,0.9c0.5,0,0.9-0.4,0.9-0.8v-4h0v-0.8V10V9.3C8,9,7.8,8.8,7.5,8.8H6.9L5.4,9.2
		C5,9.3,4.7,9.7,4.8,10.1c0.1,0.4,0.5,0.6,0.9,0.5l0.2,0C6.1,10.5,6.3,10.7,6.3,10.9"/>
	<g>
		<path d="M13,8.6c-1.8,0-3.4,1.6-3.4,4s1.5,4,3.4,4h0c1.9,0,3.4-1.5,3.4-4S14.8,8.6,13,8.6z M13,15.1c-0.9,0-1.7-0.9-1.7-2.5
			s0.8-2.4,1.7-2.4c0.9,0,1.7,0.9,1.7,2.4S13.9,15.1,13,15.1z"/>
	</g>
</g>
</svg>
