<?xml version="1.0" encoding="utf-8"?>
<!-- Generator: Adobe Illustrator 19.0.1, SVG Export Plug-In . SVG Version: 6.00 Build 0)  -->
<svg version="1.1" id="Layer_2" xmlns="http://www.w3.org/2000/svg" xmlns:xlink="http://www.w3.org/1999/xlink" x="0px" y="0px"
	 viewBox="0 0 25 12.6" enable-background="new 0 0 25 12.6" xml:space="preserve">
<path fill="#231F20" d="M-54-291.2h-11c-0.7,0-1.2,0.6-1.2,1.2v18.2c0,0.7,0.6,1.2,1.2,1.2h11c0.7,0,1.2-0.6,1.2-1.2v-18.2
	C-52.7-290.6-53.3-291.2-54-291.2z M-61.9-273.8c0,0.4-0.3,0.8-0.8,0.8h-1c-0.4,0-0.8-0.3-0.8-0.8v-0.8c0-0.4,0.3-0.8,0.8-0.8h1
	c0.4,0,0.8,0.3,0.8,0.8V-273.8z M-61.9-277.2c0,0.4-0.3,0.8-0.8,0.8h-1c-0.4,0-0.8-0.3-0.8-0.8v-0.8c0-0.4,0.3-0.8,0.8-0.8h1
	c0.4,0,0.8,0.3,0.8,0.8V-277.2z M-61.9-280.5c0,0.4-0.3,0.8-0.8,0.8h-1c-0.4,0-0.8-0.3-0.8-0.8v-0.8c0-0.4,0.3-0.8,0.8-0.8h1
	c0.4,0,0.8,0.3,0.8,0.8V-280.5z M-58.2-273.8c0,0.4-0.3,0.8-0.8,0.8h-1c-0.4,0-0.8-0.3-0.8-0.8v-0.8c0-0.4,0.3-0.8,0.8-0.8h1
	c0.4,0,0.8,0.3,0.8,0.8V-273.8z M-58.2-277.2c0,0.4-0.3,0.8-0.8,0.8h-1c-0.4,0-0.8-0.3-0.8-0.8v-0.8c0-0.4,0.3-0.8,0.8-0.8h1
	c0.4,0,0.8,0.3,0.8,0.8V-277.2z M-58.2-280.5c0,0.4-0.3,0.8-0.8,0.8h-1c-0.4,0-0.8-0.3-0.8-0.8v-0.8c0-0.4,0.3-0.8,0.8-0.8h1
	c0.4,0,0.8,0.3,0.8,0.8V-280.5z M-54.6-273.8c0,0.4-0.3,0.8-0.8,0.8h-1c-0.4,0-0.8-0.3-0.8-0.8v-0.8c0-0.4,0.3-0.8,0.8-0.8h1
	c0.4,0,0.8,0.3,0.8,0.8V-273.8z M-54.6-277.2c0,0.4-0.3,0.8-0.8,0.8h-1c-0.4,0-0.8-0.3-0.8-0.8v-0.8c0-0.4,0.3-0.8,0.8-0.8h1
	c0.4,0,0.8,0.3,0.8,0.8V-277.2z M-54.6-280.5c0,0.4-0.3,0.8-0.8,0.8h-1c-0.4,0-0.8-0.3-0.8-0.8v-0.8c0-0.4,0.3-0.8,0.8-0.8h1
	c0.4,0,0.8,0.3,0.8,0.8V-280.5z M-54.3-284.9c0,0.3-0.2,0.5-0.5,0.5h-9.4c-0.3,0-0.5-0.2-0.5-0.5v-3.2c0-0.3,0.2-0.5,0.5-0.5h9.4
	c0.3,0,0.5,0.2,0.5,0.5V-284.9z"/>
<path fill="#231F20" d="M12.4-284.6h-1.7c-0.5,0-0.8-0.4-0.8-0.8v-4.5c0-0.5,0.4-0.9,0.8-0.9h1.7c0.5,0,0.9,0.4,0.9,0.9v4.5
	C13.3-285,12.9-284.6,12.4-284.6z"/>
<path fill="#231F20" d="M18.7-289.9v6.4c0,0.5-0.4,0.9-0.9,0.9H9c-0.5,0-0.9-0.4-0.9-0.9v-6.4c0-0.5-0.4-0.9-0.8-0.9H6.8
	c-0.3,0-0.5,0.1-0.7,0.3l-3,3c-0.2,0.2-0.4,0.5-0.4,0.9v14.3c0,0.7,0.6,1.3,1.3,1.3h17.2c0.7,0,1.3-0.6,1.3-1.3v-17.2
	c0-0.7-0.6-1.3-1.3-1.3h-1.7C19-290.8,18.7-290.4,18.7-289.9z"/>
<path fill="#231F20" d="M93.7-282.9c0.8-0.8,0.1-2.7-1.5-4.3c-1.6-1.6-3.6-2.3-4.3-1.5l-2.7,2.7c-0.8,0.8-0.9,1.5-0.9,2.2
	c0,0.7-0.1,1-0.7,1.7c-0.7,0.7-7.4,7.7-7.4,7.7c-0.6,0.6-0.3,1.8,0.7,2.8s2.2,1.3,2.8,0.7c1-1,7-6.8,7.7-7.5c0.7-0.7,1-0.7,1.7-0.7
	c0.7,0,1.4-0.2,2.2-0.9L93.7-282.9z M90-285c-1.2-1.2-1.8-2.6-1.4-3c0.5-0.5,1.8,0.2,3,1.4c1.2,1.2,1.8,2.6,1.4,3S91.2-283.8,90-285
	z"/>
<path fill="#231F20" d="M156.7-273.2c2.8,0,5.5-0.4,6.8-0.6c1.2-0.2,1.6-0.9,1.6-1.4c0-0.7-0.3-1-0.7-1.4c-0.4-0.4-1.1-0.5-1.2-3.4
	c-0.4-7-3.6-7.4-4.4-7.8c-0.8-0.3-1-0.6-1.1-0.8c-0.1-0.2-0.2-0.6-0.9-0.6s-0.8,0.4-0.9,0.6c-0.1,0.2-0.4,0.5-1.1,0.8
	c-0.8,0.3-4,0.8-4.4,7.8c-0.1,2.9-0.8,3-1.2,3.4c-0.4,0.4-0.7,0.7-0.7,1.4c0,0.5,0.4,1.2,1.6,1.4
	C151.2-273.6,153.9-273.2,156.7-273.2z"/>
<path fill="#231F20" d="M156.7-270.6c1.4,0,2.1-1,2.3-1.3s0.1-0.5-0.2-0.5s-1.2,0.1-2,0.1s-1.7-0.1-2-0.1c-0.3,0-0.4,0.3-0.2,0.5
	S155.3-270.6,156.7-270.6z"/>
<path fill="#231F20" d="M231.9-279.3c-0.8-1-0.8-1.8,0-2.7c0.6-0.7,1.9-2.2,2.4-2.9c0.5-0.7,0.7-1.2,0.7-3.7c0-3.1-5.3-3.4-6.3-3.4
	c-1,0-6.3,0.3-6.3,3.4c0,2.6,0.2,3,0.7,3.7c0.5,0.7,1.9,2.2,2.4,2.9c0.8,1,0.8,1.7,0,2.7c-0.8,1-1.9,2.2-2.4,2.9s-0.7,1.4-0.7,2
	s0,1.5,0,1.9s0.4,1.4,0.9,1.7c0.5,0.3,2.5,1.5,5.4,1.5s4.8-1.1,5.4-1.5c0.5-0.3,0.9-1.3,0.9-1.7s0-1.4,0-1.9s-0.3-1.3-0.7-2
	S232.7-278.3,231.9-279.3z M226.9-284.5c0.3,0.2,1.2,0.4,1.8,0.4s1.5-0.2,1.8-0.4c0.3-0.2,0.7,0.3,0.4,0.6c-0.6,0.6-1.8,1.6-1.8,3.3
	c0,1.7,0.4,1.9,0.4,2.6s-0.6,0.9-0.9,0.9s-0.9-0.1-0.9-0.9s0.4-1,0.4-2.6c0-1.7-1.2-2.7-1.8-3.3
	C226.3-284.2,226.6-284.7,226.9-284.5z M232.5-272.2c-0.5,0.3-2,0.9-3.8,0.9c-1.8,0-3.3-0.6-3.8-0.9c-0.5-0.3-0.5-0.9-0.2-1.1
	c0.2-0.2,3-2.7,4-2.7c1.1,0,3.8,2.5,4,2.7S233-272.5,232.5-272.2z"/>
<path fill="#231F20" d="M306.1-292.7h-10.3c-1,0-1.7,0.8-1.7,1.7v20.9c0,1,0.8,1.7,1.7,1.7h10.3c1,0,1.7-0.8,1.7-1.7v-20.9
	C307.8-291.9,307-292.7,306.1-292.7z M299.6-291.3h2.7c0.3,0,0.6,0.2,0.6,0.6s-0.2,0.6-0.6,0.6h-2.7c-0.3,0-0.6-0.3-0.6-0.6
	S299.3-291.3,299.6-291.3z M300.9-269.2c-0.6,0-1.1-0.5-1.1-1.1c0-0.6,0.5-1.1,1.1-1.1s1.1,0.5,1.1,1.1
	C302-269.7,301.5-269.2,300.9-269.2z M305.9-273.2c0,0.6-0.5,1-1,1h-8c-0.6,0-1-0.5-1-1v-14.6c0-0.6,0.5-1,1-1h8c0.6,0,1,0.5,1,1
	V-273.2z"/>
<path fill="#231F20" d="M377.8-293h-10.3c-1,0-1.8,0.8-1.8,1.8v20.9c0,1,0.8,1.8,1.8,1.8h10.3c1,0,1.8-0.8,1.8-1.8v-20.9
	C379.6-292.2,378.8-293,377.8-293z M370.6-271.4c0,0.4-0.3,0.8-0.8,0.8h-1.1c-0.4,0-0.8-0.3-0.8-0.8v-1.1c0-0.4,0.3-0.8,0.8-0.8h1.1
	c0.4,0,0.8,0.3,0.8,0.8V-271.4z M370.6-274.8c0,0.4-0.3,0.8-0.8,0.8h-1.1c-0.4,0-0.8-0.3-0.8-0.8v-1.1c0-0.4,0.3-0.8,0.8-0.8h1.1
	c0.4,0,0.8,0.3,0.8,0.8V-274.8z M373.9-271.4c0,0.4-0.3,0.8-0.8,0.8h-1.1c-0.4,0-0.8-0.3-0.8-0.8v-1.1c0-0.4,0.3-0.8,0.8-0.8h1.1
	c0.4,0,0.8,0.3,0.8,0.8V-271.4z M373.9-274.8c0,0.4-0.3,0.8-0.8,0.8h-1.1c-0.4,0-0.8-0.3-0.8-0.8v-1.1c0-0.4,0.3-0.8,0.8-0.8h1.1
	c0.4,0,0.8,0.3,0.8,0.8V-274.8z M371.5-278.6c0-0.6,0.5-1.1,1.1-1.1s1.1,0.5,1.1,1.1s-0.5,1.1-1.1,1.1S371.5-278,371.5-278.6z
	 M377.3-271.4c0,0.4-0.3,0.8-0.8,0.8h-1.1c-0.4,0-0.8-0.3-0.8-0.8v-1.1c0-0.4,0.3-0.8,0.8-0.8h1.1c0.4,0,0.8,0.3,0.8,0.8V-271.4z
	 M377.3-274.8c0,0.4-0.3,0.8-0.8,0.8h-1.1c-0.4,0-0.8-0.3-0.8-0.8v-1.1c0-0.4,0.3-0.8,0.8-0.8h1.1c0.4,0,0.8,0.3,0.8,0.8V-274.8z
	 M377.6-281.8c0,0.6-0.4,1-1,1h-8c-0.6,0-1-0.4-1-1v-8.3c0-0.6,0.4-1,1-1h8c0.6,0,1,0.4,1,1V-281.8z"/>
<path fill="#231F20" d="M444.5-275.2c0,0,1.8,0,2.3,0s0.9-0.3,1.1-1.1c0.5-4.7,3.3-6.4,3.3-10c0-3.6-3.1-6.6-6.7-6.6s-6.7,3-6.7,6.6
	c0,3.6,2.8,5.3,3.3,10c0.1,0.8,0.5,1.1,1.1,1.1S444.5-275.2,444.5-275.2z"/>
<path fill="#231F20" d="M442-269.8L442-269.8c-0.1,0-0.2-0.1-0.3-0.2c-0.2-0.3-0.2-0.7,0-0.9c0.1-0.1,0.1-0.4,0-0.6
	c-0.3-0.3-0.3-0.7,0-0.9c0.2-0.2,0.2-0.4,0-0.6c-0.3-0.3-0.3-0.7,0-0.9c0.1-0.1,0.3-0.2,0.4-0.2v0h4.5v0c0.2,0,0.3,0.1,0.5,0.2
	c0.3,0.3,0.3,0.7,0,0.9c-0.2,0.2-0.2,0.4,0,0.6c0.3,0.3,0.3,0.7,0,0.9c-0.1,0.1-0.2,0.4,0,0.6c0.3,0.3,0.3,0.7,0,0.9
	c-0.1,0.1-0.2,0.1-0.3,0.2l0,0l-1,0.2c-0.3,0-0.5,0.2-0.6,0.5c-0.2,0.2-0.5,0.5-0.8,0.5s-0.7-0.2-0.8-0.5c-0.2-0.2-0.4-0.4-0.6-0.5
	L442-269.8z"/>
<path fill="#231F20" d="M-63.6-204.4c5,5,9.5,6.5,10.2,6.6c0.6,0.1,1.7,0.3,3.1-1.2c1.7-1.7,1.9-2.7,1-3.6s-3.3-2.4-4-2.8
	c-0.6-0.4-1.2-0.3-1.7,0.1s-1,0.7-1.5,1.1c-0.5,0.4-1.1,0.5-1.8,0.1c-0.7-0.4-1.8-1.2-3.1-2.5c-1.3-1.3-2.1-2.4-2.5-3.1
	c-0.4-0.7-0.3-1.3,0.1-1.8s0.8-1,1.1-1.5s0.4-1,0.1-1.7c-0.4-0.6-1.8-3-2.8-4c-1-1-1.9-0.8-3.6,1c-1.5,1.5-1.3,2.5-1.2,3.1
	S-68.6-209.5-63.6-204.4z"/>
<path fill="#231F20" d="M93.5-211.9c-0.6,0-1-0.5-1-1.1v-0.7c0-0.8-0.6-1.4-1.4-1.4h-16c-0.8,0-1.4,0.6-1.4,1.4v10.2
	c0,0.8,0.6,1.4,1.4,1.4h16c0.8,0,1.4-0.6,1.4-1.4v-0.6c0-0.7,0.6-1.2,1.3-1.2c0.6,0,1.1-0.5,1.1-1.1v-4.3
	C94.9-211.4,94.4-211.9,93.5-211.9z M90.6-204.6c0,0.4-0.3,0.6-0.6,0.6H86c-0.4,0-0.8-0.2-0.9-0.6l-3.2-7.7
	c-0.2-0.4,0.1-0.9,0.6-0.9h7.4c0.4,0,0.6,0.3,0.6,0.6V-204.6z"/>
<path fill="#231F20" d="M22.1-211.9c-0.6,0-1-0.5-1-1.1v-0.7c0-0.8-0.6-1.4-1.4-1.4h-16c-0.8,0-1.4,0.6-1.4,1.4v10.2
	c0,0.8,0.6,1.4,1.4,1.4h16c0.8,0,1.4-0.6,1.4-1.4v-0.6c0-0.7,0.6-1.2,1.3-1.2c0.6,0,1.1-0.5,1.1-1.1v-4.3
	C23.5-211.4,23-211.9,22.1-211.9z"/>
<path fill="#231F20" d="M165.9-211.9c-0.6,0-1-0.5-1-1.1v-0.7c0-0.8-0.6-1.4-1.4-1.4h-16c-0.8,0-1.4,0.6-1.4,1.4v10.2
	c0,0.8,0.6,1.4,1.4,1.4h16c0.8,0,1.4-0.6,1.4-1.4v-0.6c0-0.7,0.6-1.2,1.3-1.2c0.6,0,1.1-0.5,1.1-1.1v-4.3
	C167.3-211.4,166.8-211.9,165.9-211.9z M162.9-204.6c0,0.4-0.3,0.6-0.6,0.6h-9.5c-0.4,0-0.8-0.2-0.9-0.6l-3.2-7.7
	c-0.2-0.4,0.1-0.9,0.6-0.9h13c0.4,0,0.6,0.3,0.6,0.6V-204.6z"/>
<path fill="#231F20" d="M238.3-211.9c-0.6,0-1-0.5-1-1.1v-0.7c0-0.8-0.6-1.4-1.4-1.4h-16c-0.8,0-1.4,0.6-1.4,1.4v10.2
	c0,0.8,0.6,1.4,1.4,1.4h16c0.8,0,1.4-0.6,1.4-1.4v-0.6c0-0.7,0.6-1.2,1.3-1.2c0.6,0,1.1-0.5,1.1-1.1v-4.3
	C239.7-211.4,239.2-211.9,238.3-211.9z M233.8-208.4l-5.4,2.7c-0.5,0.2-1-0.1-1-0.6v-2.4c0-0.3-0.2-0.5-0.5-0.4l-3.7,0.4
	c-0.2,0-0.2-0.2-0.1-0.3l5.4-2.7c0.5-0.2,1,0.1,1,0.6v2.4c0,0.3,0.2,0.5,0.5,0.4l3.7-0.4C233.9-208.7,233.9-208.5,233.8-208.4z"/>
<path fill="#231F20" d="M306.8-208.8l-6.2-12.4c-0.2-0.3-0.7-0.2-0.6,0.2l1,8.5c0.1,0.6-0.4,1.2-1,1.2h-5.6c-1.2,0-2.1,1.3-1.5,2.4
	l6.2,12.4c0.2,0.3,0.7,0.2,0.6-0.2l-1-8.5c-0.1-0.6,0.4-1.2,1-1.2h5.6C306.6-206.4,307.4-207.7,306.8-208.8z"/>
<path fill="#231F20" d="M371.2-217.9c-1.1-1.1-2.4-1.6-3.8-1.6c-0.6,0-0.9,0.8-0.5,1.2l2.1,2.1c0.5,0.5,0.8,1-0.7,2.5l-0.7,0.7
	c-1.4,1.4-2,1.2-2.5,0.7l-2.2-2.2c-0.4-0.4-1.2-0.1-1.2,0.5c0,1.4,0.5,2.8,1.6,3.9c1.6,1.6,3.8,2,5.8,1.3c0.3-0.1,0.7,0,1,0.3
	l9.4,9.9c0.9,0.9,2.3,0.9,3.2,0l0,0c0.9-0.9,0.9-2.4-0.1-3.2l-10-9.3c-0.3-0.2-0.4-0.6-0.3-1C373.2-214.1,372.8-216.4,371.2-217.9z
	 M381.7-199.6c-0.4,0.4-0.9,0.4-1.3,0c-0.4-0.4-0.4-0.9,0-1.3c0.4-0.4,0.9-0.4,1.3,0C382.1-200.5,382.1-200,381.7-199.6z"/>
<path fill="#231F20" d="M455.9-207.6v-1.8c0-0.6-0.5-1-1-1h-0.3c-0.7,0-1.2-0.4-1.5-1.1c-0.1-0.4-0.3-0.7-0.5-1.1
	c-0.3-0.6-0.2-1.3,0.3-1.8l0.2-0.2c0.4-0.4,0.4-1.1,0-1.5l-1.2-1.2c-0.4-0.4-1.1-0.4-1.5,0l-0.2,0.2c-0.5,0.5-1.2,0.6-1.8,0.3
	c-0.4-0.2-0.7-0.3-1.1-0.4c-0.6-0.2-1.1-0.8-1.1-1.5v-0.3c0-0.6-0.5-1-1-1h-1.8c-0.6,0-1,0.5-1,1v0.3c0,0.7-0.4,1.2-1.1,1.5
	c-0.4,0.1-0.7,0.3-1.1,0.4c-0.6,0.3-1.3,0.2-1.8-0.3l-0.2-0.2c-0.4-0.4-1.1-0.4-1.5,0l-1.2,1.2c-0.4,0.4-0.4,1.1,0,1.5l0.3,0.3
	c0.5,0.5,0.6,1.2,0.3,1.8c-0.2,0.3-0.3,0.7-0.4,1c-0.2,0.6-0.8,1.1-1.5,1.1h-0.4c-0.6,0-1,0.5-1,1v1.8c0,0.6,0.5,1,1,1h0.4
	c0.7,0,1.2,0.4,1.5,1.1c0.1,0.4,0.3,0.7,0.4,1c0.3,0.6,0.2,1.3-0.3,1.8l-0.3,0.3c-0.4,0.4-0.4,1.1,0,1.5l1.2,1.2
	c0.4,0.4,1.1,0.4,1.5,0l0.2-0.2c0.5-0.5,1.2-0.6,1.8-0.3c0.3,0.2,0.7,0.3,1.1,0.4c0.6,0.2,1.1,0.8,1.1,1.5v0.3c0,0.6,0.5,1,1,1h1.8
	c0.6,0,1-0.5,1-1v-0.3c0-0.7,0.4-1.2,1.1-1.5c0.4-0.1,0.7-0.3,1.1-0.4c0.6-0.3,1.3-0.2,1.8,0.3l0.2,0.2c0.4,0.4,1.1,0.4,1.5,0
	l1.2-1.2c0.4-0.4,0.4-1.1,0-1.5l-0.2-0.2c-0.5-0.5-0.6-1.2-0.3-1.8c0.2-0.4,0.3-0.7,0.5-1.1c0.2-0.6,0.8-1.1,1.5-1.1h0.3
	C455.5-206.6,455.9-207.1,455.9-207.6z M445.8-202.7c-4.3,1-8.1-2.8-7.2-7.2c0.5-2.2,2.3-4,4.4-4.4c4.3-1,8.1,2.8,7.2,7.2
	C449.8-205,448-203.2,445.8-202.7z"/>
<path fill="#231F20" d="M-49.6-129.7l-5-4.5c-0.4-0.4-0.5-1-0.3-1.5c0.8-1.5,1.2-3.3,0.9-5.1c-0.5-3.7-3.4-6.8-7.1-7.4
	c-5.9-1-10.9,4.1-10,9.9c0.6,3.7,3.6,6.6,7.3,7.1c1.9,0.2,3.6-0.1,5.1-0.9c0.5-0.3,1.1-0.2,1.5,0.3l4.7,5c0.8,0.9,2.3,0.8,3-0.1
	C-48.7-127.8-48.8-129-49.6-129.7z M-68.9-139.7c0-3.5,2.9-6.4,6.4-6.4s6.4,2.9,6.4,6.4c0,3.5-2.9,6.4-6.4,6.4
	S-68.9-136.2-68.9-139.7z"/>
<path fill="#231F20" d="M22.3-129.7l-5-4.5c-0.4-0.4-0.5-1-0.3-1.5c0.8-1.5,1.2-3.3,0.9-5.1c-0.5-3.7-3.4-6.8-7.1-7.4
	c-5.9-1-10.9,4.1-10,9.9c0.6,3.7,3.6,6.6,7.3,7.1c1.9,0.2,3.6-0.1,5.1-0.9c0.5-0.3,1.1-0.2,1.5,0.3l4.7,5c0.8,0.9,2.3,0.8,3-0.1
	C23.3-127.8,23.1-129,22.3-129.7z M3.1-139.7c0-3.5,2.9-6.4,6.4-6.4s6.4,2.9,6.4,6.4c0,3.5-2.9,6.4-6.4,6.4S3.1-136.2,3.1-139.7z"/>
<path fill="#231F20" d="M94.6-129.7l-5-4.5c-0.4-0.4-0.5-1-0.3-1.5c0.8-1.5,1.2-3.3,0.9-5.1c-0.5-3.7-3.4-6.8-7.1-7.4
	c-5.9-1-10.9,4.1-10,9.9c0.6,3.7,3.6,6.6,7.3,7.1c1.9,0.2,3.6-0.1,5.1-0.9c0.5-0.3,1.1-0.2,1.5,0.3l4.7,5c0.8,0.9,2.3,0.8,3-0.1
	C95.6-127.8,95.4-129,94.6-129.7z M75.4-139.7c0-3.5,2.9-6.4,6.4-6.4s6.4,2.9,6.4,6.4c0,3.5-2.9,6.4-6.4,6.4S75.4-136.2,75.4-139.7z
	"/>
<path fill="#231F20" d="M-59.5-140.5h-1.8c-0.2,0-0.4-0.2-0.4-0.3v-1.8c0-0.3-0.2-0.5-0.5-0.5h-0.6c-0.3,0-0.5,0.2-0.5,0.5v1.8
	c0,0.2-0.2,0.3-0.3,0.3h-1.8c-0.3,0-0.5,0.2-0.5,0.5v0.6c0,0.3,0.2,0.5,0.5,0.5h1.8c0.2,0,0.3,0.2,0.3,0.4v1.8
	c0,0.3,0.2,0.5,0.5,0.5h0.6c0.3,0,0.5-0.2,0.5-0.5v-1.8c0-0.2,0.2-0.4,0.4-0.4h1.8c0.3,0,0.5-0.2,0.5-0.5v-0.6
	C-59-140.3-59.2-140.5-59.5-140.5z"/>
<path fill="#231F20" d="M12.5-138.9H6.4c-0.2,0-0.4-0.2-0.4-0.4v-0.7c0-0.2,0.2-0.4,0.4-0.4h6.1c0.2,0,0.4,0.2,0.4,0.4v0.7
	C13-139.1,12.8-138.9,12.5-138.9z"/>
<path fill="#231F20" d="M454.4,14.5l-5-4.5c-0.4-0.4-0.5-1-0.3-1.5c0.8-1.5,1.2-3.3,0.9-5.1c-0.5-3.7-3.4-6.8-7.1-7.4
	c-5.9-1-10.9,4.1-10,9.9c0.6,3.7,3.6,6.6,7.3,7.1c1.9,0.2,3.6-0.1,5.1-0.9c0.5-0.3,1.1-0.2,1.5,0.3l4.7,5c0.8,0.9,2.3,0.8,3-0.1
	C455.4,16.5,455.2,15.2,454.4,14.5z M445,4.8c0,0.3-0.2,0.5-0.5,0.5h-1.8c-0.2,0-0.3,0.2-0.3,0.3v1.8c0,0.3-0.2,0.5-0.5,0.5h-0.6
	c-0.3,0-0.5-0.2-0.5-0.5V5.6c0-0.2-0.2-0.3-0.4-0.3h-1.8c-0.3,0-0.5-0.2-0.5-0.5V4.2c0-0.3,0.2-0.5,0.5-0.5h1.8
	c0.2,0,0.4-0.2,0.4-0.3V1.5c0-0.3,0.2-0.5,0.5-0.5h0.6c0.3,0,0.5,0.2,0.5,0.5v1.8c0,0.2,0.2,0.3,0.3,0.3h1.8c0.3,0,0.5,0.2,0.5,0.5
	V4.8z"/>
<path fill="#231F20" d="M382.2,13.9l-5-4.5c-0.4-0.4-0.5-1-0.3-1.5c0.8-1.5,1.2-3.3,0.9-5.1c-0.5-3.7-3.4-6.8-7.1-7.4
	c-5.9-1-10.9,4.1-10,9.9c0.6,3.7,3.6,6.6,7.3,7.1c1.9,0.2,3.6-0.1,5.1-0.9c0.5-0.3,1.1-0.2,1.5,0.3l4.7,5c0.8,0.9,2.3,0.8,3-0.1
	C383.2,15.9,383,14.6,382.2,13.9z M372.9,4.3c0,0.2-0.2,0.4-0.4,0.4h-6.1c-0.2,0-0.4-0.2-0.4-0.4V3.6c0-0.2,0.2-0.4,0.4-0.4h6.1
	c0.2,0,0.4,0.2,0.4,0.4V4.3z"/>
<path fill="#231F20" d="M238-139.1c0.1-1,0-2.1-0.5-3.3c-0.9-1.8-2.6-3.1-4.6-3.4c-2.4-0.3-4.6,0.8-5.8,2.6
	c-0.3,0.5-0.9,0.5-1.4,0.2c-0.7-0.5-1.5-0.7-2.3-0.7c-1.1,0-2.2,0.4-2.9,1.2c-1.3,1.3-1.4,2.5-1.3,3.5c0.1,0.4-0.2,0.9-0.6,1.1
	c-1.6,0.9-2.7,2.6-2.5,4.6c0.2,2.7,2.5,4.7,5.2,4.7h14.9c2.5,0,4.7-1.7,5.1-4.1c0.4-2.3-0.9-4.4-2.7-5.3
	C238.1-138.3,237.9-138.7,238-139.1z"/>
<path fill="#231F20" d="M166.1-138.1c-0.4-0.2-0.6-0.6-0.5-1c0.1-1,0-2.1-0.5-3.3c-0.9-1.8-2.6-3.1-4.6-3.4
	c-2.4-0.3-4.6,0.8-5.8,2.6c-0.3,0.5-0.9,0.5-1.4,0.2c-1-0.7-2.3-1-3.6-0.5c-0.7,0.2-1.4,0.7-1.9,1.3c-1,1.2-1.1,2.3-1,3.2
	c0.1,0.5-0.2,0.9-0.6,1.1c-1.6,0.9-2.6,2.6-2.5,4.6c0.2,2.7,2.5,4.7,5.2,4.7h4.3c0.8,0,1.5-0.7,1.5-1.5v-1.6c0-0.4-0.3-0.7-0.7-0.7
	h-1.5c-0.4,0-0.6-0.5-0.4-0.8l4-4.8c0.3-0.3,0.8-0.3,1,0l4,4.8c0.3,0.3,0,0.8-0.4,0.8h-1.5c-0.4,0-0.7,0.3-0.7,0.7v1.6
	c0,0.8,0.7,1.5,1.5,1.5h3.7c2.5,0,4.7-1.7,5.1-4.1C169.3-135.1,168-137.2,166.1-138.1z"/>
<path fill="#231F20" d="M300.5-137.5l-1.3,1.3c-0.2,0.2,0,0.5,0.2,0.5h0.7c0.1,0,0.3,0.1,0.3,0.3v1.2c0,0.3,0.2,0.5,0.5,0.5h0
	c0.3,0,0.5-0.2,0.5-0.5v-1.2c0-0.1,0.1-0.3,0.3-0.3h0.7c0.2,0,0.4-0.3,0.2-0.5l-1.3-1.3C300.9-137.7,300.6-137.7,300.5-137.5z"/>
<path fill="#231F20" d="M310.5-138.1c-0.4-0.2-0.6-0.6-0.5-1c0.1-1,0-2.1-0.5-3.3c-0.9-1.8-2.6-3.1-4.6-3.4
	c-2.4-0.3-4.6,0.8-5.8,2.6c-0.3,0.5-0.9,0.5-1.4,0.2c-0.7-0.5-1.5-0.7-2.3-0.7c-1.1,0-2.2,0.4-2.9,1.2c-1.3,1.3-1.4,2.5-1.3,3.5
	c0.1,0.4-0.2,0.9-0.6,1.1c-1.6,0.9-2.7,2.6-2.5,4.6c0.2,2.7,2.5,4.7,5.2,4.7h14.9c2.5,0,4.7-1.7,5.1-4.1
	C313.6-135.1,312.4-137.2,310.5-138.1z M300.7-131.7c-2.2,0-4-1.8-4-4c0-2.2,1.8-4,4-4c2.2,0,4,1.8,4,4
	C304.7-133.5,302.9-131.7,300.7-131.7z"/>
<path fill="#231F20" d="M372.9-133.9l1.3-1.3c0.2-0.2,0-0.5-0.2-0.5h-0.7c-0.1,0-0.3-0.1-0.3-0.3v-1.2c0-0.3-0.2-0.5-0.5-0.5h0
	c-0.3,0-0.5,0.2-0.5,0.5v1.2c0,0.1-0.1,0.3-0.3,0.3h-0.7c-0.2,0-0.4,0.3-0.2,0.5l1.3,1.3C372.5-133.8,372.7-133.8,372.9-133.9z"/>
<path fill="#231F20" d="M382.4-138.1c-0.4-0.2-0.6-0.6-0.5-1c0.1-1,0-2.1-0.5-3.3c-0.9-1.8-2.6-3.1-4.6-3.4
	c-2.4-0.3-4.6,0.8-5.8,2.6c-0.3,0.5-0.9,0.5-1.4,0.2c-0.7-0.5-1.5-0.7-2.3-0.7c-1.1,0-2.2,0.4-2.9,1.2c-1.3,1.3-1.4,2.5-1.3,3.5
	c0.1,0.4-0.2,0.9-0.6,1.1c-1.6,0.9-2.7,2.6-2.5,4.6c0.2,2.7,2.5,4.7,5.2,4.7h14.9c2.5,0,4.7-1.7,5.1-4.1
	C385.6-135.1,384.3-137.2,382.4-138.1z M372.6-131.7c-2.2,0-4-1.8-4-4c0-2.2,1.8-4,4-4c2.2,0,4,1.8,4,4
	C376.6-133.5,374.8-131.7,372.6-131.7z"/>
<path fill="#231F20" d="M454.5-138.1c-0.4-0.2-0.6-0.6-0.5-1c0.1-1,0-2.1-0.5-3.3c-0.9-1.8-2.6-3.1-4.6-3.4
	c-2.4-0.3-4.6,0.8-5.8,2.6c-0.3,0.5-0.9,0.5-1.4,0.2c-0.7-0.5-1.5-0.7-2.3-0.7c-1.1,0-2.2,0.4-2.9,1.2c-1.3,1.3-1.4,2.5-1.3,3.5
	c0.1,0.4-0.2,0.9-0.6,1.1c-1.6,0.9-2.7,2.6-2.5,4.6c0.2,2.7,2.5,4.7,5.2,4.7h14.9c2.5,0,4.7-1.7,5.1-4.1
	C457.6-135.1,456.4-137.2,454.5-138.1z M444.7-131.7c-2.2,0-4-1.8-4-4c0-2.2,1.8-4,4-4c2.2,0,4,1.8,4,4
	C448.7-133.5,446.9-131.7,444.7-131.7z"/>
<path fill="#231F20" d="M-49.8-65.7c-0.4-0.2-0.6-0.6-0.5-1c0.1-1,0-2.1-0.5-3.3c-0.9-1.8-2.6-3.1-4.6-3.4c-2.4-0.3-4.6,0.8-5.8,2.6
	c-0.3,0.5-0.9,0.5-1.4,0.2c-0.7-0.5-1.5-0.7-2.3-0.7c-1.1,0-2.2,0.4-2.9,1.2c-1.3,1.3-1.4,2.5-1.3,3.5c0.1,0.4-0.2,0.9-0.6,1.1
	c-1.6,0.9-2.7,2.6-2.5,4.6c0.2,2.7,2.5,4.7,5.2,4.7h14.9c2.5,0,4.7-1.7,5.1-4.1C-46.7-62.8-47.9-64.8-49.8-65.7z M-59.6-59.4
	c-2.2,0-4-1.8-4-4c0-2.2,1.8-4,4-4c2.2,0,4,1.8,4,4C-55.6-61.2-57.4-59.4-59.6-59.4z"/>
<path fill="#231F20" d="M446.4-136.3c0.2-0.2,0.2-0.5,0-0.6c-0.2-0.2-0.5-0.2-0.6,0l-1.5,1.5l-0.5-0.5c-0.2-0.2-0.5-0.2-0.6,0
	c-0.2,0.2-0.2,0.5,0,0.6l0.9,0.9c0.1,0.1,0.3,0.1,0.5,0L446.4-136.3z"/>
<path fill="#231F20" d="M-59-63.4C-59-63.4-59-63.4-59-63.4l0.8-0.9c0.1-0.1,0.1-0.4,0-0.5c-0.1-0.1-0.4-0.1-0.5,0l-0.8,0.8
	c0,0,0,0-0.1,0l-0.8-0.8c-0.1-0.1-0.4-0.1-0.5,0c-0.1,0.1-0.1,0.4,0,0.5l0.8,0.8c0,0,0,0,0,0.1l-0.8,0.8c-0.1,0.1-0.1,0.4,0,0.5
	c0.1,0.1,0.4,0.1,0.5,0l0.8-0.8c0,0,0,0,0.1,0l0.8,0.8c0.1,0.1,0.4,0.1,0.5,0c0.1-0.1,0.1-0.4,0-0.5L-59-63.4z"/>
<path fill="#231F20" d="M5.1-58.6c0.4,0.4,1.2,0.5,1.6,0l3.1-3.1c0.2-0.2,0.6-0.1,0.6,0.2v6.7v0.3v1.4c0,0.6,0.7,0.9,1.1,0.5
	l6.7-6.7c0.2-0.2,0.2-0.5,0-0.7L17-61.2l0,0l-3.3-3.3c-0.3-0.3-0.3-0.7,0-0.9l4.6-4.6c0.2-0.2,0.2-0.5,0-0.7l-6.7-6.7
	c-0.4-0.4-1.1-0.1-1.1,0.5v1.5v0.2v6.7c0,0.3-0.4,0.5-0.6,0.2l-3.1-3.1c-0.4-0.4-1.2-0.4-1.6,0c-0.4,0.4-0.4,1.2,0,1.6l4.4,4.4
	c0.3,0.3,0.3,0.7,0,0.9l-4.4,4.4C4.7-59.7,4.7-59,5.1-58.6z M15-70l-1.6,1.6c-0.2,0.2-0.6,0.1-0.6-0.2v-3.5c0-0.3,0.4-0.5,0.6-0.2
	l1.6,1.6C15.2-70.5,15.2-70.2,15-70z M13.4-61.6l1.7,1.7c0.2,0.2,0.2,0.5,0,0.7l-1.7,1.7c-0.2,0.2-0.6,0.1-0.6-0.2v-3.5
	C12.8-61.7,13.1-61.8,13.4-61.6z"/>
<path fill="#231F20" d="M86.4-59.4c-1.3-1-3.4-0.7-4.4,0.1c-0.4,0.4-0.3,0.9,0.1,1.3l1.5,1.5c0.4,0.4,1,0.4,1.3,0l1.5-1.5
	C86.9-58.5,86.8-59.1,86.4-59.4z"/>
<path fill="#231F20" d="M88.7-61.1c0.3,0.3,0.9,0.3,1.3,0c0.3-0.3,0.4-1,0.1-1.3c-3.2-3.2-8.3-3.2-11.4,0c-0.4,0.4-0.4,1,0,1.4
	c0.4,0.4,1,0.3,1.4,0C82.3-63.5,86.2-63.5,88.7-61.1z"/>
<path fill="#231F20" d="M92.9-64.2c0.3-0.3,0.3-1,0-1.3c-4.8-4.8-12.5-4.7-17.3,0.1c-0.3,0.4-0.4,1-0.1,1.3c0.4,0.4,1,0.3,1.3,0
	c4.1-4.1,10.7-4.1,14.8,0C92-63.8,92.6-63.8,92.9-64.2z"/>
<path fill="#231F20" d="M96-67.2c0.3-0.3,0.4-0.9,0-1.3C89.6-75,79-75,72.5-68.5c-0.4,0.4-0.4,1,0,1.4c0.4,0.4,1,0.3,1.4,0
	c5.8-5.8,15.1-5.8,20.9,0C95.1-66.9,95.7-66.9,96-67.2z"/>
<path fill="#231F20" d="M158.8-58.5c0,0.4-0.4,0.8-0.8,0.8h-3.9c-0.4,0-0.8-0.4-0.8-0.8c0-0.4,0.4-0.8,0.8-0.8h3.9
	C158.4-59.3,158.8-58.9,158.8-58.5z"/>
<path fill="#231F20" d="M158.8-55.7c0,0.4-0.4,0.8-0.8,0.8h-3.9c-0.4,0-0.8-0.4-0.8-0.8c0-0.4,0.4-0.8,0.8-0.8h3.9
	C158.4-56.5,158.8-56.1,158.8-55.7z"/>
<path fill="#231F20" d="M153.1-72.1c0.3,0.3,0.3,0.8,0,1.2l-2.7,2.7c-0.3,0.3-0.8,0.3-1.2,0s-0.3-0.8,0-1.2l2.7-2.7
	C152.3-72.4,152.8-72.4,153.1-72.1z"/>
<path fill="#231F20" d="M151.1-74.1c0.3,0.3,0.3,0.8,0,1.2l-2.7,2.7c-0.3,0.3-0.8,0.3-1.2,0c-0.3-0.3-0.3-0.8,0-1.2l2.7-2.7
	C150.3-74.4,150.8-74.4,151.1-74.1z"/>
<path fill="#231F20" d="M156-69.5c-2.3,0-4.2,1.9-4.2,4.2c0,2.3,1.9,4.2,4.2,4.2s4.2-1.9,4.2-4.2C160.2-67.7,158.4-69.5,156-69.5z
	 M156-63c-1.3,0-2.3-1-2.3-2.3s1-2.3,2.3-2.3s2.3,1,2.3,2.3S157.3-63,156-63z"/>
<path fill="#231F20" d="M161.6-68.4l-2.4-2.4c-0.3-0.3-0.3-0.8,0-1.1l2.9-2.9c0.3-0.3,0.8-0.3,1.1,0l2.4,2.4c0.3,0.3,0.3,0.8,0,1.1
	l-2.9,2.9C162.3-68.1,161.9-68.1,161.6-68.4z"/>
<path fill="#231F20" d="M235.3-68.9c0.3,0,0.6-0.3,0.6-0.7v-1.7c0-0.4-0.3-0.7-0.7-0.7h-1.9c-0.4,0-0.7,0.3-0.7,0.7v1.7
	c0,0.3,0.3,0.6,0.6,0.7c0.1,0,0.2,0.1,0.2,0.3c0,2-0.6,2.8-1.6,3.7c-0.3,0.2-0.6,0.5-0.9,0.7c-0.1,0.1-0.2,0.1-0.2,0.2
	c-0.4,0.3-1.1,0-1.1-0.5v-7.6c0-0.4,0.3-0.6,0.6-0.6h0.2c0.2,0,0.4-0.3,0.3-0.5l-1.6-2.5c-0.1-0.2-0.4-0.2-0.6,0l-1.6,2.5
	c-0.1,0.2,0,0.5,0.3,0.5h0.1c0.4,0,0.6,0.3,0.6,0.6v10.9c0,0.5-0.6,0.8-1,0.5c-0.3-0.3-0.7-0.5-0.9-0.7c-1.4-1.1-1.8-1.9-1.8-4.1
	c0-0.3,0.1-0.5,0.3-0.7c0.5-0.4,0.8-1,0.7-1.6c-0.1-0.8-0.8-1.5-1.6-1.6c-1.1-0.1-2,0.7-2,1.8c0,0.6,0.3,1.1,0.7,1.4
	c0.2,0.2,0.3,0.4,0.3,0.6c0,2.2,0.3,3.7,2.1,5.1c0.7,0.6,1.1,0.8,1.5,1.2c0.7,0.5,1.1,1.2,1.4,2c0.2,0.5,0,1.1-0.4,1.3
	c-0.9,0.6-1.5,1.7-1.3,2.9c0.2,1.1,1.1,2,2.2,2.3c1.8,0.4,3.4-1,3.4-2.8c0-1-0.5-1.9-1.4-2.4c-0.3-0.2-0.6-0.6-0.6-1v-1.8
	c0-1.5,0.7-2.9,1.9-3.8c0.1-0.1,0.2-0.1,0.3-0.2c0.3-0.2,0.9-0.6,1.2-0.8c1.5-1.3,2-2.4,2.1-4.9C235-68.8,235.1-68.9,235.3-68.9z"/>
<path fill="#231F20" d="M307.1-64.1c-0.4-0.4-0.4-1.1,0-1.6l2.1-2.1c0.4-0.4,0.4-1.1,0-1.5c-0.4-0.4-1.1-0.4-1.5,0l-2.2,2.2
	c-0.4,0.4-1.1,0.4-1.6,0l-1-1c-0.4-0.4-0.4-1.1,0-1.6l2.1-2.1c0.4-0.4,0.4-1.1,0-1.5c-0.4-0.4-1.1-0.4-1.5,0l-2.2,2.2
	c-0.4,0.4-1.1,0.4-1.6,0c-0.6-0.6-1.3-0.5-1.7-0.1l-1.1,1.1c-1.9,1.9-2.3,4.7-1.3,7c0.3,0.6,0.2,1.3-0.3,1.7l-3.3,3.3
	c-0.4,0.4-0.5,1.2,0,1.6c0.4,0.5,1.2,0.5,1.6,0l3.4-3.4c0.5-0.5,1.2-0.6,1.7-0.3c2.3,1.1,5.1,0.7,7-1.2l1.1-1.1
	C307.6-62.9,307.6-63.6,307.1-64.1z"/>
<path fill="#231F20" d="M378.2-76.7H367c-1,0-1.7,0.8-1.7,1.7v20.2c0,1,0.8,1.7,1.7,1.7h11.2c1,0,1.7-0.8,1.7-1.7V-75
	C380-76,379.2-76.7,378.2-76.7z M376.6-58.1c0,1.1-0.9,2-2,2h-4c-1.1,0-2-0.9-2-2v-3.3c0-1.1,0.9-2,2-2h4c1.1,0,2,0.9,2,2V-58.1z
	 M376.6-68.4c0,1.1-0.9,2-2,2h-4c-1.1,0-2-0.9-2-2v-3.3c0-1.1,0.9-2,2-2h4c1.1,0,2,0.9,2,2V-68.4z"/>
<path fill="#231F20" d="M370.9-59.2h-0.4c-0.2,0-0.3-0.1-0.3-0.3v-2c0-0.2,0.1-0.3,0.3-0.3h0.4c0.2,0,0.3,0.1,0.3,0.3v2
	C371.2-59.3,371.1-59.2,370.9-59.2z"/>
<path fill="#231F20" d="M374.8-59.2h-0.4c-0.2,0-0.3-0.1-0.3-0.3v-2c0-0.2,0.1-0.3,0.3-0.3h0.4c0.2,0,0.3,0.1,0.3,0.3v2
	C375.1-59.3,375-59.2,374.8-59.2z"/>
<path fill="#231F20" d="M372.6-58.6c0.4,0,0.7,0.3,0.7,0.7v0.4c0,0.2-0.2,0.4-0.4,0.4h-0.7c-0.2,0-0.4-0.2-0.4-0.4v-0.4
	C371.9-58.3,372.2-58.6,372.6-58.6z"/>
<path fill="#231F20" d="M370.9-69.4h-0.4c-0.2,0-0.3-0.1-0.3-0.3v-2c0-0.2,0.1-0.3,0.3-0.3h0.4c0.2,0,0.3,0.1,0.3,0.3v2
	C371.2-69.6,371.1-69.4,370.9-69.4z"/>
<path fill="#231F20" d="M374.8-69.4h-0.4c-0.2,0-0.3-0.1-0.3-0.3v-2c0-0.2,0.1-0.3,0.3-0.3h0.4c0.2,0,0.3,0.1,0.3,0.3v2
	C375.1-69.6,375-69.4,374.8-69.4z"/>
<path fill="#231F20" d="M372.6-68.8c0.4,0,0.7,0.3,0.7,0.7v0.4c0,0.2-0.2,0.4-0.4,0.4h-0.7c-0.2,0-0.4-0.2-0.4-0.4v-0.4
	C371.9-68.5,372.2-68.8,372.6-68.8z"/>
<path fill="#231F20" d="M450.2-62.7c-0.6,0-1.1-0.5-1.1-1.1V-66c0-0.6,0.5-1.1,1.1-1.1c1.8,0,3.3-1.5,3.3-3.3c0-1.8-1.5-3.3-3.3-3.3
	c-1.8,0-3.3,1.5-3.3,3.3c0,0.6-0.5,1.1-1.1,1.1h-2.2c-0.6,0-1.1-0.5-1.1-1.1c0-1.8-1.5-3.3-3.3-3.3c-1.8,0-3.3,1.5-3.3,3.3
	c0,1.8,1.5,3.3,3.3,3.3c0.6,0,1.1,0.5,1.1,1.1v2.2c0,0.6-0.5,1.1-1.1,1.1c-1.8,0-3.3,1.5-3.3,3.3c0,1.8,1.5,3.3,3.3,3.3
	c1.8,0,3.3-1.5,3.3-3.3c0-0.6,0.5-1.1,1.1-1.1v0h2.2v0c0.6,0,1.1,0.5,1.1,1.1c0,0,0,0,0,0c0,0,0,0,0,0c0,1.8,1.5,3.3,3.3,3.3
	c1.8,0,3.3-1.5,3.3-3.3c0-0.9-0.4-1.7-1-2.3C451.9-62.3,451.1-62.7,450.2-62.7z M450.2-71.5c0.6,0,1.1,0.5,1.1,1.1s-0.5,1.1-1.1,1.1
	c-0.6,0-1.1-0.5-1.1-1.1S449.6-71.5,450.2-71.5z M439.2-58.3c-0.6,0-1.1-0.5-1.1-1.1s0.5-1.1,1.1-1.1c0.6,0,1.1,0.5,1.1,1.1
	S439.8-58.3,439.2-58.3z M439.2-69.3c-0.6,0-1.1-0.5-1.1-1.1s0.5-1.1,1.1-1.1c0.6,0,1.1,0.5,1.1,1.1S439.8-69.3,439.2-69.3z
	 M446.9-63.8c0,0.6-0.5,1.1-1.1,1.1h-2.2c-0.6,0-1.1-0.5-1.1-1.1V-66c0-0.6,0.5-1.1,1.1-1.1h2.2c0.6,0,1.1,0.5,1.1,1.1V-63.8z
	 M450.2-58.3c-0.6,0-1.1-0.5-1.1-1.1s0.5-1.1,1.1-1.1c0.6,0,1.1,0.5,1.1,1.1S450.8-58.3,450.2-58.3z"/>
<g>
	<path fill="#231F20" d="M312.3-1.9c-0.5,0-0.9,0.4-0.9,0.9v16.5c0,0.5,0.4,0.9,0.9,0.9h0c0.5,0,0.9-0.4,0.9-0.9V-1
		C313.2-1.5,312.8-1.9,312.3-1.9z"/>
	<path fill="#231F20" d="M309.1,0.2c-0.5,0-0.9,0.4-0.9,0.9v12.4c0,0.5,0.4,0.9,0.9,0.9h0c0.5,0,0.8-0.4,0.9-0.9v0V1.1v0
		C310,0.5,309.6,0.2,309.1,0.2z"/>
	<path fill="#231F20" d="M306,0.9h-10.9c-0.5,0-0.9,0.4-0.9,0.9v10.9c0,0.5,0.4,0.9,0.9,0.9H306c0.5,0,0.9-0.4,0.9-0.9V1.8
		C306.9,1.3,306.5,0.9,306,0.9z"/>
	<path fill="#231F20" d="M292,0.2c-0.5,0-0.9,0.4-0.9,0.9v12.4c0,0.5,0.4,0.9,0.9,0.9h0c0.5,0,0.9-0.4,0.9-0.9V1
		C292.9,0.6,292.5,0.2,292,0.2z"/>
	<path fill="#231F20" d="M288.8-1.9c-0.5,0-0.9,0.4-0.9,0.9v16.5c0,0.5,0.4,0.9,0.9,0.9h0c0.5,0,0.9-0.4,0.9-0.9V-1
		C289.7-1.5,289.3-1.9,288.8-1.9z"/>
</g>
<path fill="#231F20" d="M-70.2,12.2c0,0.7,0.6,1.3,1.2,1.3l2.5,0c1.1,0,2.1-0.4,2.8-1.2l8-8c0.3-0.3,0.6-0.4,1-0.4h0.5
	c0.3,0,0.6,0.3,0.6,0.6v1.2c0,0.3,0.3,0.5,0.6,0.3l3.8-2.9c0.3-0.3,0.3-0.7,0-1L-53-0.8c-0.2-0.2-0.6,0-0.6,0.3v1.3
	c0,0.3-0.3,0.6-0.6,0.6l-0.5,0c-1.1,0-2.1,0.4-2.8,1.2l-8,8c-0.3,0.3-0.6,0.4-1,0.4H-69C-69.6,10.9-70.2,11.5-70.2,12.2z"/>
<g>
	<path fill="#231F20" d="M-58.9,9c-0.5,0.5-0.5,1.3,0,1.8l1.5,1.5c0.7,0.7,1.8,1.2,2.8,1.2l0.5,0c0.3,0,0.6,0.3,0.6,0.6v1.3
		c0,0.3,0.3,0.5,0.6,0.3l3.8-2.9c0.3-0.3,0.3-0.7,0-1L-53,8.8c-0.2-0.2-0.6,0-0.6,0.3v1.2c0,0.3-0.3,0.6-0.6,0.6h-0.5
		c-0.4,0-0.8-0.2-1-0.4L-57.1,9C-57.6,8.6-58.4,8.6-58.9,9z"/>
	<path fill="#231F20" d="M-62.3,5.7c0.5-0.5,0.5-1.3,0-1.8l-1.4-1.4c-0.8-0.8-1.8-1.2-2.8-1.2l-2.5,0c-0.7,0-1.2,0.6-1.2,1.2v0
		c0,0.7,0.6,1.2,1.2,1.2h2.5c0.4,0,0.8,0.2,1,0.4l1.4,1.4C-63.5,6.2-62.7,6.2-62.3,5.7z"/>
</g>
<path fill="#231F20" d="M87.2,15.3c-0.8-0.8-0.8-2,0-2.8l4.4-4.4C92,7.7,92,7,91.6,6.6l-4.4-4.4c-0.8-0.8-0.7-2,0-2.8
	c0.8-0.8,2-0.8,2.8,0l7.2,7.2c0.4,0.4,0.4,1.1,0,1.5L90,15.3C89.2,16.1,88,16.1,87.2,15.3z"/>
<path fill="#231F20" d="M82.1,15.3c0.8-0.8,0.8-2,0-2.8l-4.4-4.4c-0.4-0.4-0.4-1.1,0-1.5l4.4-4.4c0.8-0.8,0.7-2,0-2.8
	c-0.8-0.8-2-0.8-2.8,0l-7.2,7.2c-0.4,0.4-0.4,1.1,0,1.5l7.2,7.2C80.1,16.1,81.3,16.1,82.1,15.3z"/>
<g>
	<path d="M7.6,12.2c0.6-0.6,0.6-1.5,0-2.1L4.3,6.9C4,6.6,4,6.1,4.3,5.8l3.3-3.3c0.6-0.6,0.5-1.5,0-2.1c-0.6-0.6-1.5-0.6-2,0L0.2,5.8
		c-0.3,0.3-0.3,0.8,0,1.1l5.3,5.3C6.1,12.8,7,12.8,7.6,12.2z"/>
	<path d="M17.4,12.2c-0.6-0.6-0.6-1.5,0-2.1l3.3-3.3c0.3-0.3,0.3-0.8,0-1.1l-3.3-3.3c-0.6-0.6-0.5-1.5,0-2.1c0.6-0.6,1.5-0.6,2,0
		l5.3,5.3c0.3,0.3,0.3,0.8,0,1.1l-5.3,5.3C18.9,12.8,18,12.8,17.4,12.2z"/>
	<circle cx="12.5" cy="6.3" r="1.7"/>
	<circle cx="16.8" cy="6.3" r="1.5"/>
	<circle cx="8.3" cy="6.3" r="1.5"/>
</g>
<path fill="#231F20" d="M162.3,14.5h-11.7c-0.8,0-1.4-0.6-1.4-1.4V1.4c0-0.8,0.6-1.4,1.4-1.4h11.7c0.8,0,1.4,0.6,1.4,1.4v11.7
	C163.7,13.9,163.1,14.5,162.3,14.5z"/>
<path fill="#231F20" d="M152.5-2.5c0-0.5-0.4-0.9-0.9-0.9h-2.3c-2,0-3.5,1.6-3.5,3.5v2.3c0,0.5,0.4,0.9,0.9,0.9s1-0.4,1-0.9V0
	c0-0.9,0.7-1.6,1.6-1.6h2.3C152.1-1.6,152.5-2,152.5-2.5z"/>
<path fill="#231F20" d="M146.7,11.2c-0.5,0-0.9,0.4-0.9,0.9v2.3c0,2,1.6,3.5,3.5,3.5h2.3c0.5,0,0.9-0.4,0.9-0.9c0-0.5-0.4-1-0.9-1
	h-2.3c-0.9,0-1.6-0.7-1.6-1.6v-2.3C147.7,11.6,147.2,11.2,146.7,11.2z"/>
<path fill="#231F20" d="M160.4,17c0,0.5,0.4,0.9,0.9,0.9h2.3c2,0,3.5-1.6,3.5-3.5v-2.3c0-0.5-0.4-0.9-0.9-0.9s-1,0.4-1,0.9v2.3
	c0,0.9-0.7,1.6-1.6,1.6h-2.3C160.8,16,160.4,16.5,160.4,17z"/>
<path fill="#231F20" d="M166.2,3.3c0.5,0,0.9-0.4,0.9-0.9V0.1c0-2-1.6-3.5-3.5-3.5h-2.3c-0.5,0-0.9,0.4-0.9,0.9s0.4,1,0.9,1h2.3
	c0.9,0,1.6,0.7,1.6,1.6v2.3C165.2,2.9,165.7,3.3,166.2,3.3z"/>
<path fill="#231F20" d="M228.7-4.8c-6.7,0-12,5.4-12,12s5.4,12,12,12s12-5.4,12-12S235.4-4.8,228.7-4.8z M228.7,15.8V-1.3
	c0-0.9,0.8-1.6,1.8-1.4c4.8,0.8,8.4,5,8.4,10c0,5-3.7,9.2-8.5,10C229.5,17.4,228.7,16.6,228.7,15.8z"/>
<path fill="#231F20" d="M-57.1,67.3c-1.8,0-2.8,1.5-2.8,2.8s0.9,2,2.1,2s2.9-1,2.9-2.7C-55,67.7-56.5,67.3-57.1,67.3z"/>
<path fill="#231F20" d="M-55.3,84.7c0.2,0.2,0.1,0.6-0.1,0.8c-1.8,1.6-3.9,2.8-5.2,3.1c-1.3,0.3-2.4,0.2-2.5-1.3
	c-0.1-1.5,1.7-8,1.8-8.7c0.1-0.6-1.2,0-2.2,0.6c-0.3,0.2-0.7,0-0.8-0.3c-0.1-0.3,0-0.6,0.2-0.7c1.8-1.4,4.1-2.7,6-3.2
	c1.1-0.3,1.7,0.1,1.8,1.4c0,1.4-1.8,7.5-1.9,8.4c-0.2,1.2,1.2,0.5,2.2-0.2C-55.8,84.4-55.5,84.5-55.3,84.7z"/>
<path fill="#231F20" d="M12.6,67.7C6.2,67.7,1,72.9,1,79.2s5.2,11.5,11.5,11.5c6.4,0,11.5-5.2,11.5-11.5S18.9,67.7,12.6,67.7z
	 M15.2,84c-1.2,1.1-2.6,1.8-3.4,2c-0.9,0.2-1.6,0.1-1.6-0.8c-0.1-1,1.1-5.3,1.2-5.7c0.1-0.4-0.8,0-1.5,0.4c-0.2,0.1-0.5,0-0.6-0.2
	c-0.1-0.2,0-0.4,0.1-0.5c1.2-0.9,2.7-1.7,3.9-2.1c0.7-0.2,1.1,0,1.2,0.9c0,0.9-1.2,4.9-1.3,5.5c-0.1,0.8,0.8,0.3,1.4-0.1
	c0.2-0.1,0.4-0.1,0.5,0.1C15.3,83.7,15.3,83.9,15.2,84z M13.5,75.3c-0.8,0-1.4-0.5-1.4-1.3s0.7-1.8,1.9-1.8c0.4,0,1.4,0.3,1.4,1.4
	C15.4,74.6,14.3,75.3,13.5,75.3z"/>
<path fill="#231F20" d="M96.2,81.4l-3.6-4.2c-0.2-0.2-0.5-0.4-0.8-0.4h-1.2c-0.2,0-0.3,0.1-0.4,0.2l-0.4,0.5c-0.1,0.2,0,0.5,0.2,0.5
	h0.7c0.2,0,0.5,0.1,0.6,0.3l2.3,3.3c0.2,0.3,0,0.7-0.3,0.7h-3.1c-0.6,0-1.2,0.4-1.3,1l-0.4,1.8c-0.1,0.5-0.5,0.8-1,0.8h-5.9
	c-0.5,0-0.9-0.3-1-0.8l-0.4-1.7c-0.1-0.6-0.7-1-1.3-1h-3.1c-0.3,0-0.5-0.4-0.3-0.7l2.3-3.3c0.1-0.2,0.4-0.3,0.6-0.3H79
	c0.3,0,0.4-0.3,0.2-0.5L78.8,77c-0.1-0.1-0.2-0.2-0.4-0.2h-1.1c-0.3,0-0.6,0.1-0.8,0.4l-3.6,4.3c-0.6,0.7-0.8,1.5-0.6,2.4l0.6,3.3
	c0.1,0.8,0.9,1.4,1.7,1.4h20c0.8,0,1.6-0.6,1.7-1.4l0.6-3.3C97,82.9,96.7,82.1,96.2,81.4z"/>
<path fill="#231F20" d="M79.1,75h2c0.5,0,0.9,0.4,0.9,0.9v4.8c0,0.5,0.4,0.9,0.9,0.9h3.1c0.5,0,0.9-0.4,0.9-0.9v-4.8
	c0-0.5,0.4-0.9,0.9-0.9h2c0.6,0,0.9-0.6,0.5-1.1l-5.2-6.3c-0.4-0.4-1-0.4-1.4,0l-5.2,6.3C78.3,74.3,78.6,75,79.1,75z"/>
<path fill="#231F20" d="M168.2,81.4l-3.6-4.2c-0.2-0.2-0.5-0.4-0.8-0.4h-1.2c-0.2,0-0.3,0.1-0.4,0.2l-0.4,0.5
	c-0.1,0.2,0,0.5,0.2,0.5h0.7c0.2,0,0.5,0.1,0.6,0.3l2.3,3.3c0.2,0.3,0,0.7-0.3,0.7h-3.1c-0.6,0-1.2,0.4-1.3,1l-0.4,1.8
	c-0.1,0.5-0.5,0.8-1,0.8h-5.9c-0.5,0-0.9-0.3-1-0.8l-0.4-1.7c-0.1-0.6-0.7-1-1.3-1h-3.1c-0.3,0-0.5-0.4-0.3-0.7l2.3-3.3
	c0.1-0.2,0.4-0.3,0.6-0.3h0.7c0.3,0,0.4-0.3,0.2-0.5l-0.5-0.5c-0.1-0.1-0.2-0.2-0.4-0.2h-1.1c-0.3,0-0.6,0.1-0.8,0.4l-3.6,4.3
	c-0.6,0.7-0.8,1.5-0.6,2.4l0.6,3.3c0.1,0.8,0.9,1.4,1.7,1.4h20c0.8,0,1.6-0.6,1.7-1.4l0.6-3.3C169,82.9,168.8,82.1,168.2,81.4z"/>
<path fill="#231F20" d="M162,74h-2c-0.5,0-0.9-0.4-0.9-0.9v-4.8c0-0.5-0.4-0.9-0.9-0.9H155c-0.5,0-0.9,0.4-0.9,0.9v4.8
	c0,0.5-0.4,0.9-0.9,0.9h-2c-0.6,0-0.9,0.6-0.5,1.1l5.2,6.3c0.4,0.4,1,0.4,1.4,0l5.2-6.3C162.8,74.6,162.5,74,162,74z"/>
<path fill="#231F20" d="M233.7,70.6h-1.9c-0.7,0-1.3,0.6-1.3,1.3v1.6c0,0.3,0.3,0.6,0.6,0.6h1.4c0.4,0,0.6,0.5,0.4,0.8l-3.7,4.4
	c-0.2,0.3-0.7,0.3-1,0l-3.7-4.4c-0.2-0.3,0-0.8,0.4-0.8h1.4c0.3,0,0.6-0.3,0.6-0.6V72c0-0.7-0.6-1.3-1.3-1.3h-1.9
	c-0.9,0-1.6,0.6-1.9,1.4l-2.9,8.5c-0.2,0.5-0.2,1.1-0.2,1.7l0.6,4c0.1,0.6,0.6,1.1,1.3,1.1h16.4c0.6,0,1.2-0.5,1.3-1.1l0.6-4
	c0.1-0.6,0-1.2-0.2-1.7l-2.9-8.5C235.3,71.2,234.6,70.6,233.7,70.6z M235.9,85.7l-14.6,0c-0.4,0-0.7-0.3-0.7-0.7l-0.2-2.1
	c0-0.6,0.4-1.1,1-1.1l14.4,0c0.6,0,1,0.5,1,1.1l-0.2,2.1C236.6,85.4,236.3,85.7,235.9,85.7z"/>
<path fill="#231F20" d="M299.7,82.7L296,84c-0.4,0.1-0.7-0.2-0.6-0.6l1.3-3.7c0.1-0.3,0.4-0.3,0.6-0.1l2.6,2.6
	C300,82.3,299.9,82.6,299.7,82.7z"/>
<path fill="#231F20" d="M309.6,72.9l-8.5,8.5c-0.3,0.3-0.7,0.3-0.9,0l-2.4-2.4c-0.2-0.2-0.2-0.7,0-0.9l8.5-8.5
	c0.3-0.3,0.7-0.3,0.9,0l2.4,2.4C309.9,72.3,309.9,72.7,309.6,72.9z"/>
<path fill="#231F20" d="M312.6,70.2l-1.4,1.4c-0.3,0.3-0.7,0.3-0.9,0l-2.5-2.5c-0.3-0.3-0.3-0.7,0-0.9l1.4-1.4
	c0.5-0.5,1.2-0.5,1.6,0l1.8,1.8C313,69,313,69.7,312.6,70.2z"/>
<path fill="#231F20" d="M303,69.4c0-0.5-0.4-1-1-1h-10.7c-0.8,0-1.5,0.7-1.5,1.5V88c0,0.8,0.7,1.5,1.5,1.5h18.1
	c0.8,0,1.5-0.7,1.5-1.5V77.3c0-0.5-0.4-1-1-1s-1,0.4-1,1v9.6c0,0.4-0.4,0.8-0.8,0.8h-15.7c-0.4,0-0.8-0.4-0.8-0.8V71.2
	c0-0.4,0.4-0.8,0.8-0.8h9.5C302.6,70.4,303,69.9,303,69.4z"/>
<path fill="#231F20" d="M361.3,69.2v19.5c0,0.8,0.6,1.4,1.4,1.4h19.5c0.8,0,1.4-0.6,1.4-1.4V69.2c0-0.8-0.6-1.4-1.4-1.4h-19.5
	C362,67.8,361.3,68.4,361.3,69.2z M381,88.2H364c-0.4,0-0.7-0.3-0.7-0.7V70.4c0-0.4,0.3-0.7,0.7-0.7H381c0.4,0,0.7,0.3,0.7,0.7v17.1
	C381.7,87.9,381.4,88.2,381,88.2z"/>
<path fill="#231F20" d="M378,75.2h-11.1c-0.8,0-1.4-0.6-1.4-1.4V73c0-0.8,0.6-1.4,1.4-1.4H378c0.8,0,1.4,0.6,1.4,1.4v0.7
	C379.4,74.6,378.8,75.2,378,75.2z"/>
<path fill="#231F20" d="M378,85.8h-5.7c-0.8,0-1.4-0.6-1.4-1.4v-6.1c0-0.8,0.6-1.4,1.4-1.4h5.7c0.8,0,1.4,0.6,1.4,1.4v6.1
	C379.4,85.2,378.8,85.8,378,85.8z"/>
<path fill="#231F20" d="M366.9,76.9h0.9c0.8,0,1.4,0.6,1.4,1.4v6.1c0,0.8-0.6,1.4-1.4,1.4h-0.9c-0.8,0-1.4-0.6-1.4-1.4v-6.1
	C365.5,77.5,366.1,76.9,366.9,76.9z"/>
<path fill="#231F20" d="M450.4,79l3.1-3.1c1.4-1.4,1.4-3.7,0-5.1l-0.2-0.2c-1.4-1.4-3.7-1.4-5.1,0l-3.1,3.1c-1,1-1.3,2.5-0.7,3.8
	c0.1,0.3,0,0.7-0.2,0.9l-0.4,0.4c-0.2,0.2-0.6,0.3-0.9,0.2c-1.3-0.5-2.8-0.3-3.8,0.7l-3.1,3.1c-1.4,1.4-1.4,3.7,0,5.1l0.2,0.2
	c1.4,1.4,3.7,1.4,5.1,0l3.1-3.1c1-1,1.3-2.5,0.7-3.8c-0.1-0.3,0-0.7,0.2-0.9l0.4-0.4c0.2-0.2,0.6-0.3,0.9-0.2
	C447.9,80.3,449.4,80,450.4,79z M448.3,77.6c-0.1-0.1-0.1-0.2-0.1-0.4c0.2-0.4,0.1-0.9-0.2-1.2c-0.3-0.3-0.8-0.4-1.2-0.2
	c-0.1,0.1-0.3,0-0.3-0.1c-0.1-0.1-0.1-0.3,0-0.4l3.2-3.2c0.6-0.6,1.5-0.6,2.1,0l0.2,0.2c0.6,0.6,0.6,1.5,0,2.1l-3.2,3.2
	C448.6,77.7,448.4,77.7,448.3,77.6z M441.1,81.1c0.1,0.1,0.1,0.2,0.1,0.4c-0.2,0.4-0.1,0.9,0.2,1.3c0.3,0.3,0.8,0.4,1.3,0.2
	c0.1-0.1,0.3,0,0.3,0.1c0.1,0.1,0.1,0.3,0,0.4l-3.2,3.2c-0.6,0.6-1.5,0.6-2.1,0l-0.2-0.2c-0.6-0.6-0.6-1.5,0-2.1l3.2-3.2
	C440.8,81,441,81,441.1,81.1z"/>
<g>
	<path fill="#231F20" d="M-59.8,150.8h8.3c0.4,0,0.7-0.3,0.7-0.7v-7.5c0-0.4-0.4-0.8-0.8-0.7l-8.3,1.6c-0.3,0.1-0.6,0.4-0.6,0.7v5.9
		C-60.5,150.5-60.2,150.8-59.8,150.8z"/>
	<path fill="#231F20" d="M-61.6,150.1v-5.4c0-0.4-0.4-0.8-0.8-0.7l-5.3,1.1c-0.3,0.1-0.6,0.4-0.6,0.7v4.3c0,0.4,0.3,0.7,0.7,0.7h5.3
		C-61.9,150.8-61.6,150.5-61.6,150.1z"/>
	<path fill="#231F20" d="M-62.3,151.8h-5.3c-0.4,0-0.7,0.3-0.7,0.7v4.3c0,0.3,0.2,0.6,0.6,0.7l5.3,1.1c0.4,0.1,0.8-0.2,0.8-0.7v-5.3
		C-61.6,152.1-61.9,151.8-62.3,151.8z"/>
	<path fill="#231F20" d="M-60.5,152.5v5.8c0,0.3,0.2,0.6,0.6,0.7l8.3,1.6c0.4,0.1,0.8-0.2,0.8-0.7v-7.5c0-0.4-0.3-0.7-0.7-0.7h-8.3
		C-60.2,151.8-60.5,152.1-60.5,152.5z"/>
</g>
<path fill="#231F20" d="M21.9,144.6l-3-3c-0.3-0.3-0.9-0.3-1.2,0l-3.1,3.1c-0.2,0.2-0.2,0.5,0,0.7l3.5,3.5c0.2,0.2,0.5,0.2,0.7,0
	l3.1-3.1C22.2,145.5,22.2,144.9,21.9,144.6z M18.2,144.3l-0.6,0.6c-0.2,0.2-0.6,0.2-0.8,0c-0.2-0.2-0.2-0.6,0-0.8l0.6-0.6
	c0.2-0.2,0.6-0.2,0.8,0C18.4,143.7,18.4,144.1,18.2,144.3z M20.1,146.2l-0.6,0.6c-0.2,0.2-0.6,0.2-0.8,0c-0.2-0.2-0.2-0.6,0-0.8
	l0.6-0.6c0.2-0.2,0.6-0.2,0.8,0C20.3,145.6,20.3,146,20.1,146.2z"/>
<path fill="#231F20" d="M11.7,145l-7.3,7.3c-1.9,1.9-1.9,4.9,0,6.8l0.1,0.1c1.9,1.9,4.9,1.9,6.8,0l7.3-7.3c0.2-0.2,0.2-0.6,0-0.8
	l-6.1-6.1C12.2,144.8,11.9,144.8,11.7,145z M6.2,158.1c-0.4,0-0.8-0.4-0.8-0.8s0.4-0.8,0.8-0.8s0.8,0.4,0.8,0.8S6.7,158.1,6.2,158.1
	z"/>
<path fill="#231F20" d="M84.5,140c-4.6,0-8.4,3.7-8.4,8.4c0,6.4,6.8,13.3,8.4,13.3s8.3-6.9,8.3-13.3C92.8,143.7,89.1,140,84.5,140z
	 M84.5,152.2c-2.1,0-3.8-1.7-3.8-3.8c0-2.1,1.7-3.8,3.8-3.8s3.8,1.7,3.8,3.8C88.3,150.5,86.6,152.2,84.5,152.2z"/>
<path fill="#231F20" d="M162.3,141.5c0,0.3-0.2,0.6-0.6,0.6h-9.9c-0.3,0-0.6-0.2-0.6-0.6s0.2-0.6,0.6-0.6h9.9
	C162.1,140.9,162.3,141.1,162.3,141.5z"/>
<path fill="#231F20" d="M148.2,159.5c0.3,0.1,0.6,0.3,0.6,0.7v0.8c0,0.5,0.4,0.9,1.5,0.9h0.4c1.2,0,1.6-0.4,1.6-0.9v-0.8
	c0-0.3,0.3-0.6,0.6-0.6h7.8c0.3,0,0.6,0.3,0.6,0.6v0.8c0,0.5,0.4,0.9,1.6,0.9h0.3c1.2,0,1.6-0.4,1.6-0.9v-0.8c0-0.3,0.2-0.6,0.6-0.7
	c0.5-0.1,0.9-0.5,0.9-1v-7.3h0c-0.2-3.1-1-9.1-1.1-9.9s-0.8-1.4-1.7-1.6c-0.9-0.1-3.2-0.5-6.6-0.5c-3.4,0-5.7,0.4-6.6,0.5
	c-0.9,0.1-1.6,0.8-1.7,1.6s-0.9,6.8-1.1,9.9v7.3C147.3,159,147.7,159.4,148.2,159.5z M150.8,143.4h12.1c0.6,0,1,0.4,1.1,1l0.6,6.2
	c0.1,0.6-0.4,1.2-1,1.2h-13.3c-0.6,0-1.1-0.5-1-1.2l0.6-6.2C149.7,143.8,150.2,143.4,150.8,143.4z M162.1,155.7
	c0-0.6,0.5-1.1,1.1-1.1c0.6,0,1.1,0.5,1.1,1.1c0,0.6-0.5,1.1-1.1,1.1C162.6,156.9,162.1,156.3,162.1,155.7z M150.3,156.9
	c-0.6,0-1.1-0.5-1.1-1.1c0-0.6,0.5-1.1,1.1-1.1c0.6,0,1.1,0.5,1.1,1.1C151.4,156.3,150.9,156.9,150.3,156.9z"/>
<path fill="#231F20" d="M237.4,151L237.4,151c-0.2-2.9-0.9-7.5-1.1-8.2c-0.1-0.8-0.8-1.4-1.6-1.5c-0.8-0.1-3-0.5-6.2-0.5
	c-3.2,0-5.4,0.3-6.2,0.5c-0.8,0.1-1.5,0.7-1.6,1.5c-0.1,0.8-0.9,5.3-1.1,8.2l0,7c0,0.5,0.4,0.9,0.8,1c0,0,0.6,0,1.4,0.1
	c0.2,0,0.3,0.2,0.3,0.4l-1,2.2c-0.5,1,0.3,2.1,1.3,2.1h12.3c1.1,0,1.8-1.1,1.3-2.1l-1-2.2c-0.1-0.2,0-0.4,0.3-0.4
	c0.8,0,1.4-0.1,1.4-0.1c0.5-0.1,0.8-0.5,0.8-1L237.4,151z M221.2,155.3c0-0.6,0.5-1.1,1.1-1.1c0.6,0,1.1,0.5,1.1,1.1
	c0,0.6-0.5,1.1-1.1,1.1C221.7,156.4,221.2,155.9,221.2,155.3z M234.4,162.5h-11.9c-0.2,0-0.3-0.2-0.2-0.4l0.2-0.4
	c0.1-0.2,0.3-0.3,0.5-0.3h10.9c0.2,0,0.4,0.1,0.5,0.3l0.2,0.4C234.7,162.3,234.6,162.5,234.4,162.5z M233.6,159.8
	c0.1,0.2-0.1,0.5-0.3,0.5h-9.7c-0.2,0-0.4-0.2-0.3-0.5l0.2-0.4c0.1-0.1,0.2-0.2,0.3-0.2c1.5,0.1,3.3,0.1,4.6,0.1
	c1.4,0,3.1-0.1,4.6-0.1c0.1,0,0.3,0.1,0.3,0.2L233.6,159.8z M234.6,156.4c-0.6,0-1.1-0.5-1.1-1.1c0-0.6,0.5-1.1,1.1-1.1
	c0.6,0,1.1,0.5,1.1,1.1C235.6,155.9,235.2,156.4,234.6,156.4z M234.7,151.6h-12.6c-0.6,0-1-0.5-1-1.1l0.6-5.9c0-0.5,0.5-0.9,1-0.9
	h11.4c0.5,0,1,0.4,1,0.9l0.6,5.9C235.8,151.1,235.3,151.6,234.7,151.6z"/>
<path fill="#231F20" d="M228.5,140.2c1.8,0,3,0.1,3.2,0.1c0.1,0,0.4,0,0.4-0.3c0-0.3-0.6-0.6-0.9-0.7c-0.4,0-0.9-0.1-2.6-0.1
	s-2.3,0.1-2.6,0.1c-0.4,0-0.9,0.4-0.9,0.7c0,0.3,0.2,0.3,0.4,0.3C225.5,140.3,226.7,140.2,228.5,140.2z"/>
<path fill="#231F20" d="M307.6,159.8v-8.5c0-0.3,0.3-0.4,0.5-0.3c0.3,0.1,0.4,0.4,0.4,1v4.3c0,1.4,1,2.1,1.9,2.1
	c1,0,1.8-0.7,1.8-2.1v-9.5c0,0,0-0.8,0-0.9c0-0.2-0.1-0.3-0.2-0.7c-0.1-0.3-0.6-3.3-4.1-3.8c-0.2,0-0.3-0.2-0.3-0.4v-0.3
	c0-0.8-0.6-1.4-1.4-1.4h-10.5c-0.8,0-1.4,0.6-1.4,1.4v19c0,0.2-0.1,0.3-0.3,0.4c-0.4,0.1-0.6,0.4-0.6,0.8c0,0.4,0.4,0.7,0.8,0.7
	h13.5c0.4,0,0.8-0.3,0.8-0.7c0-0.4-0.2-0.7-0.6-0.8C307.7,160.2,307.6,160,307.6,159.8z M303.1,152.7h-4.3c-0.4,0-0.7-0.3-0.7-0.7
	v-1.1c0-0.4,0.3-0.7,0.7-0.7h4.3c0.4,0,0.7,0.3,0.7,0.7v1.1C303.7,152.4,303.4,152.7,303.1,152.7z M305.2,148.9h-8.5
	c-0.4,0-0.7-0.3-0.7-0.7v-6.4c0-0.4,0.3-0.7,0.7-0.7h8.5c0.4,0,0.7,0.3,0.7,0.7v6.4C305.8,148.6,305.5,148.9,305.2,148.9z
	 M310.8,156.5c0,0.6-0.4,0.6-0.5,0.6c-0.1,0-0.6,0-0.6-0.6V152c0-1.2-0.7-2.1-1.9-2.4c-0.2,0-0.3-0.2-0.3-0.4v-6.5
	c0-0.2,0.2-0.4,0.5-0.4c0.3,0,0.5,0.1,0.8,0.2c0.4,0.2,0.4,0.5,0.4,0.8c-0.1,0.3-0.3,1-0.3,1.4s0.3,1.1,0.8,1.2
	c0.7,0.2,1.2,0.3,1.2,0.8V156.5z"/>
<path fill="#231F20" d="M372.7,139.5c-6.6,0-12,5.4-12,12s5.4,12,12,12s12-5.4,12-12S379.4,139.5,372.7,139.5z M372.7,142.6
	c0.6,0,1.1,0.5,1.1,1.1s-0.5,1.1-1.1,1.1s-1.1-0.5-1.1-1.1S372.1,142.6,372.7,142.6z M365.9,148.7c-0.6,0-1.1-0.5-1.1-1.1
	s0.5-1.1,1.1-1.1c0.6,0,1.1,0.5,1.1,1.1S366.5,148.7,365.9,148.7z M368.8,145.8c-0.6,0-1.1-0.5-1.1-1.1s0.5-1.1,1.1-1.1
	s1.1,0.5,1.1,1.1S369.4,145.8,368.8,145.8z M372.1,160c-0.8-0.2-1.4-0.8-1.6-1.6c-0.3-1,0.1-2,0.8-2.5c0.3-0.2,0.5-0.6,0.5-1V151
	c0-0.5,0.4-1,1-1s1,0.4,1,1v3.9c0,0.4,0.2,0.8,0.5,1c0.5,0.4,0.9,1.1,0.9,1.8C375.1,159.2,373.6,160.4,372.1,160z M376.6,145.8
	c-0.6,0-1.1-0.5-1.1-1.1s0.5-1.1,1.1-1.1s1.1,0.5,1.1,1.1S377.2,145.8,376.6,145.8z M379.5,148.7c-0.6,0-1.1-0.5-1.1-1.1
	s0.5-1.1,1.1-1.1s1.1,0.5,1.1,1.1S380.1,148.7,379.5,148.7z"/>
<path fill="#231F20" d="M444.9,139.5c-6.6,0-12,5.4-12,12s5.4,12,12,12s12-5.4,12-12S451.5,139.5,444.9,139.5z M444.2,160
	c-0.8-0.2-1.4-0.8-1.6-1.6c-0.3-1,0.1-2,0.8-2.5c0.3-0.2,0.5-0.6,0.5-1V151c0-0.5,0.4-1,1-1s1,0.4,1,1v3.9c0,0.4,0.2,0.8,0.5,1
	c0.5,0.4,0.9,1.1,0.9,1.8C447.2,159.2,445.8,160.4,444.2,160z M451.6,147.1l-1,0.6c-0.1,0.1-0.3,0-0.4-0.1c-1.4-1.9-3.7-3.1-6.3-3.1
	c-2.4,0-4.6,1.1-6.1,2.8c-0.2,0.2-0.4,0-0.3-0.2c1.5-2.4,4.2-4,7.2-4c2.9,0,5.4,1.4,6.9,3.6C451.9,146.8,451.8,147,451.6,147.1z"/>
<path fill="#231F20" d="M-68,214.4c0.5-0.2,1.1,0.1,1.2,0.6l5.6,18.1c0.2,0.5-0.1,1.1-0.6,1.2s-1.1-0.1-1.2-0.6l-5.6-18.1
	C-68.8,215.1-68.6,214.6-68,214.4z"/>
<path fill="#231F20" d="M-64.2,213.9c-1.5,0.5-1.7,1.3-1.5,2.2c0.3,0.9,2.3,7.5,2.5,8.2c0.2,0.7,0.8,0.9,1.4,0.6
	c0.6-0.3,3-1.5,6.6,0.6c3.6,2.1,5.8,1,6.3,0.7c0.5-0.3,0.7-1,0.4-1.7c-0.2-0.7-2.2-7.2-2.4-7.7c-0.2-0.5-0.5-0.8-1.3-0.6
	c-0.7,0.2-2.4,0.9-6.1-1.2C-60.7,213.6-62.8,213.4-64.2,213.9z"/>
<path fill="#231F20" d="M4.3,214.4c0.5-0.2,1.1,0.1,1.2,0.6l5.6,18.1c0.2,0.5-0.1,1.1-0.6,1.2c-0.5,0.2-1.1-0.1-1.2-0.6l-5.6-18.1
	C3.5,215.1,3.8,214.6,4.3,214.4z"/>
<path fill="#231F20" d="M8.1,213.8c-1.4,0.6-1.6,1.4-1.4,2.2c0.3,0.9,2.1,6.8,2.3,7.5c0.2,0.7,0.9,1.1,1.5,0.7
	c1.9-1,2.9-1.1,5.7-0.5c2.8,0.5,5.5-1.8,6.4-6.3c0.1-0.6-0.4-1-0.8-0.8c-0.4,0.2-3.4,2-6.5-1.2C13,213.1,10.7,212.7,8.1,213.8z"/>
<path fill="#231F20" d="M77.8,229.4c0.2,0.2,0.9,0.1,1.3-0.3c0.4-0.4,0.8-0.3,0.9,0c0.1,0.2,0.5,2.2,0.6,2.5
	c0.1,0.3,0.4,0.3,0.5,0.1s0.5-0.5,0.6-0.6c0.1-0.1,0.2-0.3,0.2-0.4s0-3.2,0-3.4s0.1-0.4,0.2-0.5c0.2-0.2,2.3-2.2,2.5-2.5
	s0.7-0.3,0.8,0.2c0.2,0.5,2.4,7.5,2.6,8c0.2,0.6,0.8,0.6,1.1,0.3c0.1-0.1,0.1-0.1,0.3-0.3c0.1-0.1,0.2-0.3,0.2-0.5
	c0-0.2,0-11.4,0-11.9c0-0.5,0.2-1,0.5-1.3c0.3-0.3,1.3-1.2,2.6-2.5c1.3-1.3,1.1-2.4,0.7-2.8c-0.4-0.4-1.5-0.6-2.8,0.7
	c-1.3,1.3-2.3,2.3-2.5,2.6c-0.3,0.3-0.7,0.5-1.3,0.5c-0.5,0-11.8,0-11.9,0s-0.3,0.1-0.5,0.2c-0.1,0.1-0.1,0.1-0.3,0.3
	c-0.3,0.3-0.3,0.9,0.3,1.1c0.6,0.2,7.5,2.4,8,2.6c0.5,0.2,0.5,0.6,0.2,0.8s-2.3,2.4-2.5,2.5c-0.2,0.2-0.3,0.2-0.5,0.2
	c-0.3,0-3.3,0-3.4,0c-0.1,0-0.3,0.1-0.4,0.2c-0.1,0.1-0.4,0.4-0.6,0.6s-0.1,0.5,0.1,0.5c0.3,0.1,2.3,0.5,2.5,0.6
	c0.4,0.1,0.4,0.5,0,0.9C77.6,228.5,77.5,229.2,77.8,229.4z"/>
<path fill="#231F20" d="M160.2,218.9l-4.6,2.7c-0.2,0.1-0.5,0.3-0.6,0.6l-2.7,4.6c-0.2,0.4,0.2,0.8,0.6,0.6l4.6-2.7
	c0.2-0.1,0.5-0.3,0.6-0.6l2.7-4.6C161.1,219.2,160.6,218.7,160.2,218.9z M156.6,223.9c-0.4,0-0.7-0.3-0.8-0.7s0.3-0.7,0.7-0.8
	s0.7,0.3,0.8,0.7S157,223.9,156.6,223.9z"/>
<path fill="#231F20" d="M163.5,216.3c-3-3-7.8-3.8-11.7-1.5c-5.4,3.1-6.6,10.7-2,15.2c4.6,4.6,12.1,3.4,15.3-2
	C167.2,224.2,166.5,219.4,163.5,216.3z M162.6,227.2c-0.3,0.4-0.8,0.5-1.2,0.3c-0.4-0.2-0.8,0.1-0.6,0.6c0.2,0.4,0.1,0.9-0.3,1.2
	c-2.8,1.8-6.5,1.6-9.1-0.9c-2.5-2.5-2.8-6.3-0.9-9.1c0.2-0.4,0.8-0.5,1.2-0.3c0.5,0.3,0.8-0.1,0.6-0.6c-0.2-0.4-0.1-0.9,0.3-1.2
	c3.2-2,6.8-1.4,9.1,0.9C163.9,220.3,164.6,223.9,162.6,227.2z"/>
<g id="XMLID_2_">
	<g>
		<path fill="#231F20" d="M227.5,223.6v-4.3c0-0.4,0.4-0.8,0.8-0.8c0.5,0,0.8,0.4,0.8,0.8v2.6c0,0.2,0.2,0.4,0.4,0.4l3.8,0
			c0.4,0,0.8,0.4,0.8,0.8c0,0.4-0.3,0.8-0.7,0.8h-5.5C227.7,224,227.5,223.8,227.5,223.6z"/>
		<path fill="#231F20" d="M228.3,213.5c5.4,0,9.7,4.3,9.7,9.7s-4.3,9.7-9.7,9.7c-5.4,0-9.7-4.3-9.7-9.7S222.9,213.5,228.3,213.5z
			 M235.5,223.2c0-4-3.2-7.2-7.2-7.2c-4,0-7.2,3.2-7.2,7.2c0,4,3.2,7.2,7.2,7.2C232.3,230.4,235.5,227.2,235.5,223.2z"/>
	</g>
</g>
<g>
	<path fill="#231F20" d="M301.2,221.9v-2.3c0-0.4-0.3-0.7-0.7-0.7c-0.4,0-0.7,0.3-0.7,0.7v3.7c0,0.2,0.2,0.4,0.4,0.4h4.7
		c0.4,0,0.6-0.3,0.6-0.7c0-0.4-0.3-0.7-0.7-0.7l-3.3,0C301.4,222.2,301.2,222.1,301.2,221.9z"/>
	<path fill="#231F20" d="M295.4,215.7c0,0.5-0.2,1-0.5,1.3c-1.6,1.6-2.4,3.7-2.4,5.8c0,2.6,1,4.1,2.4,5.8c0.3,0.3,0.5,0.8,0.5,1.3h0
		v3.1c0,0.7,0.7,1.3,1.4,1.3h7.4c0.8,0,1.4-0.6,1.4-1.4V230l0,0c0-0.5,0.2-1,0.5-1.3c1.5-1.5,2.5-3.6,2.5-5.8c0-2.7-1-4.3-2.5-5.8
		c-0.3-0.3-0.5-0.8-0.5-1.3l0,0v-3.8c-0.1-0.7-0.7-1.2-1.4-1.2h-7.4c-0.8,0-1.4,0.6-1.4,1.3L295.4,215.7z M300.5,229.2
		c-3.5,0-6.3-2.8-6.3-6.3c0-3.5,2.8-6.3,6.3-6.3c3.5,0,6.3,2.8,6.3,6.3C306.8,226.3,304,229.2,300.5,229.2z"/>
</g>
<circle fill="#231F20" cx="372.4" cy="213.3" r="0.8"/>
<path fill="#231F20" d="M371.7,224.1c0,0.2,0.2,0.4,0.4,0.4h4.9c0.4,0,0.7-0.3,0.7-0.7s-0.3-0.7-0.7-0.7h-3.4
	c-0.2,0-0.4-0.2-0.4-0.4v-2.4c0-0.4-0.3-0.7-0.7-0.7c-0.4,0-0.7,0.3-0.7,0.7C371.7,221.1,371.7,223,371.7,224.1z"/>
<path fill="#231F20" d="M363.5,216.7c0.2,0.4,0.8,0.5,1.1,0.1c0.6-0.6,1.2-1.1,1.8-1.6c0.6-0.4,1.4-0.8,2.1-1.2
	c0.4-0.2,0.5-0.8,0.2-1.1c-0.7-0.9-1.9-1.4-3.3-1.2c-1.3,0.3-2.3,1.3-2.5,2.6C362.9,215.2,363.1,216,363.5,216.7z"/>
<path fill="#231F20" d="M381.4,216.7c-0.2,0.4-0.8,0.5-1.1,0.1c-0.6-0.6-1.2-1.1-1.8-1.6c-0.6-0.4-1.4-0.8-2.1-1.2
	c-0.4-0.2-0.5-0.8-0.2-1.1c0.7-0.9,1.9-1.4,3.3-1.2c1.3,0.3,2.3,1.3,2.5,2.6C382,215.2,381.8,216,381.4,216.7z"/>
<path fill="#231F20" d="M379.2,229.5c1.5-1.7,2.3-4.1,2.1-6.6c-0.4-4.1-3.7-7.5-7.8-7.9c-5.3-0.6-9.8,3.6-9.8,8.8
	c0,2.2,0.8,4.2,2.1,5.7c0.2,0.3,0.3,0.6,0.1,0.9l-1,1.6c-0.2,0.3-0.1,0.8,0.2,1c0.3,0.2,0.8,0.1,1-0.2l0.8-1.2
	c0.2-0.4,0.7-0.5,1.1-0.3c1.3,0.8,2.9,1.3,4.6,1.3c1.7,0,3.2-0.5,4.6-1.3c0.4-0.2,0.8-0.1,1.1,0.3l0.8,1.2c0.2,0.3,0.7,0.4,1,0.2
	c0.3-0.2,0.4-0.7,0.2-1l-1-1.6C378.9,230.1,379,229.8,379.2,229.5z M365.9,223.8c0-3.6,2.9-6.6,6.6-6.6s6.6,2.9,6.6,6.6
	s-2.9,6.6-6.6,6.6S365.9,227.4,365.9,223.8z"/>
<path fill="#231F20" d="M453.7,215c-1.4-1.5-2.6-1.3-4.3-0.4c-1.7,0.9-5.1,1.8-8,1.8c-2.9,0-3.1,0-3.2,0c-2.1,0-3.7,1.9-3.7,3.8
	c0,1.8,1.5,3.6,3.4,3.8c1.1,0.1,1.9,1.1,1.6,2.2c-0.5,2.4-1.2,5.5-1.2,5.8c-0.1,0.5,0.5,1.3,1.3,1.3c0.7,0,1.6,0,2.4,0
	c0.9,0.2,1.9-0.9,1.4-1.9c-0.5-0.9-0.8-2.2-0.7-3.1c0.1-0.4,0.3-1.4,0.5-2.5c0.2-0.9,1.1-1.5,2.1-1.3c1.7,0.4,3.2,0.9,4.2,1.4
	c1.7,0.9,2.9,1.1,4.3-0.4c1.4-1.5,1.6-4.4,1.6-5.3S455.2,216.5,453.7,215z M451.5,225.4c-1.4,0-2.6-2.3-2.6-5.1
	c0-2.8,1.2-5.1,2.6-5.1c1.4,0,2.6,2.3,2.6,5.1C454.1,223.1,452.9,225.4,451.5,225.4z"/>
<ellipse fill="#231F20" cx="451.1" cy="220.3" rx="1.1" ry="2.3"/>
</svg>
