<?xml version="1.0" encoding="utf-8"?>
<!-- Generator: Adobe Illustrator 19.0.1, SVG Export Plug-In . SVG Version: 6.00 Build 0)  -->
<svg version="1.1" id="Layer_1" xmlns="http://www.w3.org/2000/svg" xmlns:xlink="http://www.w3.org/1999/xlink" x="0px" y="0px"
	 viewBox="0 0 22.3 21.5" enable-background="new 0 0 22.3 21.5" xml:space="preserve">
<path d="M20.8,0H1.5C0.7,0,0,0.7,0,1.5v13.6c0,0.8,0.7,1.5,1.5,1.5h5.3c0.5,0,0.9,0.4,0.9,0.9v1.2c0,0.5-0.4,0.9-0.9,0.9H6.7
	c-0.5,0-1,0.4-1,1v0c0,0.5,0.4,1,1,1h8.9c0.5,0,1-0.4,1-1v0c0-0.5-0.4-1-1-1h-0.1c-0.5,0-0.9-0.4-0.9-0.9v-1.2
	c0-0.5,0.4-0.9,0.9-0.9h5.3c0.8,0,1.5-0.7,1.5-1.5V1.5C22.3,0.7,21.7,0,20.8,0z M11.2,15.9c-0.4,0-0.8-0.4-0.8-0.8
	c0-0.4,0.4-0.8,0.8-0.8c0.4,0,0.8,0.4,0.8,0.8C12,15.5,11.6,15.9,11.2,15.9z M20.4,12.8c0,0.3-0.2,0.5-0.5,0.5H2.5
	c-0.3,0-0.5-0.2-0.5-0.5V2.4c0-0.3,0.2-0.5,0.5-0.5h17.4c0.3,0,0.5,0.2,0.5,0.5V12.8z"/>
</svg>
