<?xml version="1.0" encoding="utf-8"?>
<!-- Generator: Adobe Illustrator 19.0.1, SVG Export Plug-In . SVG Version: 6.00 Build 0)  -->
<svg version="1.1" id="Layer_1" xmlns="http://www.w3.org/2000/svg" xmlns:xlink="http://www.w3.org/1999/xlink" x="0px" y="0px"
	 viewBox="0 0 90 90" enable-background="new 0 0 90 90" xml:space="preserve">
<path id="Dribbble" d="M45,0C20.1,0,0,20.1,0,45c0,24.9,20.1,45,45,45c24.9,0,45-20.1,45-45C90,20.1,69.9,0,45,0z M72.6,23.3
	c4.4,5.6,7.1,12.5,7.5,20c-5.1-1.1-9.9-1.6-14.4-1.6v0h0c-3.6,0-7,0.3-10.2,0.9c-0.8-1.9-1.6-3.7-2.3-5.5
	C60.2,34.1,67.1,29.6,72.6,23.3z M45,9.9c8.3,0,15.9,2.9,21.9,7.7c-4.6,5.5-10.7,9.5-17.2,12.3C45,21,40.6,14.6,37.5,10.7
	C39.9,10.2,42.4,9.9,45,9.9z M29.5,13.6c2.4,2.9,7.3,9.2,12.5,19.1c-10.6,3.2-21.3,3.9-27.7,3.9c-0.2,0-0.4,0-0.5,0h0
	c-1.1,0-2,0-2.8,0C13.5,26.4,20.4,18.1,29.5,13.6z M9.9,45c0-0.2,0-0.3,0-0.5c1,0,2.3,0.1,3.8,0.1h0c7.1,0,19.4-0.6,31.9-4.6
	c0.7,1.5,1.4,3,2,4.6c-8.3,2.8-14.9,7.2-19.8,11.7c-4.7,4.3-7.8,8.5-9.7,11.3C13,61.5,9.9,53.6,9.9,45z M45,80.1
	c-7.8,0-15-2.6-20.9-6.9c1.2-2,3.9-6,8.1-10c4.4-4.2,10.4-8.5,18.2-11c2.7,7.5,5.1,16.1,6.9,25.7C53.6,79.3,49.4,80.1,45,80.1z
	 M64.9,73.9c-1.8-8.7-4-16.6-6.5-23.6c2.3-0.3,4.7-0.5,7.2-0.5h0.1h0h0c4.2,0,8.8,0.5,13.8,1.7C77.7,60.7,72.4,68.7,64.9,73.9z"/>
</svg>
