<?xml version="1.0" encoding="utf-8"?>
<!-- Generator: Adobe Illustrator 19.0.1, SVG Export Plug-In . SVG Version: 6.00 Build 0)  -->
<svg version="1.1" id="Layer_1" xmlns="http://www.w3.org/2000/svg" xmlns:xlink="http://www.w3.org/1999/xlink" x="0px" y="0px"
	 viewBox="0 0 20.4 20.4" enable-background="new 0 0 20.4 20.4" xml:space="preserve">
<path d="M10.2,0C4.6,0,0,4.6,0,10.2s4.6,10.2,10.2,10.2c5.6,0,10.2-4.6,10.2-10.2S15.8,0,10.2,0z M6.9,2.5c0.1-0.1,0.3,0,0.4,0.1
	C7.4,3,7.2,3.3,6.1,4.2c-1.4,1.1-1.6,2-1.4,3.8c0.3,1.8,1.3,1.8,2,3.2c0.7,1.3,0.1,2.5,1.1,4.8c0.4,0.9,1,1.5,1.2,2
	c0.1,0.2-0.1,0.5-0.4,0.5c-3.9-0.7-6.8-4.1-6.8-8.2C1.9,6.7,4,3.8,6.9,2.5z M10.9,17.5c-0.1-0.7,0.5-2.1,1.5-3.2
	c1.9-2,0.5-3-1.4-3.3c-1.9-0.3-3.1,0.5-3.6-0.7C7,9,7.8,8.5,8.1,8.4S8.9,8,9.8,9c0.4,0.4,0.9,0.4,0.8,0s-0.6-1.4,0-2.1
	c0.6-0.7,2-1.1,1.9-2.1c-0.1-1.1-1-1.5-2-1.2S8.9,4,8.6,3.1C8.5,2.9,8.5,2.7,8.4,2.5C8.4,2.3,8.5,2,8.8,2c0.5-0.1,0.9-0.1,1.4-0.1
	c3.4,0,6.3,2,7.6,4.9c0.4,1-0.1,2.1-1.2,2.4c0,0,0,0,0,0c-1.3,0.3-1.9,0.8-0.4,2c0.3,0.2,0.7,0.5,1.1,0.7c0.6,0.4,0.8,1.2,0.5,1.9
	c-1.1,2.2-3.1,3.9-5.6,4.5C11.5,18.4,11,18,10.9,17.5z"/>
</svg>
