<?xml version="1.0" encoding="utf-8"?>
<!-- Generator: Adobe Illustrator 19.0.1, SVG Export Plug-In . SVG Version: 6.00 Build 0)  -->
<svg version="1.1" id="Layer_1" xmlns="http://www.w3.org/2000/svg" xmlns:xlink="http://www.w3.org/1999/xlink" x="0px" y="0px"
	 viewBox="0 0 54 84.7" enable-background="new 0 0 54 84.7" xml:space="preserve">
<g>
	<path d="M25.2,84.7c-6.5,0-11.8-5.3-11.8-11.7c0-6.5,5.3-11.9,11.8-11.9S37.1,66.5,37.1,73C37.1,79.5,31.7,84.7,25.2,84.7z"/>
	<path d="M54,23.2c0,14.1-9.8,19.8-21.9,22.3l-1.2,6.8H19.6l-2.5-18l0.6-0.5c14-0.6,19.4-4.2,19.4-10.1v-0.2c0-5-3.8-7.9-10.2-7.9
		c-6.2,0-11.5,2.5-16.6,7.6L0,12C6.4,4.9,15.1,0,27.2,0C43.1,0,54,8.2,54,23V23.2z"/>
</g>
</svg>
