<?xml version="1.0" encoding="utf-8"?>
<!-- Generator: Adobe Illustrator 19.0.1, SVG Export Plug-In . SVG Version: 6.00 Build 0)  -->
<svg version="1.1" id="Layer_1" xmlns="http://www.w3.org/2000/svg" xmlns:xlink="http://www.w3.org/1999/xlink" x="0px" y="0px"
	 viewBox="0 0 90 75" enable-background="new 0 0 90 75" xml:space="preserve">
<path id="reddit" d="M64.3,40.8c0.2,0.6,0.3,1.2,0.3,1.8c0,1.2-0.4,2.4-1.1,3.4c-0.7,1-1.7,1.7-2.9,2h0c0,0,0,0,0,0c0,0,0,0,0,0
	c-0.5,0.2-1.1,0.3-1.7,0.3c-1.3,0-2.6-0.5-3.6-1.3c-1-0.8-1.8-2-2-3.3h0c0,0,0,0,0,0c0,0,0,0,0,0h0c-0.1-0.4-0.1-0.7-0.1-1.1
	c0-1.2,0.4-2.3,1.1-3.3c0.7-0.9,1.6-1.7,2.7-2.1c0,0,0,0,0,0c0,0,0,0,0,0c0.6-0.2,1.3-0.3,1.9-0.3c1.2,0,2.3,0.4,3.3,1
	C63.2,38.7,63.9,39.6,64.3,40.8C64.3,40.8,64.3,40.8,64.3,40.8C64.3,40.8,64.3,40.8,64.3,40.8L64.3,40.8z M60.8,55.3
	c-0.5-0.3-1-0.5-1.6-0.5c-0.5,0-0.9,0.1-1.3,0.4l0,0c-4,2.4-8.7,3.7-13.3,3.7c-3.5,0-6.9-0.7-10.1-2.3l0,0l0,0c-0.5-0.2-1-0.6-1.6-1
	c-0.3-0.2-0.6-0.4-1-0.5c-0.3-0.1-0.7-0.2-1.1-0.2c-0.3,0-0.7,0.1-1,0.2c0,0,0,0-0.1,0h0c-0.5,0.2-1,0.6-1.2,1
	c-0.3,0.5-0.4,1-0.4,1.6c0,0.5,0.1,1,0.4,1.4c0.2,0.4,0.6,0.8,1,1c4.5,3,9.8,4.4,15.1,4.4c4.8,0,9.6-1.1,13.9-3.1l0,0l0,0
	c0.6-0.3,1.3-0.6,2-1.1c0.3-0.2,0.7-0.5,1-0.8c0.3-0.3,0.5-0.7,0.7-1.2v0c0.1-0.2,0.1-0.4,0.1-0.6c0-0.4-0.1-0.8-0.3-1.1
	C61.6,56.1,61.2,55.6,60.8,55.3z M29.3,48.1C29.3,48.1,29.3,48.1,29.3,48.1c0.6,0.2,1.2,0.3,1.8,0.3c1.5,0,2.9-0.6,3.9-1.6
	c1.1-1,1.8-2.4,1.8-3.9c0,0,0-0.1,0-0.1c0-0.1,0-0.1,0-0.2c0-1.6-0.7-2.9-1.8-3.9c-1.1-1-2.5-1.6-3.9-1.6c-0.4,0-0.8,0-1.2,0.1
	c0,0,0,0,0,0c0,0,0,0,0,0c-1.9,0.4-3.6,1.8-4.3,3.8l0,0v0c0,0,0,0,0,0c-0.2,0.5-0.3,1.1-0.3,1.7c0,1.2,0.4,2.4,1.1,3.4
	C27.1,47,28.1,47.7,29.3,48.1C29.3,48.1,29.3,48.1,29.3,48.1z M90,33.9L90,33.9c0,0.2,0,0.4,0,0.6c0,2.2-0.7,4.3-1.9,6.1
	c-1.1,1.7-2.6,3.1-4.3,4c0.1,0.9,0.2,1.7,0.2,2.6c0,4.7-1.6,9.3-4.5,13v0h0c-5.2,7-13.2,11-21.3,13.1h0l0,0c-4.3,1-8.8,1.6-13.2,1.6
	c-6.6,0-13.3-1.2-19.5-3.7l0,0h0c-6.4-2.6-12.5-6.8-16.3-13c-2-3.3-3.1-7.1-3.1-11c0-0.9,0.1-1.8,0.2-2.6c-1.7-1-3.2-2.3-4.2-3.9
	C0.8,39,0.1,37,0,34.9v0v0v0c0-3,1.3-5.8,3.3-7.9s4.8-3.5,7.8-3.5c0,0,0.1,0,0.1,0c0.3,0,0.6,0,0.9,0c1.5,0,3,0.2,4.4,0.8l0,0l0,0
	c1.2,0.5,2.4,1.1,3.5,2c0.3-0.2,0.7-0.4,1.2-0.5c6.5-3.8,14.1-5.3,21.4-5.8c0.1-3.6,0.5-7.5,2.3-10.8C46.4,6.3,49,4.1,52,3.4l0,0
	l0,0C53.2,3.1,54.4,3,55.6,3c3.1,0,6.2,0.7,9.1,1.9c1.3-1.9,3.1-3.4,5.2-4.3l0,0l0,0C71.1,0.2,72.5,0,73.8,0c1.4,0,2.8,0.3,4.1,0.8
	v0c0,0,0,0,0,0c0,0,0,0,0,0c1.9,0.7,3.5,2.1,4.6,3.8c1.1,1.7,1.8,3.7,1.8,5.8c0,0.4,0,0.8-0.1,1.1l0,0c0,0,0,0,0,0
	c-0.2,2.7-1.6,5-3.5,6.7c-1.9,1.7-4.4,2.7-7,2.7c-0.4,0-0.8,0-1.2-0.1c-2.5-0.2-4.9-1.4-6.7-3.3c-1.8-1.8-2.9-4.3-2.9-6.9
	c0-0.1,0-0.3,0-0.4c-2.4-1.1-4.9-1.9-7.5-1.9c-0.4,0-0.7,0-1.1,0.1h0c-1.9,0.2-3.6,1.4-4.5,3.1v0v0c-1.3,2.5-1.6,5.5-1.6,8.4
	c7.2,0.5,14.5,2.2,20.9,5.9h0l0.1,0.1c0.1,0.1,0.3,0.2,0.5,0.3c0.4-0.4,0.9-0.7,1.4-1c1.9-1.3,4.2-1.9,6.5-1.9c1,0,2,0.1,3,0.4h0
	l0,0c0,0,0,0,0,0v0c2.3,0.6,4.5,1.9,6.1,3.8C88.7,29.2,89.8,31.5,90,33.9L90,33.9z M68.6,10.2c0,0.1,0,0.2,0,0.3v0v0
	c0,1.3,0.6,2.4,1.5,3.3c0.9,0.9,2.1,1.4,3.3,1.4h0h0c0.1,0,0.2,0,0.3,0c1.2,0,2.5-0.5,3.4-1.4c0.9-0.9,1.5-2,1.6-3.3l0,0v0
	c0-0.1,0-0.2,0-0.3c0-1.3-0.6-2.6-1.6-3.5c-1-0.9-2.2-1.5-3.5-1.5c-0.4,0-0.8,0.1-1.2,0.2l0,0l0,0c-1,0.3-2,0.9-2.7,1.8
	C69.1,8.1,68.6,9.1,68.6,10.2z M15.1,29.7c-1-0.5-2-0.8-3-0.8c-0.2,0-0.3,0-0.5,0h0l0,0c-1.4,0-2.9,0.7-3.9,1.7
	c-1.1,1-1.8,2.3-1.8,3.8v0l0,0c0,0.1,0,0.2,0,0.4c0,0.9,0.3,1.8,0.8,2.6c0.3,0.6,0.8,1.1,1.3,1.6C9.6,35.3,12.2,32.2,15.1,29.7z
	 M78.3,47.5c0-3.2-1.2-6.5-3.1-9.1c-3.8-5.3-9.6-8.7-15.7-10.6l0,0c-1.2-0.4-2.4-0.7-3.5-0.9c-3.6-0.8-7.2-1.2-10.9-1.2
	c-4.9,0-9.8,0.7-14.5,2.2c-6.1,1.9-12,5.3-15.7,10.6v0c-1.9,2.6-3,5.9-3,9.2c0,1.2,0.2,2.4,0.5,3.6l0,0c0.7,2.6,2,5,3.8,7
	c1.7,2,3.9,3.8,6.1,5.2c0.5,0.3,1,0.6,1.5,0.9c6.5,3.6,14,5.2,21.4,5.2c1.3,0,2.5,0,3.8-0.1c7.5-0.6,15-2.8,21.1-7.3l0,0
	c1.9-1.4,3.7-3.2,5.1-5.1c1.4-2,2.5-4.2,2.9-6.6v0l0,0C78.2,49.3,78.3,48.4,78.3,47.5z M84.2,34.5c0-0.8-0.2-1.6-0.6-2.3l0,0l0,0
	c-0.5-1.1-1.4-1.9-2.4-2.5c-1-0.6-2.2-0.8-3.3-0.8c-1.1,0-2.1,0.2-3,0.7c3,2.6,5.6,5.7,7.3,9.3c0.5-0.5,1-1,1.4-1.7
	C83.9,36.4,84.2,35.5,84.2,34.5z"/>
</svg>
