<?xml version="1.0" encoding="utf-8"?>
<!-- Generator: Adobe Illustrator 19.0.1, SVG Export Plug-In . SVG Version: 6.00 Build 0)  -->
<svg version="1.1" id="Layer_1" xmlns="http://www.w3.org/2000/svg" xmlns:xlink="http://www.w3.org/1999/xlink" x="0px" y="0px"
	 viewBox="0 0 23.1 23.1" enable-background="new 0 0 23.1 23.1" xml:space="preserve">
<path d="M23.1,12.4v-1.8c0-0.6-0.5-1-1-1h-0.3c-0.7,0-1.2-0.4-1.5-1.1c-0.1-0.4-0.3-0.7-0.5-1.1c-0.3-0.6-0.2-1.3,0.3-1.8l0.2-0.2
	c0.4-0.4,0.4-1.1,0-1.5l-1.2-1.2c-0.4-0.4-1.1-0.4-1.5,0L17.4,3c-0.5,0.5-1.2,0.6-1.8,0.3c-0.4-0.2-0.7-0.3-1.1-0.4
	c-0.6-0.2-1.1-0.8-1.1-1.5V1c0-0.6-0.5-1-1-1h-1.8c-0.6,0-1,0.5-1,1v0.3c0,0.7-0.4,1.2-1.1,1.5C8.2,3,7.8,3.1,7.5,3.3
	C6.9,3.6,6.2,3.5,5.7,3L5.5,2.8C5.1,2.4,4.4,2.4,4,2.8L2.8,4c-0.4,0.4-0.4,1.1,0,1.5L3,5.7c0.5,0.5,0.6,1.2,0.3,1.8
	C3.1,7.8,3,8.2,2.9,8.6C2.6,9.2,2.1,9.6,1.4,9.6H1c-0.6,0-1,0.5-1,1v1.8c0,0.6,0.5,1,1,1h0.4c0.7,0,1.2,0.4,1.5,1.1
	c0.1,0.4,0.3,0.7,0.4,1c0.3,0.6,0.2,1.3-0.3,1.8l-0.3,0.3c-0.4,0.4-0.4,1.1,0,1.5L4,20.3c0.4,0.4,1.1,0.4,1.5,0l0.2-0.2
	c0.5-0.5,1.2-0.6,1.8-0.3c0.3,0.2,0.7,0.3,1.1,0.4c0.6,0.2,1.1,0.8,1.1,1.5V22c0,0.6,0.5,1,1,1h1.8c0.6,0,1-0.5,1-1v-0.3
	c0-0.7,0.4-1.2,1.1-1.5c0.4-0.1,0.7-0.3,1.1-0.4c0.6-0.3,1.3-0.2,1.8,0.3l0.2,0.2c0.4,0.4,1.1,0.4,1.5,0l1.2-1.2
	c0.4-0.4,0.4-1.1,0-1.5l-0.2-0.2c-0.5-0.5-0.6-1.2-0.3-1.8c0.2-0.4,0.3-0.7,0.5-1.1c0.2-0.6,0.8-1.1,1.5-1.1H22
	C22.6,13.5,23.1,13,23.1,12.4z M12.9,17.3c-4.3,1-8.1-2.8-7.2-7.2C6.3,8,8,6.2,10.2,5.7c4.3-1,8.1,2.8,7.2,7.2
	C16.9,15.1,15.1,16.9,12.9,17.3z"/>
</svg>
