<?xml version="1.0" encoding="utf-8"?>
<!-- Generator: Adobe Illustrator 19.0.1, SVG Export Plug-In . SVG Version: 6.00 Build 0)  -->
<svg version="1.1" id="Layer_1" xmlns="http://www.w3.org/2000/svg" xmlns:xlink="http://www.w3.org/1999/xlink" x="0px" y="0px"
	 viewBox="0 0 24.7 21.2" enable-background="new 0 0 24.7 21.2" xml:space="preserve">
<g>
	<path d="M24,14.1l-3.6-4.2c-0.2-0.2-0.5-0.4-0.8-0.4h-1.2c-0.2,0-0.3,0.1-0.4,0.2l-0.4,0.5c-0.1,0.2,0,0.5,0.2,0.5h0.7
		c0.2,0,0.5,0.1,0.6,0.3l2.3,3.3c0.2,0.3,0,0.7-0.3,0.7h-3.1c-0.6,0-1.2,0.4-1.3,1l-0.4,1.8c-0.1,0.5-0.5,0.8-1,0.8H9.4
		c-0.5,0-0.9-0.3-1-0.8l-0.4-1.7c-0.1-0.6-0.7-1-1.3-1H3.5c-0.3,0-0.5-0.4-0.3-0.7L5.5,11c0.1-0.2,0.4-0.3,0.6-0.3h0.7
		c0.3,0,0.4-0.3,0.2-0.5L6.6,9.7C6.5,9.5,6.4,9.5,6.2,9.5H5.1c-0.3,0-0.6,0.1-0.8,0.4l-3.6,4.3c-0.6,0.7-0.8,1.5-0.6,2.4l0.6,3.3
		c0.1,0.8,0.9,1.4,1.7,1.4h20c0.8,0,1.6-0.6,1.7-1.4l0.6-3.3C24.8,15.6,24.6,14.7,24,14.1z"/>
	<path d="M6.9,7.6h2c0.5,0,0.9,0.4,0.9,0.9v4.8c0,0.5,0.4,0.9,0.9,0.9h3.1c0.5,0,0.9-0.4,0.9-0.9V8.5c0-0.5,0.4-0.9,0.9-0.9h2
		c0.6,0,0.9-0.6,0.5-1.1L13,0.3c-0.4-0.4-1-0.4-1.4,0L6.4,6.6C6.1,7,6.4,7.6,6.9,7.6z"/>
</g>
</svg>
