<svg style="display: none;"><symbol viewBox="0 0 184 127" id="shape-bike"><title>Bike</title><desc>Created with Sketch.</desc> <!-- Generator: Sketch 3.2.2 (9983) - http://www.bohemiancoding.com/sketch -->    <g id="svgstore8b83db72f32073e9ac8e3e561e8e8032Welcome" stroke="none" stroke-width="1" fill="none" fill-rule="evenodd" sketch:type="MSPage"> <g id="svgstore8b83db72f32073e9ac8e3e561e8e8032Desktop-HD" sketch:type="MSArtboardGroup" transform="translate(-209.000000, -814.000000)" fill="#2A2240"> <g id="svgstore8b83db72f32073e9ac8e3e561e8e8032Intro" sketch:type="MSLayerGroup" transform="translate(-99.000000, 0.000000)"> <g id="svgstore8b83db72f32073e9ac8e3e561e8e8032Bike" transform="translate(308.000000, 814.000000)" sketch:type="MSShapeGroup"> <path d="M76.4857461,88.6941525 C76.4857461,109.812183 59.3505544,126.993084 38.2801906,126.993084 C17.2136472,126.993084 0.074635,109.812183 0.074635,88.6941525 C0.074635,67.5761218 17.2136472,50.3952212 38.2801906,50.3952212 C59.3505544,50.3952212 76.4857461,67.5761218 76.4857461,88.6941525 L76.4857461,88.6941525 Z M145.255746,50.3952212 C124.189203,50.3952212 107.050191,67.5761218 107.050191,88.6941525 C107.050191,109.812183 124.189203,126.993084 145.255746,126.993084 C166.322289,126.993084 183.461302,109.812183 183.461302,88.6941525 C183.461302,67.5761218 166.322289,50.3952212 145.255746,50.3952212 L145.255746,50.3952212 Z M120.796549,42.7354349 L95.1338778,90.5095219 C94.4691011,91.7465774 93.1815739,92.5202158 91.77943,92.5240457 L91.7679683,92.5240457 C90.3734656,92.5240457 89.0859383,91.758067 88.4135206,90.5286714 L43.6557122,8.26639672 L38.2801906,8.26639672 C36.1712439,8.26639672 34.459635,6.5506046 34.459635,4.43650359 C34.459635,2.32240258 36.1712439,0.606610452 38.2801906,0.606610452 L65.0240794,0.606610452 C67.1368467,0.606610452 68.844635,2.32240258 68.844635,4.43650359 C68.844635,6.5506046 67.1368467,8.26639672 65.0240794,8.26639672 L52.3589378,8.26639672 L66.9458189,35.0756487 L149.076302,35.0756487 C151.189069,35.0756487 152.896857,36.7914408 152.896857,38.9055418 C152.896857,41.0196428 151.189069,42.7354349 149.076302,42.7354349 L120.796549,42.7354349 L120.796549,42.7354349 Z M112.116247,42.7354349 L71.114045,42.7354349 L91.745045,80.6552069 L112.116247,42.7354349 L112.116247,42.7354349 Z"/> </g> </g> </g> </g> </symbol><symbol viewBox="0 0 104 21" id="shape-bird-2"><title>bird</title><desc>Created with Sketch.</desc> <!-- Generator: Sketch 3.2.2 (9983) - http://www.bohemiancoding.com/sketch -->    <g id="svgstore89e9a2f000fc21870d95f8db643d8e07Welcome" stroke="none" stroke-width="1" fill="none" fill-rule="evenodd" sketch:type="MSPage"> <g id="svgstore89e9a2f000fc21870d95f8db643d8e07Desktop-HD" sketch:type="MSArtboardGroup" transform="translate(-1047.000000, -112.000000)" fill="#333333"> <g id="svgstore89e9a2f000fc21870d95f8db643d8e07Intro" sketch:type="MSLayerGroup" transform="translate(-99.000000, 0.000000)"> <g id="svgstore89e9a2f000fc21870d95f8db643d8e07landscape" sketch:type="MSShapeGroup"> <path d="M1194.79939,124.181903 C1211.50888,100.77573 1249.94304,119.166247 1249.94304,119.166247 C1249.94304,119.166247 1215.58636,106.961595 1195.75432,131.947716 C1173.22914,109.166097 1146.33888,132.541109 1146.33888,132.541109 C1146.33888,132.541109 1173.0754,104.11928 1194.79939,124.181903 Z" id="svgstore89e9a2f000fc21870d95f8db643d8e07bird"/> </g> </g> </g> </g> </symbol><symbol viewBox="0 0 1440 189" id="shape-city"><title>city front</title><desc>Created with Sketch.</desc> <!-- Generator: Sketch 3.2.2 (9983) - http://www.bohemiancoding.com/sketch -->    <g id="svgstore3bbb1aba26c3e5dcb21c61bc06e2c4e7Welcome" stroke="none" stroke-width="1" fill="none" fill-rule="evenodd" sketch:type="MSPage"> <g id="svgstore3bbb1aba26c3e5dcb21c61bc06e2c4e7Desktop-HD" sketch:type="MSArtboardGroup" transform="translate(0.000000, -657.000000)" fill="#694353"> <g id="svgstore3bbb1aba26c3e5dcb21c61bc06e2c4e7Intro" sketch:type="MSLayerGroup" transform="translate(-99.000000, 0.000000)"> <g id="svgstore3bbb1aba26c3e5dcb21c61bc06e2c4e7landscape" sketch:type="MSShapeGroup"> <g id="svgstore3bbb1aba26c3e5dcb21c61bc06e2c4e7city" transform="translate(0.000000, 657.000000)"> <path d="M686.342888,148.292118 L686.342888,140.235015 L681,140.235015 L690.847787,133.083811 L690.847787,125.823197 L696.086948,125.823197 L696.086948,129.279015 L703.94506,123.572765 L726.890749,140.235015 L721.547233,140.235015 L721.547233,161.731386 L729.208578,161.731386 L729.208578,159.308667 L726.629232,159.308667 L729.65932,143.260742 L733.045852,159.308667 L730.465876,159.308667 L730.465876,161.731386 L739.149405,161.731386 L739.149405,140.235015 L733.806517,140.235015 L756.751578,123.572765 L765.65702,130.03922 L765.65702,125.823197 L770.896181,125.823197 L770.896181,133.843386 L779.697267,140.235015 L774.35375,140.235015 L774.35375,161.731386 L784.660451,161.731386 L784.660451,159.477811 C782.565164,159.172848 780.954565,157.373258 780.954565,155.19325 C780.954565,152.798826 782.895204,150.857758 785.2891,150.857758 C787.683624,150.857758 789.624263,152.798826 789.624263,155.19325 C789.624263,157.373258 788.013036,159.172848 785.917749,159.477811 L785.917749,161.731386 L796.355837,161.731386 L796.355837,140.235015 L791.012949,140.235015 L813.95801,123.572765 L822.863451,130.03922 L822.863451,125.823197 L828.102612,125.823197 L828.102612,133.843386 L831.004456,135.951083 L851.047673,135.951083 L854.819567,142.003167 L851.047673,142.003167 L851.047673,161.731386 L861.312254,161.731386 L861.312254,136.84522 L857.854684,137.346364 L857.854684,134.320008 L898.402546,128.442727 L898.402546,98.616803 L895.573625,98.616803 L898.088221,92.5647197 L913.251236,92.5647197 L913.251236,82.9103106 L910.507811,82.9103106 L921.883215,63.7373106 L921.883215,61.4868788 L920.811369,61.4868788 L920.811369,60.6707121 L921.883215,60.6707121 L921.883215,59.3949015 L922.698573,59.3949015 L922.698573,60.6707121 L923.77042,60.6707121 L923.77042,61.4868788 L922.698573,61.4868788 L922.698573,63.739197 L934.074606,82.9103106 L931.329924,82.9103106 L931.329924,92.5647197 L946.494196,92.5647197 L949.008792,98.616803 L946.179871,98.616803 L946.179871,126.976394 L960.197487,107.967508 L960.197487,67.7458333 L962.526003,67.7458333 L962.526003,59.8388258 L967.241499,55.4253636 L970.262786,6.9294697 L970.27473,6.9294697 L970.27473,3.72642424 L968.878501,3.72642424 L968.878501,2.66188636 L970.27473,2.66188636 L970.27473,1 L971.338405,1 L971.338405,2.66188636 L972.734005,2.66188636 L972.734005,3.72642424 L971.338405,3.72642424 L971.338405,6.9294697 L971.350978,6.9294697 L974.371636,55.4241061 L979.087132,59.8388258 L979.087132,67.7458333 L981.415648,67.7458333 L981.415648,106.349636 L998.287959,130.774273 L998.287959,119.793121 L994.384049,119.793121 L1010.57113,92.5119015 L1010.57113,89.3075985 L1009.04666,89.3075985 L1009.04666,88.1462273 L1010.57113,88.1462273 L1010.57113,86.3309167 L1011.73162,86.3309167 L1011.73162,88.1462273 L1013.25672,88.1462273 L1013.25672,89.3075985 L1011.73162,89.3075985 L1011.73162,92.5131591 L1027.9187,119.793121 L1024.01353,119.793121 L1024.01353,128.373561 L1039.32994,132.21797 L1039.32994,126.634962 L1033.98705,126.634962 L1043.83484,119.483758 L1043.83484,112.223144 L1049.074,112.223144 L1049.074,115.678962 L1056.93211,109.972712 L1079.8778,126.634962 L1074.53428,126.634962 L1074.53428,136.617598 L1085.85122,136.617598 L1089.62312,142.669682 L1086.16555,142.669682 L1086.16555,152.063773 L1093.5176,152.063773 L1093.5176,131.851386 L1110.00643,122.130326 L1110.00643,113.90578 L1111.54159,113.90578 C1112.01434,112.126939 1113.49292,110.764356 1115.3336,110.460023 L1115.3336,103.44275 L1116.88322,103.44275 L1116.88322,110.460023 C1118.72391,110.764356 1120.20249,112.126939 1120.67524,113.90578 L1122.2104,113.90578 L1122.2104,121.731045 L1132.79119,127.971136 L1132.79119,95.462803 L1149.4265,81.9438636 L1165.44196,94.9522273 L1165.44196,66.2247955 L1161.98502,66.2247955 L1161.98502,60.1727121 L1174.24305,60.1727121 L1174.24305,56.9608636 L1184.93008,56.9608636 L1184.93008,60.1727121 L1190.2736,60.1727121 L1190.2736,66.2247955 L1186.81603,66.2247955 L1186.81603,109.224455 L1192.71967,111.192561 L1192.71967,138.230439 L1198.37751,132.571348 L1198.37751,95.6061667 L1193.03525,95.6061667 L1215.97968,82.0878561 L1238.92537,95.6061667 L1233.58186,95.6061667 L1233.58186,130.27753 L1238.92286,130.27753 L1238.92286,115.90847 L1241.08101,115.90847 L1241.08101,113.891318 L1247.45614,113.891318 L1247.45614,115.90847 L1249.61555,115.90847 L1249.61555,130.27753 L1254.95592,130.27753 L1254.95592,95.6061667 L1249.61366,95.6061667 L1272.5581,82.0878561 L1281.16241,87.1571439 L1281.16241,83.0807121 L1285.74715,83.0807121 L1285.74715,89.8577879 L1295.50378,95.6061667 L1290.16027,95.6061667 L1290.16027,130.812629 L1297.07541,126.735568 L1297.07541,106.791045 L1301.79027,103.796758 L1301.79027,30.7077121 L1320.50956,37.5074242 L1322.5665,2.41225758 L1324.71145,39.0334924 L1332.92034,42.0152045 L1334.13615,21.2758939 L1335.40414,42.9175152 L1354.91112,50.0039545 L1354.91112,138.783144 L1368.81117,135.407182 L1368.81117,120.197432 L1387.30854,112.912295 L1388.87765,74.4965 L1388.50801,74.4965 L1388.50801,73.5111894 L1395.0535,73.5111894 L1395.0535,74.4965 L1394.6826,74.4965 L1396.27182,113.393947 L1414.75033,120.197432 L1414.75033,143.550614 L1419.65819,143.550614 L1419.65819,111.634598 L1446.53294,96.1437803 L1446.53294,110.226742 L1470.96538,96.1437803 L1470.96538,110.226742 L1495.39783,96.1437803 L1495.39783,120.544523 L1501.43537,120.544523 L1501.43537,115.372742 L1504.26052,115.372742 L1504.26052,77.4197348 L1509.60404,77.4197348 L1509.60404,115.372742 L1512.42919,115.372742 L1512.42919,120.544523 L1518.49376,120.544523 L1518.49376,141.449205 L1535.57101,141.449205 L1535.57101,133.476803 L1531.30374,133.476803 L1549.62886,120.169136 L1555.90529,124.725962 L1555.90529,121.966212 L1560.09021,121.966212 L1560.09021,127.765523 L1567.95398,133.476803 L1563.68734,133.476803 L1563.68734,157.304091 L1570.99036,157.304091 L1570.99036,146.587659 L1566.76583,146.587659 L1569.55515,142.111318 L1573.73944,142.111318 L1573.73944,139.527629 L1581.49131,139.527629 C1581.90496,137.116856 1583.99962,135.280795 1586.52616,135.280795 C1589.05459,135.280795 1591.14924,137.116856 1591.56289,139.527629 L1599.31414,139.527629 L1599.31414,142.111318 L1603.49842,142.111318 L1606.28837,146.587659 L1602.06322,146.587659 L1602.06322,161.731386 L1605.11342,161.731386 L1605.11342,165.897106 L686.625975,165.897106 L686.625975,165.924668 L1.35407012,165.924668 L1.35407012,162.936217 L3.83735976,162.936217 L3.83735976,137.280196 L0,137.280196 L7.07286042,132.149984 L7.07286042,126.941283 L10.8357215,126.941283 L10.8357215,129.420457 L16.4795616,125.326842 L32.9595747,137.280196 L29.1217634,137.280196 L29.1217634,144.441652 L36.6461311,144.441652 L36.6461311,133.496478 L42.7157425,133.496478 L42.7157425,128.819609 L46.0085845,128.819609 L46.0085845,133.496478 L48.3117228,133.496478 L48.3117228,116.305103 L46.2799404,116.305103 L48.0859692,111.963391 L53.2783021,111.963391 L53.2783021,109.65969 L66.3720111,109.65969 L66.3720111,106.050995 L70.5863794,106.050995 L70.5863794,111.963391 L82.8520242,111.963391 L84.6580531,116.305103 L82.6262706,116.305103 L82.6262706,139.09988 L88.6417012,139.09988 L88.6417012,127.198402 L86.0130262,127.198402 L90.8576986,123.684435 L90.8576986,120.117239 L93.4349017,120.117239 L93.4349017,121.815582 L97.2998034,119.011625 L108.587032,127.198402 L105.958809,127.198402 L105.958809,131.431402 L112.425746,131.431402 L112.425746,81.5714076 L109.942457,81.5714076 L109.942457,75.4253478 L113.780268,75.4253478 L113.780268,73.1216467 L118.818637,73.1216467 L118.818637,71.8166522 L121.455891,71.8166522 L121.455891,66.0842391 C121.455891,65.7107391 121.759303,65.4076087 122.133151,65.4076087 C122.507451,65.4076087 122.810412,65.7107391 122.810412,66.0842391 L122.810412,71.8166522 L125.448117,71.8166522 L125.448117,73.1216467 L130.486035,73.1216467 L130.486035,75.4253478 L134.323846,75.4253478 L134.323846,81.5714076 L131.840556,81.5714076 L131.840556,118.480245 L139.081377,118.480245 L139.081377,116.413364 L146.496029,116.413364 L146.496029,113.125391 L150.335646,113.125391 L150.335646,118.480245 L155.318931,118.480245 L155.318931,63.5279293 L152.835642,63.5279293 L152.835642,57.3818696 L156.673453,57.3818696 L156.673453,55.0781685 L161.711822,55.0781685 L161.711822,53.7731739 L165.477843,53.7731739 L165.477843,48.0407609 C165.477843,47.6672609 165.781256,47.3641304 166.155104,47.3641304 C166.529404,47.3641304 166.832365,47.6672609 166.832365,48.0407609 L166.832365,53.7731739 L170.598838,53.7731739 L170.598838,55.0781685 L175.636756,55.0781685 L175.636756,57.3818696 L179.474567,57.3818696 L179.474567,63.5279293 L176.991277,63.5279293 L176.991277,145.005511 L182.62383,145.005511 L182.62383,137.292826 L193.310554,122.817897 L193.310554,106.126777 L194.718353,106.126777 L194.718353,101.352473 L197.568718,98.6874511 L199.394613,69.40875 L199.401837,69.40875 L199.401837,67.4749402 L198.557971,67.4749402 L198.557971,66.8316902 L199.401837,66.8316902 L199.401837,65.8289239 L200.045235,65.8289239 L200.045235,66.8316902 L200.888199,66.8316902 L200.888199,67.4749402 L200.045235,67.4749402 L200.045235,69.40875 L200.052459,69.40875 L201.878355,98.687 L204.728268,101.352473 L204.728268,106.126777 L206.136067,106.126777 L206.136067,121.842196 L216.272404,136.498011 L216.272404,97.8948913 L212.435045,97.8948913 L228.914606,88.1969728 L245.394619,97.8948913 L241.556808,97.8948913 L241.556808,125.71613 L257.35956,125.71613 L257.35956,115.938821 L253.522201,115.938821 L270.001762,106.240451 L276.181541,109.877114 L276.181541,106.953168 L279.474383,106.953168 L279.474383,111.814984 L286.481775,115.938821 L282.643964,115.938821 L282.643964,135.08656 L286.150369,135.08656 L286.150369,130.40969 L289.443211,130.40969 L289.443211,135.08656 L293.705891,135.08656 L293.705891,145.625755 L297.437146,145.625755 L297.437146,34.5658913 L339.3176,18.0497935 L339.3176,34.1071359 L353.645279,40.0714076 L353.645279,134.100935 L360.244056,134.100935 L360.244056,121.97662 L364.458425,121.97662 L364.458425,145.625755 L368.430334,145.625755 L368.430334,84.7290163 L365.947044,84.7290163 L365.947044,80.3873043 L369.784855,80.3873043 L369.784855,78.0836033 L386.490622,78.0836033 L386.490622,80.3873043 L409.065982,80.3873043 L409.065982,84.7290163 L406.582693,84.7290163 L406.582693,111.963391 L412.063539,111.963391 L413.833447,81.7937935 L415.603355,111.963391 L421.166827,111.963391 L422.142986,95.3264022 L423.118241,111.963391 L426.44901,111.963391 L428.255039,116.305103 L426.223256,116.305103 L426.223256,123.831038 L432.603505,123.831038 L432.603505,129.277011 L439.091212,129.277011 L439.091212,53.1529293 L436.607922,53.1529293 L436.607922,48.8112174 L444.622175,48.8112174 L444.622175,47.367288 L447.030514,47.367288 L447.030514,16.8968152 L445.976697,16.8968152 L445.976697,14.3594511 L452.297798,14.3594511 L452.297798,12.5551033 L454.85378,12.5551033 L454.85378,10.919913 L457.49013,10.919913 L457.49013,0.676630435 C457.49013,0.303130435 457.793543,0 458.167391,0 C458.541239,0 458.844652,0.303130435 458.844652,0.676630435 L458.844652,10.919913 L461.482357,10.919913 L461.482357,12.5551033 L464.036985,12.5551033 L464.036985,14.3594511 L470.358086,14.3594511 L470.358086,16.8968152 L469.305171,16.8968152 L469.305171,47.367288 L471.712607,47.367288 L471.712607,48.8112174 L479.72686,48.8112174 L479.72686,53.1529293 L477.243571,53.1529293 L477.243571,155.465315 L479.420287,155.465315 L479.420287,133.448212 L483.213851,133.448212 L483.213851,123.867576 L485.659214,123.867576 L485.659214,127.265163 L487.832318,127.265163 L487.832318,124.27987 L492.917644,124.27987 L492.917644,115.323087 L496.054264,115.323087 L498.76421,127.051799 L498.76421,84.7290163 L496.280921,84.7290163 L496.280921,80.3873043 L504.295174,80.3873043 L504.295174,78.943375 L506.703513,78.943375 L506.703513,62.9861739 L504.295174,62.9861739 L504.295174,60.4488098 L511.970796,60.4488098 L511.970796,58.644462 L523.709984,58.644462 L523.709984,60.4488098 L531.385606,60.4488098 L531.385606,62.9861739 L528.97817,62.9861739 L528.97817,78.943375 L531.385606,78.943375 L531.385606,80.3873043 L539.399859,80.3873043 L539.399859,84.7290163 L536.916569,84.7290163 L536.916569,155.465315 L540.00217,155.465315 L540.00217,133.45588 L545.421159,133.45588 L545.421159,124.133717 L548.130202,124.133717 L548.130202,62.1742174 L552.2484,62.1742174 L556.152583,58.4559076 L556.618087,43.0003152 L557.057403,57.5947826 L560.932238,53.903538 L563.359089,56.2108478 L564.927625,29.4677065 L566.681731,59.3716141 L569.628267,62.1742174 L573.414606,62.1742174 L573.414606,146.186908 L576.256844,146.186908 L576.256844,142.860141 L580.471212,142.860141 L580.471212,146.186908 L583.347765,146.186908 L583.347765,116.305103 L581.315982,116.305103 L583.122011,111.963391 L588.314344,111.963391 L588.314344,109.65969 L601.408053,109.65969 L601.408053,106.050995 L605.622421,106.050995 L605.622421,111.963391 L617.888066,111.963391 L619.694095,116.305103 L617.662313,116.305103 L617.662313,150.18444 L624.098999,150.18444 L624.098999,145.115576 L629.971302,145.115576 L629.971302,129.837712 L627.93952,129.837712 L629.745548,125.496 L633.809113,125.496 L633.809113,123.192299 L660.448039,123.192299 L660.448039,125.496 L664.511604,125.496 L666.317632,129.837712 L664.28585,129.837712 L664.28585,149.203777 L675.873331,139.761625 L686.342888,148.292118 Z M686.342888,150.001299 L686.342888,161.731386 L684.219442,161.731386 L684.219442,150.001299 L686.342888,150.001299 Z M55,166 L1565,166 L1565,187.991045 C1565,187.991045 1392.45133,185.061257 1218.50781,187.991045 C1107.14571,189.866754 982.792637,182.944787 871.101563,187.991045 C769.617032,192.576167 659.253123,180.057773 530.953125,179.868484 C297.49509,179.524051 55,187.991045 55,187.991045 L55,166 Z" id="svgstore3bbb1aba26c3e5dcb21c61bc06e2c4e7city-front"/> </g> </g> </g> </g> </g> </symbol></svg>