<?xml version="1.0" encoding="UTF-8" standalone="no"?>
<svg width="184px" height="127px" viewBox="0 0 184 127" version="1.1" xmlns="http://www.w3.org/2000/svg" xmlns:xlink="http://www.w3.org/1999/xlink" xmlns:sketch="http://www.bohemiancoding.com/sketch/ns">
    <!-- Generator: Sketch 3.2.2 (9983) - http://www.bohemiancoding.com/sketch -->
    <title>Bike</title>
    <desc>Created with Sketch.</desc>
    <defs></defs>
    <g id="Welcome" stroke="none" stroke-width="1" fill="none" fill-rule="evenodd" sketch:type="MSPage">
        <g id="Desktop-HD" sketch:type="MSArtboardGroup" transform="translate(-209.000000, -814.000000)" fill="#2A2240">
            <g id="Intro" sketch:type="MSLayerGroup" transform="translate(-99.000000, 0.000000)">
                <g id="Bike" transform="translate(308.000000, 814.000000)" sketch:type="MSShapeGroup">
                    <path d="M76.4857461,88.6941525 C76.4857461,109.812183 59.3505544,126.993084 38.2801906,126.993084 C17.2136472,126.993084 0.074635,109.812183 0.074635,88.6941525 C0.074635,67.5761218 17.2136472,50.3952212 38.2801906,50.3952212 C59.3505544,50.3952212 76.4857461,67.5761218 76.4857461,88.6941525 L76.4857461,88.6941525 Z M145.255746,50.3952212 C124.189203,50.3952212 107.050191,67.5761218 107.050191,88.6941525 C107.050191,109.812183 124.189203,126.993084 145.255746,126.993084 C166.322289,126.993084 183.461302,109.812183 183.461302,88.6941525 C183.461302,67.5761218 166.322289,50.3952212 145.255746,50.3952212 L145.255746,50.3952212 Z M120.796549,42.7354349 L95.1338778,90.5095219 C94.4691011,91.7465774 93.1815739,92.5202158 91.77943,92.5240457 L91.7679683,92.5240457 C90.3734656,92.5240457 89.0859383,91.758067 88.4135206,90.5286714 L43.6557122,8.26639672 L38.2801906,8.26639672 C36.1712439,8.26639672 34.459635,6.5506046 34.459635,4.43650359 C34.459635,2.32240258 36.1712439,0.606610452 38.2801906,0.606610452 L65.0240794,0.606610452 C67.1368467,0.606610452 68.844635,2.32240258 68.844635,4.43650359 C68.844635,6.5506046 67.1368467,8.26639672 65.0240794,8.26639672 L52.3589378,8.26639672 L66.9458189,35.0756487 L149.076302,35.0756487 C151.189069,35.0756487 152.896857,36.7914408 152.896857,38.9055418 C152.896857,41.0196428 151.189069,42.7354349 149.076302,42.7354349 L120.796549,42.7354349 L120.796549,42.7354349 Z M112.116247,42.7354349 L71.114045,42.7354349 L91.745045,80.6552069 L112.116247,42.7354349 L112.116247,42.7354349 Z"></path>
                </g>
            </g>
        </g>
    </g>
</svg>