<?xml version="1.0" encoding="utf-8"?>
<!-- Generator: Adobe Illustrator 19.0.1, SVG Export Plug-In . SVG Version: 6.00 Build 0)  -->
<svg version="1.1" id="Layer_2" xmlns="http://www.w3.org/2000/svg" xmlns:xlink="http://www.w3.org/1999/xlink" x="0px" y="0px"
	 viewBox="0 0 19.4 19.4" enable-background="new 0 0 19.4 19.4" xml:space="preserve">
<path d="M18-134.6h-3c-0.7,0-1.4-0.6-1.4-1.4v-7.4c0-0.8-0.6-1.4-1.4-1.4H7.3c-0.8,0-1.4,0.6-1.4,1.4v7.4c0,0.7-0.6,1.4-1.4,1.4H1.5
	c-0.8,0-1.3,1-0.8,1.6l8,9.6c0.5,0.6,1.5,0.6,2.1,0l8-9.6C19.3-133.6,18.8-134.6,18-134.6z"/>
<path d="M73.3-133.1h3c0.7,0,1.4,0.6,1.4,1.4v7.4c0,0.8,0.6,1.4,1.4,1.4h4.8c0.8,0,1.4-0.6,1.4-1.4v-7.4c0-0.7,0.6-1.4,1.4-1.4h3.1
	c0.8,0,1.3-1,0.8-1.6l-8-9.6c-0.5-0.6-1.5-0.6-2.1,0l-8,9.6C72-134,72.5-133.1,73.3-133.1z"/>
<path d="M297.8-145.7c-6.4,0-11.5,5.2-11.5,11.5c0,6.4,5.2,11.5,11.5,11.5c6.4,0,11.5-5.2,11.5-11.5
	C309.4-140.6,304.2-145.7,297.8-145.7z M303.1-133.3l-4.7,5.6c-0.3,0.4-0.9,0.4-1.2,0l-4.7-5.6c-0.3-0.4,0-1,0.4-1h1.8
	c0.4,0,0.8-0.4,0.8-0.8v-4.3c0-0.5,0.4-0.8,0.8-0.8h2.8c0.5,0,0.8,0.4,0.8,0.8v4.3c0,0.4,0.4,0.8,0.8,0.8h1.8
	C303.1-134.3,303.4-133.7,303.1-133.3z"/>
<path d="M369.6-122.7c6.4,0,11.5-5.2,11.5-11.5c0-6.4-5.2-11.5-11.5-11.5c-6.4,0-11.5,5.2-11.5,11.5
	C358.1-127.8,363.3-122.7,369.6-122.7z M364.4-135l4.7-5.6c0.3-0.4,0.9-0.4,1.2,0l4.7,5.6c0.3,0.4,0,1-0.4,1h-1.8
	c-0.4,0-0.8,0.4-0.8,0.8v4.3c0,0.5-0.4,0.8-0.8,0.8h-2.8c-0.5,0-0.8-0.4-0.8-0.8v-4.3c0-0.4-0.4-0.8-0.8-0.8h-1.8
	C364.3-134.1,364.1-134.7,364.4-135z"/>
<path d="M300.2,0.9v1.6c0,0.4-0.3,0.7-0.7,0.7h-10.1c-0.4,0-0.8,0.4-0.8,0.8v2.6c0,0.4,0.4,0.8,0.8,0.8h10.1c0.4,0,0.7,0.3,0.7,0.7
	v1.7c0,0.5,0.5,0.7,0.9,0.4l5.2-4.3c0.3-0.3,0.3-0.8,0-1.1l-5.2-4.3C300.7,0.1,300.2,0.4,300.2,0.9z"/>
<path d="M295,10.4V12c0,0.4,0.3,0.7,0.7,0.7h10.1c0.4,0,0.8,0.4,0.8,0.8v2.6c0,0.4-0.4,0.8-0.8,0.8h-10.1c-0.4,0-0.7,0.3-0.7,0.7
	v1.7c0,0.5-0.5,0.7-0.9,0.4l-5.2-4.3c-0.3-0.3-0.3-0.8,0-1.1l5.2-4.3C294.4,9.7,295,9.9,295,10.4z"/>
<path d="M149.5-142.1v16.6c0,0.8,0.9,1.2,1.6,0.7l9.6-7.9c0.7-0.6,0.7-1.7,0-2.3l-9.6-7.9C150.4-143.4,149.5-142.9,149.5-142.1z"/>
<path d="M297.6-71.8c-5.4,0-9.7,4.3-9.7,9.7c0,5.4,4.3,9.7,9.7,9.7c5.4,0,9.7-4.3,9.7-9.7C307.3-67.4,302.9-71.8,297.6-71.8z
	 M299.4-58.2c0,0.4-0.5,0.6-0.8,0.4l-4.7-3.8c-0.3-0.3-0.3-0.8,0-1.1l4.7-3.8c0.3-0.2,0.8,0,0.8,0.4V-58.2z"/>
<path d="M11.8-58.6V-66c0-0.4-0.5-0.6-0.8-0.3l-4.6,3.5c-0.3,0.3-0.3,0.8,0,1l4.6,3.5C11.4-58.1,11.8-58.3,11.8-58.6z"/>
<path d="M230-125.5v-16.6c0-0.8-0.9-1.2-1.6-0.7l-9.6,7.9c-0.7,0.6-0.7,1.7,0,2.3l9.6,7.9C229.1-124.3,230-124.7,230-125.5z"/>
<path d="M446.1-134.8l-3.2-3.2c-0.4-0.4-1.1-0.1-1.1,0.5v1.7c0,0.4-0.3,0.7-0.7,0.7h-3c-0.6,0-1.1,0.5-1.1,1.1v0
	c0,0.6,0.5,1.1,1.1,1.1h3c0.4,0,0.7,0.3,0.7,0.7v1.7c0,0.6,0.7,0.9,1.1,0.5l3.2-3.2C446.4-133.8,446.4-134.4,446.1-134.8z"/>
<path d="M511.8,6.9V2.4c0-0.6-0.7-0.9-1.1-0.5l-1.2,1.2c-0.3,0.3-0.7,0.3-0.9,0L506,0.6c-0.4-0.4-1.2-0.4-1.6,0l0,0
	c-0.4,0.4-0.4,1.2,0,1.6l2.6,2.6c0.3,0.3,0.3,0.7,0,0.9l-1.2,1.2c-0.4,0.4-0.1,1.1,0.5,1.1l4.6,0C511.3,7.9,511.8,7.5,511.8,6.9z"/>
<path d="M516.6,8h4.6c0.6,0,0.9-0.7,0.5-1.1l-1.2-1.2c-0.3-0.3-0.3-0.7,0-0.9l2.6-2.6c0.4-0.4,0.4-1.2,0-1.6l0,0
	c-0.4-0.4-1.2-0.4-1.6,0l-2.6,2.6c-0.3,0.3-0.7,0.3-0.9,0l-1.2-1.2c-0.4-0.4-1.1-0.1-1.1,0.5l0,4.6C515.6,7.5,516,8,516.6,8z"/>
<path d="M515.6,12.7v4.6c0,0.6,0.7,0.9,1.1,0.5l1.2-1.2c0.3-0.3,0.7-0.3,0.9,0l2.6,2.6c0.4,0.4,1.2,0.4,1.6,0l0,0
	c0.4-0.4,0.4-1.2,0-1.6l-2.6-2.6c-0.3-0.3-0.3-0.7,0-0.9l1.2-1.2c0.4-0.4,0.1-1.1-0.5-1.1l-4.6,0C516,11.7,515.6,12.2,515.6,12.7z"
	/>
<path d="M510.8,11.7h-4.6c-0.6,0-0.9,0.7-0.5,1.1l1.2,1.2c0.3,0.3,0.3,0.7,0,0.9l-2.6,2.6c-0.4,0.4-0.4,1.2,0,1.6l0,0
	c0.4,0.4,1.2,0.4,1.6,0l2.6-2.6c0.3-0.3,0.7-0.3,0.9,0l1.2,1.2c0.4,0.4,1.1,0.1,1.1-0.5l0-4.6C511.8,12.2,511.3,11.7,510.8,11.7z"/>
<path d="M18.7,90.2v-4.6c0-0.6-0.7-0.9-1.1-0.5l-1.2,1.2c-0.3,0.3-0.7,0.3-0.9,0L13,83.8c-0.4-0.4-1.2-0.4-1.6,0l0,0
	c-0.4,0.4-0.4,1.2,0,1.6l2.6,2.6c0.3,0.3,0.3,0.7,0,0.9l-1.2,1.2c-0.4,0.4-0.1,1.1,0.5,1.1l4.6,0C18.3,91.2,18.7,90.8,18.7,90.2z"/>
<path d="M1.8,91.2h4.6c0.6,0,0.9-0.7,0.5-1.1l-1.2-1.2c-0.3-0.3-0.3-0.7,0-0.9l2.6-2.6c0.4-0.4,0.4-1.2,0-1.6l0,0
	c-0.4-0.4-1.2-0.4-1.6,0L4,86.4c-0.3,0.3-0.7,0.3-0.9,0l-1.2-1.2c-0.4-0.4-1.1-0.1-1.1,0.5l0,4.6C0.8,90.8,1.2,91.2,1.8,91.2z"/>
<path d="M0.8,74.3v4.6c0,0.6,0.7,0.9,1.1,0.5l1.2-1.2c0.3-0.3,0.7-0.3,0.9,0l2.6,2.6c0.4,0.4,1.2,0.4,1.6,0l0,0
	c0.4-0.4,0.4-1.2,0-1.6l-2.6-2.6c-0.3-0.3-0.3-0.7,0-0.9l1.2-1.2c0.4-0.4,0.1-1.1-0.5-1.1l-4.6,0C1.2,73.3,0.8,73.7,0.8,74.3z"/>
<path d="M17.7,73.3h-4.6c-0.6,0-0.9,0.7-0.5,1.1l1.2,1.2c0.3,0.3,0.3,0.7,0,0.9l-2.6,2.6c-0.4,0.4-0.4,1.2,0,1.6l0,0
	c0.4,0.4,1.2,0.4,1.6,0l2.6-2.6c0.3-0.3,0.7-0.3,0.9,0l1.2,1.2c0.4,0.4,1.1,0.1,1.1-0.5l0-4.6C18.7,73.7,18.3,73.3,17.7,73.3z"/>
<path d="M157.9,79.5c0.3-0.3,0.7-0.3,0.9,0l1.2,1.2c0.4,0.4,1.1,0.1,1.1-0.5l0-4.6c0-0.6-0.4-1-1-1h-4.6c-0.6,0-0.9,0.7-0.5,1.1
	l1.2,1.2c0.3,0.3,0.3,0.7,0,0.9l-6.6,6.5c-0.3,0.3-0.7,0.3-0.9,0l-1.2-1.2c-0.4-0.4-1.1-0.1-1.1,0.5l0,4.6c0,0.6,0.4,1,1,1h4.6
	c0.6,0,0.9-0.7,0.5-1.1l-1.2-1.2c-0.3-0.3-0.3-0.7,0-0.9L157.9,79.5z"/>
<path d="M76.1,76.5v-3.1c0-0.4-0.5-0.6-0.7-0.3L74.5,74c-0.2,0.2-0.4,0.2-0.6,0l-1.7-1.7c-0.3-0.3-0.8-0.3-1.1,0l0,0
	c-0.3,0.3-0.3,0.8,0,1.1l1.7,1.7c0.2,0.2,0.2,0.4,0,0.6L72,76.5c-0.3,0.3-0.1,0.7,0.3,0.7l3.1,0C75.8,77.2,76.1,76.9,76.1,76.5z"/>
<path d="M87.7,77.2h3.1c0.4,0,0.6-0.5,0.3-0.7l-0.8-0.8c-0.2-0.2-0.2-0.4,0-0.6l1.7-1.7c0.3-0.3,0.3-0.8,0-1.1l0,0
	c-0.3-0.3-0.8-0.3-1.1,0L89.2,74c-0.2,0.2-0.4,0.2-0.6,0l-0.8-0.8c-0.3-0.3-0.7-0.1-0.7,0.3l0,3.1C87,76.9,87.3,77.2,87.7,77.2z"/>
<path d="M87,86.7v3.1c0,0.4,0.5,0.6,0.7,0.3l0.8-0.8c0.2-0.2,0.4-0.2,0.6,0l1.7,1.7c0.3,0.3,0.8,0.3,1.1,0l0,0
	c0.3-0.3,0.3-0.8,0-1.1l-1.7-1.7c-0.2-0.2-0.2-0.4,0-0.6l0.8-0.8c0.3-0.3,0.1-0.7-0.3-0.7l-3.1,0C87.3,86.1,87,86.4,87,86.7z"/>
<path d="M75.4,86.1h-3.1c-0.4,0-0.6,0.5-0.3,0.7l0.8,0.8c0.2,0.2,0.2,0.4,0,0.6l-1.7,1.7c-0.3,0.3-0.3,0.8,0,1.1l0,0
	c0.3,0.3,0.8,0.3,1.1,0l1.7-1.7c0.2-0.2,0.4-0.2,0.6,0l0.8,0.8c0.3,0.3,0.7,0.1,0.7-0.3l0-3.1C76.1,86.4,75.8,86.1,75.4,86.1z"/>
<path d="M441.7-143.9c-5.4,0-9.7,4.3-9.7,9.7c0,5.4,4.3,9.7,9.7,9.7c5.4,0,9.7-4.3,9.7-9.7C451.4-139.5,447.1-143.9,441.7-143.9z
	 M441.7-126.5c-4.2,0-7.7-3.4-7.7-7.7c0-4.2,3.4-7.7,7.7-7.7c4.2,0,7.7,3.4,7.7,7.7C449.4-129.9,445.9-126.5,441.7-126.5z"/>
<g>
	<path d="M509.5-133.5l3.2,3.2c0.4,0.4,1.1,0.1,1.1-0.5v-1.7c0-0.4,0.3-0.7,0.7-0.7h3c0.6,0,1.1-0.5,1.1-1.1v0
		c0-0.6-0.5-1.1-1.1-1.1h-3c-0.4,0-0.7-0.3-0.7-0.7v-1.7c0-0.6-0.7-0.9-1.1-0.5l-3.2,3.2C509.1-134.5,509.1-133.8,509.5-133.5z"/>
	<path d="M513.8-124.5c5.4,0,9.7-4.3,9.7-9.7c0-5.4-4.3-9.7-9.7-9.7c-5.4,0-9.7,4.3-9.7,9.7C504.1-128.8,508.4-124.5,513.8-124.5z
		 M513.8-141.8c4.2,0,7.7,3.4,7.7,7.7c0,4.2-3.4,7.7-7.7,7.7c-4.2,0-7.7-3.4-7.7-7.7C506.1-138.4,509.6-141.8,513.8-141.8z"/>
</g>
<path d="M441.6-71.9c-5.4,0-9.7,4.3-9.7,9.7c0,5.4,4.3,9.7,9.7,9.7c5.4,0,9.7-4.3,9.7-9.7C451.3-67.6,447-71.9,441.6-71.9z
	 M441.6-54.6c-4.2,0-7.7-3.4-7.7-7.7c0-4.2,3.4-7.7,7.7-7.7c4.2,0,7.7,3.4,7.7,7.7C449.3-58,445.9-54.6,441.6-54.6z"/>
<path d="M513.7-71.9c-5.4,0-9.7,4.3-9.7,9.7c0,5.4,4.3,9.7,9.7,9.7c5.4,0,9.7-4.3,9.7-9.7C523.4-67.6,519-71.9,513.7-71.9z
	 M513.7-54.6c-4.2,0-7.7-3.4-7.7-7.7c0-4.2,3.4-7.7,7.7-7.7c4.2,0,7.7,3.4,7.7,7.7C521.3-58,517.9-54.6,513.7-54.6z"/>
<path d="M9.7-71.9c-5.4,0-9.7,4.3-9.7,9.7c0,5.4,4.3,9.7,9.7,9.7c5.4,0,9.7-4.3,9.7-9.7C19.4-67.6,15.1-71.9,9.7-71.9z M9.7-54.6
	c-4.2,0-7.7-3.4-7.7-7.7c0-4.2,3.4-7.7,7.7-7.7c4.2,0,7.7,3.4,7.7,7.7C17.4-58,14-54.6,9.7-54.6z"/>
<path d="M79.6-65.9v7.4c0,0.4,0.5,0.6,0.8,0.3l4.6-3.5c0.3-0.3,0.3-0.8,0-1l-4.6-3.5C80-66.5,79.6-66.3,79.6-65.9z"/>
<path d="M81.7-52.6c5.4,0,9.7-4.3,9.7-9.7c0-5.4-4.3-9.7-9.7-9.7c-5.4,0-9.7,4.3-9.7,9.7C72-57,76.3-52.6,81.7-52.6z M81.7-70
	c4.2,0,7.7,3.4,7.7,7.7c0,4.2-3.4,7.7-7.7,7.7c-4.2,0-7.7-3.4-7.7-7.7C74-66.5,77.5-70,81.7-70z"/>
<path d="M369.6-71.8c-5.4,0-9.7,4.3-9.7,9.7c0,5.4,4.3,9.7,9.7,9.7c5.4,0,9.7-4.3,9.7-9.7C379.4-67.4,375-71.8,369.6-71.8z
	 M373.1-61.6l-4.7,3.8c-0.3,0.2-0.8,0-0.8-0.4v-8.1c0-0.4,0.5-0.6,0.8-0.4l4.7,3.8C373.5-62.4,373.5-61.9,373.1-61.6z"/>
<path d="M153.7-71.9c-5.4,0-9.7,4.3-9.7,9.7c0,5.4,4.3,9.7,9.7,9.7c5.4,0,9.7-4.3,9.7-9.7C163.4-67.6,159-71.9,153.7-71.9z
	 M158-61.4l-3.2,3.2c-0.4,0.4-1.1,0.1-1.1-0.5v-1.7c0-0.4-0.3-0.7-0.7-0.7h-3c-0.6,0-1.1-0.5-1.1-1.1v0c0-0.6,0.5-1.1,1.1-1.1h3
	c0.4,0,0.7-0.3,0.7-0.7v-1.7c0-0.6,0.7-0.9,1.1-0.5l3.2,3.2C158.4-62.5,158.4-61.8,158-61.4z"/>
<path d="M225.7-52.4c5.4,0,9.7-4.3,9.7-9.7c0-5.4-4.3-9.7-9.7-9.7c-5.4,0-9.7,4.3-9.7,9.7C216-56.7,220.3-52.4,225.7-52.4z
	 M221.3-62.9l3.2-3.2c0.4-0.4,1.1-0.1,1.1,0.5v1.7c0,0.4,0.3,0.7,0.7,0.7h3c0.6,0,1.1,0.5,1.1,1.1v0c0,0.6-0.5,1.1-1.1,1.1h-3
	c-0.4,0-0.7,0.3-0.7,0.7v1.7c0,0.6-0.7,0.9-1.1,0.5l-3.2-3.2C220.9-61.9,220.9-62.5,221.3-62.9z"/>
<g>
	<path d="M440.1-59l-2.3-2.3c-0.4-0.4-0.4-1.1,0-1.5l0,0c0.4-0.4,1.1-0.4,1.5,0l1.3,1.3l3.6-3.6c0.4-0.4,1.1-0.4,1.5,0l0,0
		c0.4,0.4,0.4,1.1,0,1.5l-4.6,4.6C441-58.7,440.5-58.7,440.1-59z"/>
</g>
<path d="M515-62c0,0,0-0.1,0-0.1l1.9-1.9c0.3-0.3,0.3-0.9,0-1.3l0,0c-0.3-0.3-0.9-0.3-1.3,0l-1.9,1.9c0,0-0.1,0-0.1,0l-1.9-1.9
	c-0.3-0.3-0.9-0.3-1.3,0l0,0c-0.3,0.3-0.3,0.9,0,1.3l1.9,1.9c0,0,0,0.1,0,0.1l-1.9,1.9c-0.3,0.3-0.3,0.9,0,1.3l0,0
	c0.3,0.3,0.9,0.3,1.3,0l1.9-1.9c0,0,0.1,0,0.1,0l1.9,1.9c0.3,0.3,0.9,0.3,1.3,0l0,0c0.3-0.3,0.3-0.9,0-1.3L515-62z"/>
<path d="M9.7,0C4.3,0,0,4.3,0,9.7s4.3,9.7,9.7,9.7s9.7-4.3,9.7-9.7S15.1,0,9.7,0z M14,8.3l-4.6,4.6c-0.3,0.3-0.9,0.3-1.2,0L6,10.6
	c-0.4-0.4-0.4-1.1,0-1.5l0,0c0.4-0.4,1.1-0.4,1.5,0l1.3,1.3l3.6-3.6c0.4-0.4,1.1-0.4,1.5,0l0,0C14.5,7.2,14.5,7.9,14,8.3z"/>
<path d="M81.8,0c-5.4,0-9.7,4.3-9.7,9.7s4.3,9.7,9.7,9.7s9.7-4.3,9.7-9.7S87.1,0,81.8,0z M83.1,9.8l1.9,1.9c0.3,0.3,0.3,0.9,0,1.3
	l0,0c-0.3,0.3-0.9,0.3-1.3,0l-1.9-1.9c0,0-0.1,0-0.1,0l-1.9,1.9c-0.3,0.3-0.9,0.3-1.3,0l0,0c-0.3-0.3-0.3-0.9,0-1.3l1.9-1.9
	c0,0,0-0.1,0-0.1l-1.9-1.9c-0.3-0.3-0.3-0.9,0-1.3l0,0c0.3-0.3,0.9-0.3,1.3,0l1.9,1.9c0,0,0.1,0,0.1,0l1.9-1.9
	c0.3-0.3,0.9-0.3,1.3,0l0,0c0.3,0.3,0.3,0.9,0,1.3l-1.9,1.9C83.1,9.7,83.1,9.7,83.1,9.8z"/>
<path d="M159.4,16.4l-7.1,0c-0.4,0-0.7,0.3-0.7,0.7v1.7c0,0.5-0.5,0.7-0.9,0.4l-5.2-4.3c-0.3-0.3-0.3-0.8,0-1.1l5.2-4.3
	c0.4-0.3,0.9,0,0.9,0.4v1.7c0,0.4,0.3,0.7,0.7,0.7h3.8c0.4,0,0.7-0.3,0.7-0.7V7.6c0-0.4-0.3-0.7-0.7-0.7h-8.7
	c-0.4,0-0.8-0.3-0.8-0.8V3.6c0-0.4,0.3-0.8,0.8-0.8h12.1c0.8,0,1.4,0.6,1.4,1.4V15C160.9,15.8,160.2,16.4,159.4,16.4z"/>
<path d="M220,16.4l7.1,0c0.4,0,0.7,0.3,0.7,0.7v1.7c0,0.5,0.5,0.7,0.9,0.4l5.2-4.3c0.3-0.3,0.3-0.8,0-1.1l-5.2-4.3
	c-0.4-0.3-0.9,0-0.9,0.4v1.7c0,0.4-0.3,0.7-0.7,0.7h-3.8c-0.4,0-0.7-0.3-0.7-0.7V7.6c0-0.4,0.3-0.7,0.7-0.7h8.7
	c0.4,0,0.8-0.3,0.8-0.8V3.6c0-0.4-0.3-0.8-0.8-0.8H220c-0.8,0-1.4,0.6-1.4,1.4V15C218.6,15.8,219.2,16.4,220,16.4z"/>
<path d="M367.8,5.1V3c0-0.6-0.7-0.9-1.1-0.5l-6.9,6.2c-0.6,0.5-0.6,1.5,0,2l6.9,6.4c0.4,0.4,1.1,0.1,1.1-0.5v-2.6
	c0-0.8,0.6-1.4,1.4-1.4c5.5,0,8.3,1.5,9.9,3c0.5,0.4,1.2-0.1,1-0.7c-2.2-5.4-6.7-8.1-10.9-8.5C368.4,6.5,367.8,5.8,367.8,5.1z"/>
<path d="M443.7,5.1V3c0-0.6,0.7-0.9,1.1-0.5l6.9,6.2c0.6,0.5,0.6,1.5,0,2l-6.9,6.4c-0.4,0.4-1.1,0.1-1.1-0.5v-2.6
	c0-0.8-0.6-1.4-1.4-1.4c-5.5,0-8.3,1.5-9.9,3c-0.5,0.4-1.2-0.1-1-0.7c2.2-5.4,6.7-8.1,10.9-8.5C443.1,6.5,443.7,5.8,443.7,5.1z"/>
<path d="M85,85.5h-6.9c-0.8,0-1.5-0.7-1.5-1.5v-4.7c0-0.8,0.7-1.5,1.5-1.5H85c0.8,0,1.5,0.7,1.5,1.5V84C86.5,84.8,85.8,85.5,85,85.5
	z"/>
<path d="M225.5,73.6v-1.2c0-0.3-0.3-0.4-0.6-0.3l-3.8,2.9c-0.3,0.3-0.3,0.8,0,1l3.8,2.9c0.2,0.2,0.6,0,0.6-0.3v-1.1
	c0-0.4,0.4-0.7,0.8-0.6c2.8,0.4,4.8,3.1,4.2,6.1c-0.4,1.9-1.9,3.4-3.8,3.8c-3.3,0.7-6.2-1.8-6.2-4.9c0-1,0.3-2,0.9-2.8
	c0.4-0.6,0.2-1.3-0.3-1.7l0,0c-0.6-0.4-1.3-0.3-1.7,0.3c-1.1,1.6-1.6,3.6-1.1,5.8c0.6,2.9,3,5.3,5.9,5.8c4.8,0.9,9.1-2.7,9.1-7.4
	c0-4-3-7.2-6.9-7.5C225.7,74.3,225.5,74,225.5,73.6z"/>
<g>
	<path d="M297.9,74c-0.3,0-0.6-0.3-0.6-0.6v-1.2c0-0.3-0.3-0.4-0.6-0.3l-3.8,2.9c-0.3,0.3-0.3,0.8,0,1l3.8,2.9
		c0.2,0.2,0.6,0,0.6-0.3v-1.1c0-0.4,0.4-0.7,0.8-0.6c2.8,0.4,4.8,3.1,4.2,6.1c-0.1,0.6-0.4,1.2-0.7,1.7c-0.4,0.6-0.2,1.3,0.3,1.7
		l0,0c0.6,0.4,1.3,0.3,1.7-0.3c0.8-1.2,1.3-2.6,1.3-4.2C304.8,77.6,301.8,74.3,297.9,74z"/>
</g>
<g>
	<path d="M296.6,89c0.3,0,0.6,0.3,0.6,0.6v1.2c0,0.3,0.3,0.4,0.6,0.3l3.8-2.9c0.3-0.3,0.3-0.8,0-1l-3.8-2.9c-0.2-0.2-0.6,0-0.6,0.3
		v1.1c0,0.4-0.4,0.7-0.8,0.6c-2.8-0.4-4.8-3.1-4.2-6.1c0.1-0.6,0.4-1.2,0.7-1.7c0.4-0.6,0.2-1.3-0.3-1.7l0,0
		c-0.6-0.4-1.3-0.3-1.7,0.3c-0.8,1.2-1.3,2.6-1.3,4.2C289.7,85.5,292.8,88.7,296.6,89z"/>
</g>
<g>
	<path d="M370.2,74c-0.3,0-0.6-0.3-0.6-0.6v-1.2c0-0.3-0.3-0.4-0.6-0.3l-3.8,2.9c-0.3,0.3-0.3,0.8,0,1l3.8,2.9
		c0.2,0.2,0.6,0,0.6-0.3v-1.1c0-0.4,0.4-0.7,0.8-0.6c1.6,0.3,3,1.3,3.7,2.7c0.3,0.6,1,0.8,1.6,0.5l0,0c0.6-0.3,0.9-1,0.6-1.6
		C375.2,75.9,372.9,74.2,370.2,74z"/>
</g>
<g>
	<path d="M362.8,84.7c0.1,0.3,0.1,0.7-0.2,0.9l-1.1,0.6c-0.2,0.1-0.2,0.5,0,0.6l4.4,1.9c0.4,0.2,0.8-0.1,0.9-0.5l0.6-4.7
		c0-0.3-0.3-0.5-0.5-0.3l-1,0.6c-0.4,0.2-0.8,0-0.9-0.3c-0.6-1.6-0.4-3.3,0.5-4.6c0.4-0.5,0.2-1.3-0.4-1.7l0,0
		c-0.6-0.4-1.3-0.2-1.7,0.3C361.9,79.5,361.7,82.3,362.8,84.7z"/>
</g>
<g>
	<path d="M375.8,85.8c0.2-0.3,0.6-0.4,0.9-0.2l1.1,0.6c0.2,0.1,0.6-0.1,0.5-0.3l-0.6-4.7c-0.1-0.4-0.5-0.7-0.9-0.5l-4.4,1.8
		c-0.3,0.1-0.3,0.5,0,0.6l1,0.6c0.4,0.2,0.4,0.7,0.2,1c-1,1.3-2.6,2-4.3,1.9c-0.7,0-1.2,0.5-1.3,1.2l0,0c0,0.7,0.5,1.3,1.1,1.3
		C371.7,89.1,374.2,88,375.8,85.8z"/>
</g>
<path d="M433.8,83.8c0.6-0.2,1-0.8,0.9-1.5c-0.1-0.8,0-1.7,0.5-2.7c0.6-1.1,1.9-1.7,3.1-1.7h0h5c0.4,0,0.6,0.3,0.6,0.6v1.2
	c0,0.3,0.3,0.4,0.6,0.3l3.8-2.8c0.4-0.3,0.4-0.8,0-1.1l-3.8-2.8c-0.2-0.2-0.6,0-0.6,0.3v1.2c0,0.4-0.3,0.6-0.6,0.6h-5h0
	c-2.5,0-4.9,1.5-5.8,3.9c-0.4,1.2-0.5,2.4-0.3,3.5C432.3,83.6,433.1,84,433.8,83.8z"/>
<path d="M449.4,79.2c-0.6,0.2-1,0.8-0.9,1.5c0.1,0.8,0,1.7-0.5,2.7c-0.6,1.1-1.9,1.7-3.1,1.7h0h-5c-0.4,0-0.6-0.3-0.6-0.6v-1.2
	c0-0.3-0.3-0.4-0.6-0.3l-3.8,2.8c-0.4,0.3-0.4,0.8,0,1.1l3.8,2.8c0.2,0.2,0.6,0,0.6-0.3v-1.2c0-0.4,0.3-0.6,0.6-0.6h5h0
	c2.5,0,4.9-1.5,5.8-3.9c0.4-1.2,0.5-2.4,0.3-3.5C450.9,79.4,450.2,79,449.4,79.2z"/>
<path d="M506.7,92h-1.9c-0.8,0-1.5-0.7-1.5-1.5v-4.7c0-0.8,0.7-1.5,1.5-1.5h1.9c0.8,0,1.5,0.7,1.5,1.5v4.7
	C508.2,91.4,507.5,92,506.7,92z"/>
<path d="M514.8,92h-1.9c-0.8,0-1.5-0.7-1.5-1.5V70.9c0-0.8,0.7-1.5,1.5-1.5h1.9c0.8,0,1.5,0.7,1.5,1.5v19.6
	C516.3,91.4,515.6,92,514.8,92z"/>
<path d="M522.8,92h-1.9c-0.8,0-1.5-0.7-1.5-1.5V78.4c0-0.8,0.7-1.5,1.5-1.5h1.9c0.8,0,1.5,0.7,1.5,1.5v12.1
	C524.3,91.4,523.7,92,522.8,92z"/>
<path d="M379.1,145.4c0-0.7-0.6-1.3-1.3-1.3h-16.6c-0.7,0-1.3,0.6-1.3,1.3l-0.2,13.5c0,0.7,0.6,1.3,1.3,1.3H378
	c0.7,0,1.3-0.6,1.3-1.3L379.1,145.4z M366.6,156c0,0.4-0.3,0.8-0.8,0.8h-1c-0.4,0-0.8-0.3-0.8-0.8l0.1-1.7c0-0.4,0.3-0.8,0.8-0.8
	h0.9c0.4,0,0.8,0.3,0.8,0.8V156z M370.7,156c0,0.4-0.3,0.8-0.8,0.8h-1c-0.4,0-0.8-0.3-0.8-0.8v-8c0-0.4,0.3-0.8,0.8-0.8h1
	c0.4,0,0.8,0.3,0.8,0.8V156z M374,156.8h-1c-0.4,0-0.8-0.3-0.8-0.8v-4.9c0-0.4,0.3-0.8,0.8-0.8h0.9c0.4,0,0.8,0.3,0.8,0.8l0.1,4.9
	C374.7,156.4,374.4,156.8,374,156.8z"/>
<path d="M0.6,163.5h-2c-0.8,0-1.5-0.7-1.5-1.5v-0.9c0-0.8,0.7-1.5,1.5-1.5h2c0.8,0,1.5,0.7,1.5,1.5v0.9
	C2.1,162.8,1.4,163.5,0.6,163.5z"/>
<path d="M7.3,163.5h-2c-0.8,0-1.5-0.7-1.5-1.5v-4.7c0-0.8,0.7-1.5,1.5-1.5h2c0.8,0,1.5,0.7,1.5,1.5v4.7
	C8.8,162.8,8.2,163.5,7.3,163.5z"/>
<path d="M14.1,163.5h-2c-0.8,0-1.5-0.7-1.5-1.5v-12.2c0-0.8,0.7-1.5,1.5-1.5h2c0.8,0,1.5,0.7,1.5,1.5V162
	C15.6,162.8,15,163.5,14.1,163.5z"/>
<path d="M20.9,163.5h-2c-0.8,0-1.5-0.7-1.5-1.5v-19.6c0-0.8,0.7-1.5,1.5-1.5h2c0.8,0,1.5,0.7,1.5,1.5V162
	C22.4,162.8,21.7,163.5,20.9,163.5z"/>
<path d="M69.7,159.8c-0.5-0.5-0.5-1.4,0-1.9l5.5-5.5c0.4-0.4,1.1-0.4,1.5,0l3.9,3.9c0.3,0.3,0.8,0.3,1.1,0l3.9-3.9
	c0.3-0.3,0.3-0.8,0-1.1l-1.4-1.4c-0.5-0.5-0.1-1.3,0.5-1.3H90c0.6,0,1.2,0.5,1.2,1.2l0,5.3c0,0.7-0.8,1-1.3,0.5l-1.4-1.4
	c-0.3-0.3-0.8-0.3-1.1,0l-5.6,5.6c-0.4,0.4-1,0.4-1.4,0l-3.9-3.9c-0.3-0.3-0.8-0.3-1.1,0l-3.8,3.8C71.1,160.4,70.2,160.4,69.7,159.8
	z"/>
<path d="M235.3,145.4c0-0.7-0.6-1.3-1.3-1.3h-16.6c-0.7,0-1.3,0.6-1.3,1.3l-0.2,13.5c0,0.7,0.6,1.3,1.3,1.3h17.1
	c0.7,0,1.3-0.6,1.3-1.3L235.3,145.4z M232,152.1c0,0.4-0.5,0.6-0.7,0.3l-0.8-0.8c-0.2-0.2-0.4-0.2-0.6,0l-3.2,3.2
	c-0.2,0.2-0.6,0.2-0.8,0l-2.3-2.3c-0.2-0.2-0.4-0.2-0.6,0l-2.2,2.2c-0.3,0.3-0.8,0.3-1.1,0c-0.3-0.3-0.3-0.8,0-1.1l3.2-3.2
	c0.2-0.2,0.6-0.2,0.9,0l2.2,2.2c0.2,0.2,0.4,0.2,0.6,0l2.3-2.3c0.2-0.2,0.2-0.4,0-0.6l-0.8-0.8c-0.3-0.3-0.1-0.7,0.3-0.7h3
	c0.4,0,0.7,0.3,0.7,0.7L232,152.1z"/>
<path d="M143,148.6c-0.5,0.5-0.5,1.4,0,1.9l5.5,5.5c0.4,0.4,1.1,0.4,1.5,0l3.9-3.9c0.3-0.3,0.8-0.3,1.1,0l3.9,3.9
	c0.3,0.3,0.3,0.8,0,1.1l-1.4,1.4c-0.5,0.5-0.1,1.3,0.5,1.3h5.3c0.6,0,1.2-0.5,1.2-1.2l0-5.3c0-0.7-0.8-1-1.3-0.5l-1.4,1.4
	c-0.3,0.3-0.8,0.3-1.1,0l-5.6-5.6c-0.4-0.4-1-0.4-1.4,0l-3.9,3.9c-0.3,0.3-0.8,0.3-1.1,0l-3.8-3.8C144.4,148,143.5,148,143,148.6z"
	/>
<path d="M307.2,145.4c0-0.7-0.6-1.3-1.3-1.3h-16.6c-0.7,0-1.3,0.6-1.3,1.3l-0.2,13.5c0,0.7,0.6,1.3,1.3,1.3h17.1
	c0.7,0,1.3-0.6,1.3-1.3L307.2,145.4z M303.3,155.8h-3.1c-0.4,0-0.6-0.5-0.3-0.7l0.8-0.8c0.2-0.2,0.2-0.4,0-0.6l-2.3-2.3
	c-0.2-0.2-0.4-0.2-0.6,0l-2.2,2.2c-0.2,0.2-0.6,0.2-0.9,0l-3.2-3.2c-0.3-0.3-0.3-0.8,0-1.1s0.8-0.3,1.1,0l2.2,2.2
	c0.2,0.2,0.4,0.2,0.6,0l2.3-2.3c0.2-0.2,0.6-0.2,0.8,0l3.3,3.3c0.2,0.2,0.4,0.2,0.6,0l0.8-0.8c0.3-0.3,0.7-0.1,0.7,0.3l0,3.1
	C304,155.5,303.7,155.8,303.3,155.8z"/>
<path d="M225.8,142.9c0,0,0.8,0,1.3,0s0.7-0.4,0.7-0.7s-0.1-0.7-0.6-0.8c-0.5-0.1-0.6-0.2-0.6-0.6c0-0.4-0.4-0.7-0.8-0.7
	c-0.4,0-0.8,0.3-0.8,0.7c0,0.4-0.2,0.5-0.6,0.6c-0.5,0.1-0.6,0.5-0.6,0.8s0.3,0.7,0.7,0.7S225.8,142.9,225.8,142.9z"/>
<path d="M234.9,161.4h-18.2c-0.4,0-0.8,0.3-0.8,0.8s0.3,0.8,0.8,0.8h1c0.4,0,0.7,0.4,0.6,0.8l-0.4,1.6c-0.1,0.4,0.1,0.8,0.5,0.9
	c0.1,0,0.1,0,0.2,0c0.3,0,0.6-0.2,0.7-0.6l0.5-2c0.1-0.4,0.5-0.8,1-0.8h10c0.5,0,0.9,0.3,1,0.7l0.5,2c0.1,0.3,0.4,0.6,0.7,0.6
	c0.1,0,0.1,0,0.2,0c0.4-0.1,0.6-0.5,0.5-0.9l-0.4-1.6c-0.1-0.4,0.2-0.8,0.6-0.8h1c0.4,0,0.8-0.3,0.8-0.8S235.3,161.4,234.9,161.4z"
	/>
<path d="M297.7,142.9c0,0,0.8,0,1.3,0s0.7-0.4,0.7-0.7s-0.1-0.7-0.6-0.8c-0.5-0.1-0.6-0.2-0.6-0.6c0-0.4-0.4-0.7-0.8-0.7
	c-0.4,0-0.8,0.3-0.8,0.7c0,0.4-0.2,0.5-0.6,0.6c-0.5,0.1-0.6,0.5-0.6,0.8s0.3,0.7,0.7,0.7S297.7,142.9,297.7,142.9z"/>
<path d="M306.7,161.4h-18.2c-0.4,0-0.8,0.3-0.8,0.8s0.3,0.8,0.8,0.8h1c0.4,0,0.7,0.4,0.6,0.8l-0.4,1.6c-0.1,0.4,0.1,0.8,0.5,0.9
	c0.1,0,0.1,0,0.2,0c0.3,0,0.6-0.2,0.7-0.6l0.5-2c0.1-0.4,0.5-0.8,1-0.8h10c0.5,0,0.9,0.3,1,0.7l0.5,2c0.1,0.3,0.4,0.6,0.7,0.6
	c0.1,0,0.1,0,0.2,0c0.4-0.1,0.6-0.5,0.5-0.9l-0.4-1.6c-0.1-0.4,0.2-0.8,0.6-0.8h1c0.4,0,0.8-0.3,0.8-0.8S307.1,161.4,306.7,161.4z"
	/>
<path d="M369.5,142.9c0,0,0.8,0,1.3,0s0.7-0.4,0.7-0.7s-0.1-0.7-0.6-0.8c-0.5-0.1-0.6-0.2-0.6-0.6c0-0.4-0.4-0.7-0.8-0.7
	c-0.4,0-0.8,0.3-0.8,0.7c0,0.4-0.2,0.5-0.6,0.6c-0.5,0.1-0.6,0.5-0.6,0.8s0.3,0.7,0.7,0.7S369.5,142.9,369.5,142.9z"/>
<path d="M378.6,161.4h-18.2c-0.4,0-0.8,0.3-0.8,0.8s0.3,0.8,0.8,0.8h1c0.4,0,0.7,0.4,0.6,0.8l-0.4,1.6c-0.1,0.4,0.1,0.8,0.5,0.9
	c0.1,0,0.1,0,0.2,0c0.3,0,0.6-0.2,0.7-0.6l0.5-2c0.1-0.4,0.5-0.8,1-0.8h10c0.5,0,0.9,0.3,1,0.7l0.5,2c0.1,0.3,0.4,0.6,0.7,0.6
	c0.1,0,0.1,0,0.2,0c0.4-0.1,0.6-0.5,0.5-0.9l-0.4-1.6c-0.1-0.4,0.2-0.8,0.6-0.8h1c0.4,0,0.8-0.3,0.8-0.8S379,161.4,378.6,161.4z"/>
<path d="M441.6,154.4c-0.6,0-1.2,0.5-1.2,1.1v4.3c0,0.4-0.3,0.7-0.7,0.7h-1.7c-0.6,0-0.9,0.7-0.5,1.1l3.2,3.2c0.4,0.4,1,0.4,1.4,0
	l3.2-3.2c0.4-0.4,0.1-1.1-0.5-1.1h-1.7c-0.4,0-0.7-0.3-0.7-0.7v-4.3C442.8,154.9,442.3,154.4,441.6,154.4z"/>
<path d="M445.9,164.1c0,0.5,0.4,1,1,1h4.5c0.8,0,1.4-0.6,1.4-1.4v-19.5c0-0.8-0.6-1.4-1.4-1.4h-19.5c-0.8,0-1.4,0.6-1.4,1.4v19.5
	c0,0.8,0.6,1.4,1.4,1.4h4.6c0.5,0,1-0.4,1-1s-0.4-1-1-1h-3.4c-0.4,0-0.7-0.3-0.7-0.7v-13.9c0-0.4,0.3-0.7,0.7-0.7h17.1
	c0.4,0,0.7,0.3,0.7,0.7v13.9c0,0.4-0.3,0.7-0.7,0.7h-3.3C446.3,163.2,445.9,163.6,445.9,164.1z M444.6,146.2c-0.5,0-0.9-0.4-0.9-0.9
	c0-0.5,0.4-0.9,0.9-0.9s0.9,0.4,0.9,0.9C445.5,145.8,445.1,146.2,444.6,146.2z M447.3,146.2c-0.5,0-0.9-0.4-0.9-0.9
	c0-0.5,0.4-0.9,0.9-0.9s0.9,0.4,0.9,0.9C448.2,145.8,447.8,146.2,447.3,146.2z M450,146.2c-0.5,0-0.9-0.4-0.9-0.9
	c0-0.5,0.4-0.9,0.9-0.9s0.9,0.4,0.9,0.9C450.9,145.8,450.5,146.2,450,146.2z"/>
<path d="M513.8,165.1c0.6,0,1.2-0.5,1.2-1.1v-4.3c0-0.4,0.3-0.7,0.7-0.7h1.7c0.6,0,0.9-0.7,0.5-1.1l-3.2-3.2c-0.4-0.4-1-0.4-1.4,0
	l-3.2,3.2c-0.4,0.4-0.1,1.1,0.5,1.1h1.7c0.4,0,0.7,0.3,0.7,0.7v4.3C512.7,164.6,513.2,165.1,513.8,165.1z"/>
<path d="M518.1,164.1c0,0.5,0.4,1,1,1h4.5c0.8,0,1.4-0.6,1.4-1.4v-19.5c0-0.8-0.6-1.4-1.4-1.4H504c-0.8,0-1.4,0.6-1.4,1.4v19.5
	c0,0.8,0.6,1.4,1.4,1.4h4.6c0.5,0,1-0.4,1-1s-0.4-1-1-1h-3.4c-0.4,0-0.7-0.3-0.7-0.7v-13.9c0-0.4,0.3-0.7,0.7-0.7h17.1
	c0.4,0,0.7,0.3,0.7,0.7v13.9c0,0.4-0.3,0.7-0.7,0.7H519C518.5,163.2,518.1,163.6,518.1,164.1z M516.8,146.2c-0.5,0-0.9-0.4-0.9-0.9
	c0-0.5,0.4-0.9,0.9-0.9s0.9,0.4,0.9,0.9C517.7,145.8,517.3,146.2,516.8,146.2z M519.5,146.2c-0.5,0-0.9-0.4-0.9-0.9
	c0-0.5,0.4-0.9,0.9-0.9s0.9,0.4,0.9,0.9C520.4,145.8,520,146.2,519.5,146.2z M522.2,146.2c-0.5,0-0.9-0.4-0.9-0.9
	c0-0.5,0.4-0.9,0.9-0.9s0.9,0.4,0.9,0.9C523,145.8,522.7,146.2,522.2,146.2z"/>
<path d="M6.6,232.4c0.4,0.4,1.1,0.4,1.5,0l5.3-5.3c0.2-0.2,0.6-0.2,0.9,0l1.1,1.1c0.4,0.4,1,0.1,1-0.4l0-4.3c0-0.5-0.4-0.9-0.9-0.9
	h-4.3c-0.5,0-0.8,0.7-0.4,1l1.1,1.1c0.2,0.2,0.2,0.6,0,0.9l-5.3,5.3C6.2,231.3,6.2,232,6.6,232.4z"/>
<path d="M-1.4,216.2v19.6c0,0.7,0.6,1.4,1.4,1.4h19.6c0.7,0,1.4-0.6,1.4-1.4v-19.6c0-0.7-0.6-1.4-1.4-1.4H0
	C-0.8,214.8-1.4,215.4-1.4,216.2z M18.5,235.2H1c-0.3,0-0.5-0.2-0.5-0.5v-14.2c0-0.3,0.2-0.5,0.5-0.5h17.5c0.3,0,0.5,0.2,0.5,0.5
	v14.2C19,234.9,18.8,235.2,18.5,235.2z"/>
<path d="M88.1,222.8c-0.4-0.4-1.1-0.4-1.5,0l-5.3,5.3c-0.2,0.2-0.6,0.2-0.9,0l-1.1-1.1c-0.4-0.4-1-0.1-1,0.4l0,4.3
	c0,0.5,0.4,0.9,0.9,0.9h4.3c0.5,0,0.8-0.7,0.4-1l-1.1-1.1c-0.2-0.2-0.2-0.6,0-0.9l5.3-5.3C88.5,223.9,88.5,223.2,88.1,222.8z"/>
<path d="M70.6,216.2v19.6c0,0.7,0.6,1.4,1.3,1.4h19.6c0.7,0,1.3-0.6,1.3-1.4v-19.6c0-0.7-0.6-1.4-1.3-1.4H71.9
	C71.2,214.8,70.6,215.4,70.6,216.2z M90.4,235.2H73c-0.3,0-0.5-0.2-0.5-0.5v-14.2c0-0.3,0.2-0.5,0.5-0.5h17.5c0.3,0,0.5,0.2,0.5,0.5
	v14.2C90.9,234.9,90.7,235.2,90.4,235.2z"/>
<path d="M286.7,216.6v19.6c0,0.7,0.6,1.3,1.4,1.3h19.6c0.7,0,1.3-0.6,1.3-1.3v-19.6c0-0.7-0.6-1.4-1.3-1.4h-19.6
	C287.3,215.3,286.7,215.9,286.7,216.6z M306.6,235.6h-17.5c-0.3,0-0.5-0.2-0.5-0.5v-14.2c0-0.3,0.2-0.5,0.5-0.5h17.5
	c0.3,0,0.5,0.2,0.5,0.5v14.2C307.1,235.4,306.9,235.6,306.6,235.6z"/>
<path d="M146.6,216.6L146.6,216.6c0,0.5,0.4,0.9,0.9,0.9h11c0.3,0,0.6,0.3,0.6,0.6V234c0,0.3-0.3,0.6-0.6,0.6h-11
	c-0.5,0-0.9,0.4-0.9,0.9v0c0,0.5,0.4,0.9,0.9,0.9h12c0.7,0,1.3-0.6,1.3-1.3v-18c0-0.7-0.6-1.3-1.3-1.3h-12
	C147,215.7,146.6,216.1,146.6,216.6z"/>
<path d="M218.7,216.6L218.7,216.6c0,0.5,0.4,0.9,0.9,0.9h11c0.3,0,0.6,0.3,0.6,0.6V234c0,0.3-0.3,0.6-0.6,0.6h-11
	c-0.5,0-0.9,0.4-0.9,0.9v0c0,0.5,0.4,0.9,0.9,0.9h12c0.7,0,1.3-0.6,1.3-1.3v-18c0-0.7-0.6-1.3-1.3-1.3h-12
	C219.1,215.7,218.7,216.1,218.7,216.6z"/>
<path d="M151.9,222.4v1.3c0,0.3-0.3,0.6-0.6,0.6h-3.2c-0.3,0-0.6,0.3-0.6,0.6v2.1c0,0.3,0.3,0.6,0.6,0.6h3.2c0.3,0,0.6,0.3,0.6,0.6
	v1.3c0,0.4,0.4,0.6,0.7,0.3l4.1-3.5c0.3-0.2,0.3-0.7,0-0.9l-4.1-3.5C152.3,221.8,151.9,222,151.9,222.4z"/>
<path d="M224.7,229.5v-1.3c0-0.3,0.3-0.6,0.6-0.6h3.2c0.3,0,0.6-0.3,0.6-0.6v-2.1c0-0.3-0.3-0.6-0.6-0.6h-3.2
	c-0.3,0-0.6-0.3-0.6-0.6v-1.3c0-0.4-0.4-0.6-0.7-0.3l-4.1,3.5c-0.3,0.2-0.3,0.7,0,0.9l4.1,3.5C224.3,230.1,224.7,229.9,224.7,229.5z
	"/>
<path d="M302,225.4h-8.3c-0.4,0-0.6,0.5-0.4,0.8l4,4.8c0.3,0.4,0.8,0.4,1.1,0l4-4.8C302.6,225.9,302.4,225.4,302,225.4z"/>
<path d="M358.5,216.6v19.6c0,0.7,0.6,1.3,1.4,1.3h19.6c0.7,0,1.4-0.6,1.4-1.3v-19.6c0-0.7-0.6-1.4-1.4-1.4h-19.6
	C359.1,215.3,358.5,215.9,358.5,216.6z M378.4,235.6h-17.5c-0.3,0-0.5-0.2-0.5-0.5v-14.2c0-0.3,0.2-0.5,0.5-0.5h17.5
	c0.3,0,0.5,0.2,0.5,0.5v14.2C378.9,235.4,378.7,235.6,378.4,235.6z"/>
<path d="M430.6,216.6v19.6c0,0.7,0.6,1.3,1.3,1.3h19.6c0.7,0,1.4-0.6,1.4-1.3v-19.6c0-0.7-0.6-1.4-1.4-1.4h-19.6
	C431.2,215.3,430.6,215.9,430.6,216.6z M450.5,235.6H433c-0.3,0-0.5-0.2-0.5-0.5v-14.2c0-0.3,0.2-0.5,0.5-0.5h17.5
	c0.3,0,0.5,0.2,0.5,0.5v14.2C451,235.4,450.7,235.6,450.5,235.6z"/>
<path d="M365.5,230.1h8.3c0.4,0,0.6-0.5,0.4-0.8l-4-4.8c-0.3-0.4-0.8-0.4-1.1,0l-4,4.8C364.9,229.6,365.1,230.1,365.5,230.1z"/>
<path d="M444.9,227.6c0,0.4-0.3,0.7-0.7,0.7h-3.7c-0.4,0-0.7-0.3-0.7-0.7c0-0.4,0.3-0.7,0.7-0.7h3.7
	C444.6,226.9,444.9,227.2,444.9,227.6z"/>
<path d="M436.2,228.2c-0.3,0.3-0.7,0.3-0.9,0c-0.3-0.3-0.3-0.7,0-0.9l1.5-1.5c0.1-0.1,0.1-0.4,0-0.5l-1.5-1.5
	c-0.3-0.3-0.3-0.7,0-0.9c0.3-0.3,0.7-0.3,0.9,0l2.5,2.5c0.1,0.1,0.1,0.4,0,0.5L436.2,228.2z"/>
<path d="M505.2,235.1c-0.4,0-0.7-0.3-0.7-0.7v-13.9c0-0.4,0.3-0.7,0.7-0.7h17.1c0.4,0,0.7,0.3,0.7,0.7v13.9c0,0.4-0.3,0.7-0.7,0.7
	H505.2z M523.6,237c0.8,0,1.4-0.6,1.4-1.4v-19.5c0-0.8-0.6-1.4-1.4-1.4H504c-0.8,0-1.4,0.6-1.4,1.4v19.5c0,0.8,0.6,1.4,1.4,1.4
	H523.6z M516.8,218.1c-0.5,0-0.9-0.4-0.9-0.9c0-0.5,0.4-0.9,0.9-0.9s0.9,0.4,0.9,0.9C517.7,217.7,517.3,218.1,516.8,218.1z
	 M519.5,218.1c-0.5,0-0.9-0.4-0.9-0.9c0-0.5,0.4-0.9,0.9-0.9s0.9,0.4,0.9,0.9C520.4,217.7,520,218.1,519.5,218.1z M522.2,218.1
	c-0.5,0-0.9-0.4-0.9-0.9c0-0.5,0.4-0.9,0.9-0.9s0.9,0.4,0.9,0.9C523,217.7,522.7,218.1,522.2,218.1z"/>
<path d="M1.3,307.1c-0.4,0-0.7-0.3-0.7-0.7v-13.9c0-0.4,0.3-0.7,0.7-0.7h17.1c0.4,0,0.7,0.3,0.7,0.7v13.9c0,0.4-0.3,0.7-0.7,0.7H1.3
	z M19.6,309c0.8,0,1.4-0.6,1.4-1.4v-19.5c0-0.8-0.6-1.4-1.4-1.4H0c-0.8,0-1.4,0.6-1.4,1.4v19.5c0,0.8,0.6,1.4,1.4,1.4H19.6z
	 M12.8,290.2c-0.5,0-0.9-0.4-0.9-0.9c0-0.5,0.4-0.9,0.9-0.9s0.9,0.4,0.9,0.9C13.7,289.8,13.3,290.2,12.8,290.2z M15.5,290.2
	c-0.5,0-0.9-0.4-0.9-0.9c0-0.5,0.4-0.9,0.9-0.9s0.9,0.4,0.9,0.9C16.4,289.8,16,290.2,15.5,290.2z M18.2,290.2
	c-0.5,0-0.9-0.4-0.9-0.9c0-0.5,0.4-0.9,0.9-0.9s0.9,0.4,0.9,0.9C19.1,289.8,18.7,290.2,18.2,290.2z"/>
<path d="M73,307.1c-0.4,0-0.7-0.3-0.7-0.7v-13.9c0-0.4,0.3-0.7,0.7-0.7h17.1c0.4,0,0.7,0.3,0.7,0.7v13.9c0,0.4-0.3,0.7-0.7,0.7H73z
	 M91.4,309c0.8,0,1.4-0.6,1.4-1.4v-19.5c0-0.8-0.6-1.4-1.4-1.4H71.8c-0.8,0-1.4,0.6-1.4,1.4v19.5c0,0.8,0.6,1.4,1.4,1.4H91.4z
	 M84.6,290.2c-0.5,0-0.9-0.4-0.9-0.9c0-0.5,0.4-0.9,0.9-0.9s0.9,0.4,0.9,0.9C85.5,289.8,85.1,290.2,84.6,290.2z M87.3,290.2
	c-0.5,0-0.9-0.4-0.9-0.9c0-0.5,0.4-0.9,0.9-0.9s0.9,0.4,0.9,0.9C88.2,289.8,87.8,290.2,87.3,290.2z M90,290.2
	c-0.5,0-0.9-0.4-0.9-0.9c0-0.5,0.4-0.9,0.9-0.9s0.9,0.4,0.9,0.9C90.8,289.8,90.5,290.2,90,290.2z"/>
<path d="M145.1,307.1c-0.4,0-0.7-0.3-0.7-0.7v-13.9c0-0.4,0.3-0.7,0.7-0.7h17.1c0.4,0,0.7,0.3,0.7,0.7v13.9c0,0.4-0.3,0.7-0.7,0.7
	H145.1z M163.4,309c0.8,0,1.4-0.6,1.4-1.4v-19.5c0-0.8-0.6-1.4-1.4-1.4h-19.5c-0.8,0-1.4,0.6-1.4,1.4v19.5c0,0.8,0.6,1.4,1.4,1.4
	H163.4z M156.6,290.2c-0.5,0-0.9-0.4-0.9-0.9c0-0.5,0.4-0.9,0.9-0.9s0.9,0.4,0.9,0.9C157.5,289.8,157.1,290.2,156.6,290.2z
	 M159.3,290.2c-0.5,0-0.9-0.4-0.9-0.9c0-0.5,0.4-0.9,0.9-0.9s0.9,0.4,0.9,0.9C160.2,289.8,159.8,290.2,159.3,290.2z M162,290.2
	c-0.5,0-0.9-0.4-0.9-0.9c0-0.5,0.4-0.9,0.9-0.9s0.9,0.4,0.9,0.9C162.9,289.8,162.5,290.2,162,290.2z"/>
<path d="M217.1,307.1c-0.4,0-0.7-0.3-0.7-0.7v-13.9c0-0.4,0.3-0.7,0.7-0.7h17.1c0.4,0,0.7,0.3,0.7,0.7v13.9c0,0.4-0.3,0.7-0.7,0.7
	H217.1z M235.4,309c0.8,0,1.4-0.6,1.4-1.4v-19.5c0-0.8-0.6-1.4-1.4-1.4h-19.5c-0.8,0-1.4,0.6-1.4,1.4v19.5c0,0.8,0.6,1.4,1.4,1.4
	H235.4z M228.7,290.2c-0.5,0-0.9-0.4-0.9-0.9c0-0.5,0.4-0.9,0.9-0.9s0.9,0.4,0.9,0.9C229.6,289.8,229.2,290.2,228.7,290.2z
	 M231.4,290.2c-0.5,0-0.9-0.4-0.9-0.9c0-0.5,0.4-0.9,0.9-0.9s0.9,0.4,0.9,0.9C232.2,289.8,231.8,290.2,231.4,290.2z M234,290.2
	c-0.5,0-0.9-0.4-0.9-0.9c0-0.5,0.4-0.9,0.9-0.9s0.9,0.4,0.9,0.9C234.9,289.8,234.5,290.2,234,290.2z"/>
<path d="M13.3,298.5h-1.8c-0.4,0-0.8-0.3-0.8-0.8V296c0-0.5-0.4-1-1-1s-1,0.4-1,1v1.8c0,0.4-0.3,0.8-0.8,0.8H6.3c-0.5,0-1,0.4-1,1
	s0.4,1,1,1h1.8c0.4,0,0.8,0.3,0.8,0.8v1.8c0,0.5,0.4,1,1,1s1-0.4,1-1v-1.8c0-0.4,0.3-0.8,0.8-0.8h1.8c0.5,0,1-0.4,1-1
	S13.8,298.5,13.3,298.5z"/>
<path d="M85.4,299.4c0,0.5-0.4,1-1,1h-5.7c-0.5,0-1-0.4-1-1s0.4-1,1-1h5.7C85,298.5,85.4,298.9,85.4,299.4z"/>
<path d="M158,297.6c0.4-0.4,0.4-1.1,0-1.6c-0.4-0.4-1.1-0.4-1.6,0l-3.6,3.6l-1.3-1.3c-0.4-0.4-1.1-0.4-1.6,0c-0.4,0.4-0.4,1.1,0,1.6
	l2.3,2.3c0.3,0.3,0.8,0.3,1.1,0L158,297.6z"/>
<path d="M227,299.4c0,0,0-0.1,0-0.1l1.9-1.9c0.3-0.3,0.3-0.9,0-1.3c-0.3-0.3-0.9-0.3-1.3,0l-1.9,1.9c0,0-0.1,0-0.1,0l-1.9-1.9
	c-0.3-0.3-0.9-0.3-1.3,0c-0.3,0.3-0.3,0.9,0,1.3l1.9,1.9c0,0,0,0.1,0,0.1l-1.9,1.9c-0.3,0.3-0.3,0.9,0,1.3c0.3,0.3,0.9,0.3,1.3,0
	l1.9-1.9c0,0,0.1,0,0.1,0l1.9,1.9c0.3,0.3,0.9,0.3,1.3,0c0.3-0.3,0.3-0.9,0-1.3L227,299.4z"/>
<path d="M303.4,288v-1.8c0-0.5,0.6-0.8,1-0.4l6.1,5.5c0.5,0.5,0.5,1.3,0,1.8l-6.2,5.7c-0.4,0.3-1,0.1-1-0.4v-2.3
	c0-0.7-0.6-1.3-1.3-1.3c-4.9,0-7.4,1.4-8.8,2.6c-0.4,0.4-1.1-0.1-0.9-0.6c2-4.8,6-7.2,9.7-7.5C302.8,289.3,303.4,288.7,303.4,288z"
	/>
<path d="M365.7,288v-1.8c0-0.5-0.6-0.8-1-0.4l-6.1,5.5c-0.5,0.5-0.5,1.3,0,1.8l6.2,5.7c0.4,0.3,1,0.1,1-0.4v-2.3
	c0-0.7,0.6-1.3,1.3-1.3c4.9,0,7.4,1.4,8.8,2.6c0.4,0.4,1.1-0.1,0.9-0.6c-2-4.8-6-7.2-9.7-7.5C366.3,289.3,365.7,288.7,365.7,288z"/>
<g>
	<path d="M306.9,298.3l-0.7,0.6c-0.3,0.2-0.4,0.6-0.4,1v4.1c0,0.4-0.3,0.6-0.6,0.6h-14.6c-0.4,0-0.6-0.3-0.6-0.6v-12.3
		c0-0.4,0.3-0.6,0.6-0.6h3.5c0.4,0,0.9-0.1,1.2-0.4l0.9-0.7c0.2-0.2,0.5-0.6-0.2-0.6h-6.5c-0.7,0-1.2,0.6-1.2,1.2v14.4
		c0,0.7,0.6,1.2,1.2,1.2h16.8c0.7,0,1.2-0.6,1.2-1.2v-6.3C307.5,298,307.2,298.1,306.9,298.3z"/>
</g>
<g>
	<path d="M362.1,298.3l0.7,0.6c0.3,0.2,0.4,0.6,0.4,1v4.1c0,0.4,0.3,0.6,0.6,0.6h14.6c0.4,0,0.6-0.3,0.6-0.6l0-12.3
		c0-0.4-0.3-0.6-0.6-0.6H375c-0.4,0-0.9-0.1-1.2-0.4l-0.9-0.7c-0.2-0.2-0.5-0.6,0.2-0.6h6.5c0.7,0,1.2,0.6,1.2,1.2l0,14.4
		c0,0.7-0.6,1.2-1.2,1.2h-16.8c-0.7,0-1.2-0.6-1.2-1.2v-6.3C361.5,298,361.8,298.1,362.1,298.3z"/>
</g>
<path d="M431.1,291.2v14.8c0,0.7,0.6,1.4,1.4,1.4h15.5c0.7,0,1.4-0.6,1.4-1.4v-14.8c0-0.7-0.6-1.3-1.4-1.3h-15.5
	C431.7,289.9,431.1,290.5,431.1,291.2z M446.8,305.6h-13.3c-0.4,0-0.6-0.3-0.6-0.7v-9.6c0-0.4,0.3-0.6,0.6-0.6h13.3
	c0.4,0,0.7,0.3,0.7,0.6v9.6C447.5,305.3,447.2,305.6,446.8,305.6z"/>
<path d="M451.5,303.9c0.5,0,0.9-0.4,0.9-0.9v-14.9c0-0.7-0.6-1.3-1.3-1.3h-15.5c-0.5,0-0.9,0.4-0.9,0.9s0.4,0.9,0.9,0.9h14.4
	c0.4,0,0.7,0.3,0.7,0.7V303C450.6,303.5,451,303.9,451.5,303.9z"/>
<path d="M509.7,296.8h-6.2c-0.8,0-1.5-0.7-1.5-1.5v-6.2c0-0.8,0.7-1.5,1.5-1.5h6.2c0.8,0,1.5,0.7,1.5,1.5v6.2
	C511.2,296.2,510.5,296.8,509.7,296.8z"/>
<path d="M523.5,291.2h-8.6c-0.8,0-1.5-0.7-1.5-1.5v-0.6c0-0.8,0.7-1.5,1.5-1.5h8.6c0.8,0,1.5,0.7,1.5,1.5v0.6
	C525,290.5,524.3,291.2,523.5,291.2z"/>
<path d="M523.5,296.8h-8.6c-0.8,0-1.5-0.7-1.5-1.5v-0.6c0-0.8,0.7-1.5,1.5-1.5h8.6c0.8,0,1.5,0.7,1.5,1.5v0.6
	C525,296.1,524.3,296.8,523.5,296.8z"/>
<path d="M509.7,308.5h-6.2c-0.8,0-1.5-0.7-1.5-1.5v-6.2c0-0.8,0.7-1.5,1.5-1.5h6.2c0.8,0,1.5,0.7,1.5,1.5v6.2
	C511.2,307.8,510.5,308.5,509.7,308.5z"/>
<path d="M523.5,302.9h-8.6c-0.8,0-1.5-0.7-1.5-1.5v-0.6c0-0.8,0.7-1.5,1.5-1.5h8.6c0.8,0,1.5,0.7,1.5,1.5v0.6
	C525,302.2,524.3,302.9,523.5,302.9z"/>
<path d="M523.5,308.4h-8.6c-0.8,0-1.5-0.7-1.5-1.5v-0.6c0-0.8,0.7-1.5,1.5-1.5h8.6c0.8,0,1.5,0.7,1.5,1.5v0.6
	C525,307.8,524.3,308.4,523.5,308.4z"/>
<path d="M7.5,368.8H0.8c-0.9,0-1.6-0.7-1.6-1.6v-6.7c0-0.9,0.7-1.6,1.6-1.6h6.7c0.9,0,1.6,0.7,1.6,1.6v6.7
	C9.1,368.1,8.4,368.8,7.5,368.8z"/>
<path d="M19.6,368.8h-6.7c-0.9,0-1.6-0.7-1.6-1.6v-6.7c0-0.9,0.7-1.6,1.6-1.6h6.7c0.9,0,1.6,0.7,1.6,1.6v6.7
	C21.2,368.1,20.5,368.8,19.6,368.8z"/>
<path d="M7.5,380.9H0.8c-0.9,0-1.6-0.7-1.6-1.6v-6.7c0-0.9,0.7-1.6,1.6-1.6h6.7c0.9,0,1.6,0.7,1.6,1.6v6.7
	C9.1,380.2,8.4,380.9,7.5,380.9z"/>
<path d="M19.6,380.9h-6.7c-0.9,0-1.6-0.7-1.6-1.6v-6.7c0-0.9,0.7-1.6,1.6-1.6h6.7c0.9,0,1.6,0.7,1.6,1.6v6.7
	C21.2,380.2,20.5,380.9,19.6,380.9z"/>
<path d="M75.8,364.9h-3.3c-0.8,0-1.5-0.7-1.5-1.5v-3.3c0-0.8,0.7-1.5,1.5-1.5h3.3c0.8,0,1.5,0.7,1.5,1.5v3.3
	C77.3,364.3,76.6,364.9,75.8,364.9z"/>
<path d="M83.8,364.9h-3.3c-0.8,0-1.5-0.7-1.5-1.5v-3.3c0-0.8,0.7-1.5,1.5-1.5h3.3c0.8,0,1.5,0.7,1.5,1.5v3.3
	C85.3,364.3,84.7,364.9,83.8,364.9z"/>
<path d="M91.9,364.9h-3.3c-0.8,0-1.5-0.7-1.5-1.5v-3.3c0-0.8,0.7-1.5,1.5-1.5h3.3c0.8,0,1.5,0.7,1.5,1.5v3.3
	C93.4,364.3,92.7,364.9,91.9,364.9z"/>
<path d="M75.8,372.9h-3.3c-0.8,0-1.5-0.7-1.5-1.5v-3.3c0-0.8,0.7-1.5,1.5-1.5h3.3c0.8,0,1.5,0.7,1.5,1.5v3.3
	C77.3,372.3,76.6,372.9,75.8,372.9z"/>
<path d="M83.8,372.9h-3.3c-0.8,0-1.5-0.7-1.5-1.5v-3.3c0-0.8,0.7-1.5,1.5-1.5h3.3c0.8,0,1.5,0.7,1.5,1.5v3.3
	C85.3,372.3,84.7,372.9,83.8,372.9z"/>
<path d="M91.9,372.9h-3.3c-0.8,0-1.5-0.7-1.5-1.5v-3.3c0-0.8,0.7-1.5,1.5-1.5h3.3c0.8,0,1.5,0.7,1.5,1.5v3.3
	C93.4,372.3,92.7,372.9,91.9,372.9z"/>
<path d="M75.8,380.9h-3.3c-0.8,0-1.5-0.7-1.5-1.5v-3.3c0-0.8,0.7-1.5,1.5-1.5h3.3c0.8,0,1.5,0.7,1.5,1.5v3.3
	C77.3,380.2,76.6,380.9,75.8,380.9z"/>
<path d="M83.8,380.9h-3.3c-0.8,0-1.5-0.7-1.5-1.5v-3.3c0-0.8,0.7-1.5,1.5-1.5h3.3c0.8,0,1.5,0.7,1.5,1.5v3.3
	C85.3,380.2,84.7,380.9,83.8,380.9z"/>
<path d="M91.9,380.9h-3.3c-0.8,0-1.5-0.7-1.5-1.5v-3.3c0-0.8,0.7-1.5,1.5-1.5h3.3c0.8,0,1.5,0.7,1.5,1.5v3.3
	C93.4,380.2,92.7,380.9,91.9,380.9z"/>
<path d="M147.8,365.1h-2.4c-0.8,0-1.5-0.7-1.5-1.5v-2.4c0-0.8,0.7-1.5,1.5-1.5h2.4c0.8,0,1.5,0.7,1.5,1.5v2.4
	C149.3,364.5,148.6,365.1,147.8,365.1z"/>
<path d="M162.5,365.1h-9.7c-0.8,0-1.5-0.7-1.5-1.5v-2.4c0-0.8,0.7-1.5,1.5-1.5h9.7c0.8,0,1.5,0.7,1.5,1.5v2.4
	C164,364.5,163.3,365.1,162.5,365.1z"/>
<path d="M225.2,365.1h-7.5c-0.8,0-1.5-0.7-1.5-1.5v-2.4c0-0.8,0.7-1.5,1.5-1.5h7.5c0.8,0,1.5,0.7,1.5,1.5v2.4
	C226.7,364.5,226,365.1,225.2,365.1z"/>
<path d="M225.2,372.4h-7.5c-0.8,0-1.5-0.7-1.5-1.5v-2.4c0-0.8,0.7-1.5,1.5-1.5h7.5c0.8,0,1.5,0.7,1.5,1.5v2.4
	C226.7,371.7,226,372.4,225.2,372.4z"/>
<path d="M225.2,379.7h-7.5c-0.8,0-1.5-0.7-1.5-1.5v-2.4c0-0.8,0.7-1.5,1.5-1.5h7.5c0.8,0,1.5,0.7,1.5,1.5v2.4
	C226.7,379,226,379.7,225.2,379.7z"/>
<path d="M147.8,372.5h-2.4c-0.8,0-1.5-0.7-1.5-1.5v-2.4c0-0.8,0.7-1.5,1.5-1.5h2.4c0.8,0,1.5,0.7,1.5,1.5v2.4
	C149.3,371.8,148.6,372.5,147.8,372.5z"/>
<path d="M162.5,372.5h-9.7c-0.8,0-1.5-0.7-1.5-1.5v-2.4c0-0.8,0.7-1.5,1.5-1.5h9.7c0.8,0,1.5,0.7,1.5,1.5v2.4
	C164,371.8,163.3,372.5,162.5,372.5z"/>
<path d="M147.8,379.8h-2.4c-0.8,0-1.5-0.7-1.5-1.5v-2.4c0-0.8,0.7-1.5,1.5-1.5h2.4c0.8,0,1.5,0.7,1.5,1.5v2.4
	C149.3,379.1,148.6,379.8,147.8,379.8z"/>
<path d="M162.5,379.8h-9.7c-0.8,0-1.5-0.7-1.5-1.5v-2.4c0-0.8,0.7-1.5,1.5-1.5h9.7c0.8,0,1.5,0.7,1.5,1.5v2.4
	C164,379.1,163.3,379.8,162.5,379.8z"/>
<path d="M234.7,379.7h-4.6c-0.8,0-1.5-0.7-1.5-1.5v-17c0-0.8,0.7-1.5,1.5-1.5h4.6c0.8,0,1.5,0.7,1.5,1.5v17
	C236.2,379,235.5,379.7,234.7,379.7z"/>
<path d="M306.9,364.8h-10.9c-0.7,0-1.3-0.6-1.3-1.3v-1.8c0-0.7,0.6-1.3,1.3-1.3h10.9c0.7,0,1.3,0.6,1.3,1.3v1.8
	C308.2,364.2,307.6,364.8,306.9,364.8z"/>
<circle cx="290.1" cy="362.6" r="2.2"/>
<path d="M306.9,372h-10.9c-0.7,0-1.3-0.6-1.3-1.3v-1.8c0-0.7,0.6-1.3,1.3-1.3h10.9c0.7,0,1.3,0.6,1.3,1.3v1.8
	C308.2,371.4,307.6,372,306.9,372z"/>
<circle cx="290.1" cy="369.8" r="2.2"/>
<path d="M306.9,379.1h-10.9c-0.7,0-1.3-0.6-1.3-1.3V376c0-0.7,0.6-1.3,1.3-1.3h10.9c0.7,0,1.3,0.6,1.3,1.3v1.8
	C308.2,378.5,307.6,379.1,306.9,379.1z"/>
<circle cx="290.1" cy="376.9" r="2.2"/>
<path d="M378.4,364.8h-17.3c-0.7,0-1.3-0.6-1.3-1.3v-1.8c0-0.7,0.6-1.3,1.3-1.3h17.3c0.7,0,1.3,0.6,1.3,1.3v1.8
	C379.7,364.2,379.1,364.8,378.4,364.8z"/>
<path d="M378.4,371.9h-17.3c-0.7,0-1.3-0.6-1.3-1.3v-1.8c0-0.7,0.6-1.3,1.3-1.3h17.3c0.7,0,1.3,0.6,1.3,1.3v1.8
	C379.7,371.4,379.1,371.9,378.4,371.9z"/>
<path d="M378.4,379.1h-17.3c-0.7,0-1.3-0.6-1.3-1.3V376c0-0.7,0.6-1.3,1.3-1.3h17.3c0.7,0,1.3,0.6,1.3,1.3v1.8
	C379.7,378.5,379.1,379.1,378.4,379.1z"/>
<path d="M449,364.8h-10.9c-0.7,0-1.3-0.6-1.3-1.3v-1.8c0-0.7,0.6-1.3,1.3-1.3H449c0.7,0,1.3,0.6,1.3,1.3v1.8
	C450.3,364.2,449.7,364.8,449,364.8z"/>
<path d="M449,371.9h-10.9c-0.7,0-1.3-0.6-1.3-1.3v-1.8c0-0.7,0.6-1.3,1.3-1.3H449c0.7,0,1.3,0.6,1.3,1.3v1.8
	C450.3,371.4,449.7,371.9,449,371.9z"/>
<path d="M449,379.1h-10.9c-0.7,0-1.3-0.6-1.3-1.3V376c0-0.7,0.6-1.3,1.3-1.3H449c0.7,0,1.3,0.6,1.3,1.3v1.8
	C450.3,378.5,449.7,379.1,449,379.1z"/>
<path d="M433.9,371.9v-4.6c0-0.5-0.6-0.8-1-0.5l-2.8,2.3c-0.3,0.2-0.3,0.7,0,0.9l2.8,2.3C433.3,372.8,433.9,372.5,433.9,371.9z"/>
<path d="M521.1,364.8h-10.9c-0.7,0-1.3-0.6-1.3-1.3v-1.8c0-0.7,0.6-1.3,1.3-1.3h10.9c0.7,0,1.3,0.6,1.3,1.3v1.8
	C522.4,364.2,521.8,364.8,521.1,364.8z"/>
<path d="M521.1,371.9h-10.9c-0.7,0-1.3-0.6-1.3-1.3v-1.8c0-0.7,0.6-1.3,1.3-1.3h10.9c0.7,0,1.3,0.6,1.3,1.3v1.8
	C522.4,371.4,521.8,371.9,521.1,371.9z"/>
<path d="M521.1,379.1h-10.9c-0.7,0-1.3-0.6-1.3-1.3V376c0-0.7,0.6-1.3,1.3-1.3h10.9c0.7,0,1.3,0.6,1.3,1.3v1.8
	C522.4,378.5,521.8,379.1,521.1,379.1z"/>
<path d="M502.7,367.4v4.6c0,0.5,0.6,0.8,1,0.5l2.8-2.3c0.3-0.2,0.3-0.7,0-0.9l-2.8-2.3C503.3,366.6,502.7,366.9,502.7,367.4z"/>
</svg>
