<?xml version="1.0" encoding="utf-8"?>
<!-- Generator: Adobe Illustrator 19.0.1, SVG Export Plug-In . SVG Version: 6.00 Build 0)  -->
<svg version="1.1" id="Layer_1" xmlns="http://www.w3.org/2000/svg" xmlns:xlink="http://www.w3.org/1999/xlink" x="0px" y="0px"
	 viewBox="0 0 29.9 29.9" enable-background="new 0 0 29.9 29.9" xml:space="preserve">
<path d="M20.7,15.3c-0.2-0.2-0.2-0.4,0-0.6l8.1-8.1c1.5-1.5,1.5-3.9,0-5.4l-0.1-0.1c-1.5-1.5-3.9-1.5-5.4,0l-8.1,8.1
	c-0.2,0.2-0.4,0.2-0.6,0L6.6,1.1c-1.5-1.5-3.9-1.5-5.4,0L1.1,1.2c-1.5,1.5-1.5,3.9,0,5.4l8.1,8.1c0.2,0.2,0.2,0.4,0,0.6l-8.1,8.1
	c-1.5,1.5-1.5,3.9,0,5.4l0.1,0.1c1.5,1.5,3.9,1.5,5.4,0l8.1-8.1c0.2-0.2,0.4-0.2,0.6,0l8.1,8.1c1.5,1.5,3.9,1.5,5.4,0l0.1-0.1
	c1.5-1.5,1.5-3.9,0-5.4L20.7,15.3z"/>
</svg>
