<?xml version="1.0" encoding="utf-8"?>
<!-- Generator: Adobe Illustrator 19.0.1, SVG Export Plug-In . SVG Version: 6.00 Build 0)  -->
<svg version="1.1" id="Layer_1" xmlns="http://www.w3.org/2000/svg" xmlns:xlink="http://www.w3.org/1999/xlink" x="0px" y="0px"
	 viewBox="0 0 25.2 17.2" enable-background="new 0 0 25.2 17.2" xml:space="preserve">
<path d="M22.4,7.8c-0.4-0.2-0.6-0.6-0.5-1c0.1-1,0-2.1-0.5-3.3c-0.9-1.8-2.6-3.1-4.6-3.4c-2.4-0.3-4.6,0.8-5.8,2.6
	c-0.3,0.5-0.9,0.5-1.4,0.2C8.7,2.2,7.4,2,6,2.4C5.3,2.6,4.6,3,4.1,3.6c-1,1.2-1.1,2.3-1,3.2c0.1,0.5-0.2,0.9-0.6,1.1
	C0.9,8.8-0.1,10.5,0,12.5c0.2,2.7,2.5,4.7,5.2,4.7h4.3c0.8,0,1.5-0.7,1.5-1.5v-1.6c0-0.4-0.3-0.7-0.7-0.7H8.9
	c-0.4,0-0.6-0.5-0.4-0.8l4-4.8c0.3-0.3,0.8-0.3,1,0l4,4.8c0.3,0.3,0,0.8-0.4,0.8h-1.5c-0.4,0-0.7,0.3-0.7,0.7v1.6
	c0,0.8,0.7,1.5,1.5,1.5h3.7c2.5,0,4.7-1.7,5.1-4.1C25.5,10.7,24.3,8.7,22.4,7.8z"/>
</svg>
