<?xml version="1.0" encoding="utf-8"?>
<!-- Generator: Adobe Illustrator 19.0.1, SVG Export Plug-In . SVG Version: 6.00 Build 0)  -->
<svg version="1.1" id="Layer_1" xmlns="http://www.w3.org/2000/svg" xmlns:xlink="http://www.w3.org/1999/xlink" x="0px" y="0px"
	 viewBox="0 0 15.1 19.6" enable-background="new 0 0 15.1 19.6" xml:space="preserve">
<g>
	<path d="M8.2,0H1.2C0.6,0,0,0.6,0,1.2v17.1c0,0.7,0.6,1.2,1.2,1.2h12.6c0.7,0,1.2-0.6,1.2-1.2V6.9c0-0.3-0.1-0.5-0.3-0.7L9,0.3
		C8.8,0.1,8.5,0,8.2,0z M13,17.9h-11c-0.2,0-0.4-0.2-0.4-0.4V2.1c0-0.2,0.2-0.4,0.4-0.4h5.6c0.6,0,1,0.4,1,1l0,3.3
		c0,0.3,0.2,0.5,0.5,0.5l3.4,0c0.4,0,0.8,0.4,0.8,0.8v10.3C13.4,17.8,13.3,17.9,13,17.9z"/>
	<g>
		<path d="M11.6,9.9c0,0.4-0.3,0.8-0.8,0.8H4.6c-0.4,0-0.8-0.3-0.8-0.8c0-0.4,0.3-0.8,0.8-0.8h6.2C11.2,9.1,11.6,9.5,11.6,9.9z"/>
	</g>
	<g>
		<path d="M7.1,5.9c0,0.4-0.3,0.8-0.8,0.8H4.6c-0.4,0-0.8-0.3-0.8-0.8c0-0.4,0.3-0.8,0.8-0.8h1.8C6.8,5.1,7.1,5.4,7.1,5.9z"/>
	</g>
	<g>
		<path d="M9.7,13.9c0,0.4-0.3,0.8-0.8,0.8H4.6c-0.4,0-0.8-0.3-0.8-0.8c0-0.4,0.3-0.8,0.8-0.8h4.3C9.3,13.2,9.7,13.5,9.7,13.9z"/>
	</g>
</g>
</svg>
