<?xml version="1.0" encoding="utf-8"?>
<!-- Generator: Adobe Illustrator 19.0.1, SVG Export Plug-In . SVG Version: 6.00 Build 0)  -->
<svg version="1.1" id="Layer_1" xmlns="http://www.w3.org/2000/svg" xmlns:xlink="http://www.w3.org/1999/xlink" x="0px" y="0px"
	 viewBox="0 0 30 40" enable-background="new 0 0 30 40" xml:space="preserve">
<g>
	<path fill="#7F7F7F" d="M18.6,18.9h-7.4c-0.4,0-0.6,0.5-0.3,0.8l3.5,4.6c0.3,0.3,0.8,0.3,1,0l3.5-4.6C19.2,19.3,19,18.9,18.6,18.9z
		"/>
	<path fill="#7F7F7F" d="M5.3,21c0,5.4,4.3,9.7,9.7,9.7c5.4,0,9.7-4.3,9.7-9.7c0-5.4-4.3-9.7-9.7-9.7C9.6,11.3,5.3,15.6,5.3,21z
		 M22.7,21c0,4.2-3.4,7.7-7.7,7.7c-4.2,0-7.7-3.4-7.7-7.7c0-4.2,3.4-7.7,7.7-7.7C19.2,13.3,22.7,16.8,22.7,21z"/>
</g>
</svg>
