<?xml version="1.0" encoding="utf-8"?>
<!-- Generator: Adobe Illustrator 19.0.1, SVG Export Plug-In . SVG Version: 6.00 Build 0)  -->
<svg version="1.1" id="Layer_1" xmlns="http://www.w3.org/2000/svg" xmlns:xlink="http://www.w3.org/1999/xlink" x="0px" y="0px"
	 viewBox="0 0 36.6 37.6" enable-background="new 0 0 36.6 37.6" xml:space="preserve">
<g>
	<polygon points="36.6,9.7 36.6,19.1 33.9,19.1 33.9,26.3 31.9,26.3 31.9,30.8 29.8,30.8 29.8,37.6 11.1,37.6 11.1,32.8 8.4,32.8 
		8.4,30.8 6.4,30.8 6.4,28.6 4.4,28.6 4.4,23.8 2.3,23.8 2.3,21.2 0,21.2 0,16.4 2.3,16.4 2.3,14.3 6.4,14.3 6.4,10.4 4.4,10.4 
		4.4,4.9 6.4,4.9 6.4,2.8 11.9,2.8 11.9,4.9 13.2,4.9 13.2,2.8 15.6,2.8 15.6,0 20.5,0 20.5,2.8 27.5,2.8 27.5,4.9 29.8,4.9 
		29.8,9.7 31.2,9.7 31.2,7.6 33.6,7.6 33.6,9.7 	"/>
	<polygon fill="#FFFFFF" points="33.5,9.6 33.5,19 32.5,19 32.5,25.8 29.7,25.8 29.7,30.9 27.2,30.9 27.2,35.6 13.1,35.6 13.1,32.9 
		10.8,32.9 10.8,30.3 8.9,30.3 8.9,28.2 6.5,28.2 6.5,23.8 3.8,23.8 3.8,21.2 1.8,21.2 1.8,16.4 6.5,16.4 6.5,18.8 8.8,18.8 
		8.8,21.2 10.7,21.2 10.7,14.2 8.8,14.2 8.8,9.7 6.5,9.7 6.5,5.3 11.1,5.3 11.1,8.9 13.5,8.9 13.5,14.2 15.5,14.2 15.5,2.8 
		20.5,2.8 20.5,14.2 22.4,14.2 22.4,4.9 27.2,4.9 27.2,16.4 29.2,16.4 29.2,11.8 31.1,11.8 31.1,9.6 	"/>
</g>
</svg>
