<?xml version="1.0" encoding="utf-8"?>
<!-- Generator: Adobe Illustrator 19.0.1, SVG Export Plug-In . SVG Version: 6.00 Build 0)  -->
<svg version="1.1" id="Layer_1" xmlns="http://www.w3.org/2000/svg" xmlns:xlink="http://www.w3.org/1999/xlink" x="0px" y="0px"
	 viewBox="0 0 23.6 22.5" enable-background="new 0 0 23.6 22.5" xml:space="preserve">
<path d="M20.9,5.5l-1-4.5c-0.1-0.7-0.8-1.1-1.5-1L1,3.9C0.3,4-0.1,4.7,0,5.4L2.1,15l-0.5,3.9c-0.1,0.7,0.4,1.3,1.1,1.4l17.7,2.2
	c0.7,0.1,1.3-0.4,1.4-1.1l1.7-13.8c0.1-0.7-0.4-1.3-1.1-1.4l-0.9-0.1C21.3,6,21,5.8,20.9,5.5z M18.7,5.7L9.2,4.5
	c-0.3,0-0.3-0.5,0-0.5l8.5-1.9C18,2,18.4,2.2,18.5,2.6l0.6,2.7C19.1,5.5,18.9,5.7,18.7,5.7z M2,6.2C1.9,5.9,2.1,5.6,2.4,5.5l0.5-0.1
	c0.2-0.1,0.4,0.1,0.4,0.4L3,8c0,0.4-0.6,0.4-0.6,0L2,6.2z M19.6,20.6L4.1,18.8c-0.4,0-0.6-0.4-0.6-0.7L4.9,6.6C5,6.2,5.3,6,5.6,6
	l15.5,1.8c0.4,0,0.6,0.4,0.6,0.7L20.3,20C20.3,20.4,20,20.6,19.6,20.6z"/>
<circle cx="18.3" cy="10.8" r="1.3"/>
<path d="M18.4,17.6l-2.9-4.4c-0.2-0.3-0.6-0.3-0.8-0.1l-0.5,0.5c-0.3,0.3-0.8,0.2-1-0.1l-1.4-2.2c-0.3-0.4-0.8-0.5-1.2-0.1l-5,4.7
	c-0.3,0.3-0.1,0.8,0.3,0.9L18,18.3C18.4,18.3,18.6,17.9,18.4,17.6z"/>
</svg>
