<?xml version="1.0" encoding="utf-8"?>
<!-- Generator: Adobe Illustrator 19.0.1, SVG Export Plug-In . SVG Version: 6.00 Build 0)  -->
<svg version="1.1" id="Layer_1" xmlns="http://www.w3.org/2000/svg" xmlns:xlink="http://www.w3.org/1999/xlink" x="0px" y="0px"
	 viewBox="0 0 61.9 141.1" enable-background="new 0 0 61.9 141.1" xml:space="preserve">
<g>
	<path d="M47.7,0C36.1,0,29,9.6,29,18.1S34.9,31.5,43,31.5S61.9,25,61.9,13.8S51.8,0,47.7,0z"/>
	<path d="M59.9,114.5c1.2,1.6,1,3.9-0.5,5.2c-12,10.7-26,18.3-34.1,20.4c-8.7,2.2-15.7,1.5-16.4-8.5c-0.7-10,11-53,11.8-57.5
		c0.6-3.8-7.8,0.1-14.7,3.8c-2,1.1-4.6,0.2-5.5-1.9c-0.8-1.7-0.3-3.8,1.2-4.9c12-9,27-17.5,39.7-20.9c7.3-1.9,11.5,0.4,11.8,9.4
		c0.2,8.9-11.8,49.7-12.7,55.2c-1.4,8.1,7.8,3,14.4-1.1C56.4,112.5,58.7,112.9,59.9,114.5z"/>
</g>
</svg>
