<?xml version="1.0" encoding="utf-8"?>
<!-- Generator: Adobe Illustrator 19.0.1, SVG Export Plug-In . SVG Version: 6.00 Build 0)  -->
<svg version="1.1" id="Layer_1" xmlns="http://www.w3.org/2000/svg" xmlns:xlink="http://www.w3.org/1999/xlink" x="0px" y="0px"
	 viewBox="0 0 108 108.5" enable-background="new 0 0 108 108.5" xml:space="preserve">
<path d="M81,0H27C12.1,0,0,12.1,0,27v54.5c0,14.9,12.1,27,27,27h54c14.9,0,27-12.1,27-27V27C108,12.1,95.9,0,81,0z M27,10h54
	c9.4,0,17,7.6,17,17v9.3H69.4c-4.2-3-9.3-4.8-14.8-4.8s-10.6,1.8-14.8,4.8H10V27C10,17.6,17.6,10,27,10z M65.2,57.2
	c0,5.9-4.8,10.6-10.6,10.6c-5.9,0-10.6-4.8-10.6-10.6c0-5.9,4.8-10.6,10.6-10.6C60.4,46.5,65.2,51.3,65.2,57.2z M81,98.5H27
	c-9.4,0-17-7.6-17-17V46.3h21.4c-1.6,3.3-2.4,7-2.4,10.9c0,14.1,11.5,25.6,25.6,25.6s25.6-11.5,25.6-25.6c0-3.9-0.9-7.6-2.4-10.9H98
	v35.2C98,90.9,90.4,98.5,81,98.5z"/>
</svg>
