<?xml version="1.0" encoding="utf-8"?>
<!-- Generator: Adobe Illustrator 19.0.1, SVG Export Plug-In . SVG Version: 6.00 Build 0)  -->
<svg version="1.1" id="Layer_1" xmlns="http://www.w3.org/2000/svg" xmlns:xlink="http://www.w3.org/1999/xlink" x="0px" y="0px"
	 viewBox="0 0 19.8 19.8" enable-background="new 0 0 19.8 19.8" xml:space="preserve">
<path d="M15.6,9.5l3.1-3.1c1.4-1.4,1.4-3.7,0-5.1l-0.2-0.2c-1.4-1.4-3.7-1.4-5.1,0l-3.1,3.1C9.2,5.2,9,6.7,9.5,8
	c0.1,0.3,0,0.7-0.2,0.9L8.9,9.3C8.7,9.5,8.3,9.6,8,9.5C6.7,9,5.2,9.2,4.2,10.2l-3.1,3.1c-1.4,1.4-1.4,3.7,0,5.1l0.2,0.2
	c1.4,1.4,3.7,1.4,5.1,0l3.1-3.1c1-1,1.3-2.5,0.7-3.8c-0.1-0.3,0-0.7,0.2-0.9l0.4-0.4c0.2-0.2,0.6-0.3,0.9-0.2
	C13,10.8,14.5,10.6,15.6,9.5z M13.5,8.1c-0.1-0.1-0.1-0.2-0.1-0.4c0.2-0.4,0.1-0.9-0.2-1.2c-0.3-0.3-0.8-0.4-1.2-0.2
	c-0.1,0.1-0.3,0-0.3-0.1c-0.1-0.1-0.1-0.3,0-0.4l3.2-3.2C15.4,2,16.4,2,17,2.6l0.2,0.2c0.6,0.6,0.6,1.5,0,2.1l-3.2,3.2
	C13.8,8.3,13.6,8.3,13.5,8.1z M6.3,11.6c0.1,0.1,0.1,0.2,0.1,0.4c-0.2,0.4-0.1,0.9,0.2,1.3c0.3,0.3,0.8,0.4,1.3,0.2
	c0.1-0.1,0.3,0,0.3,0.1c0.1,0.1,0.1,0.3,0,0.4l-3.2,3.2c-0.6,0.6-1.5,0.6-2.1,0L2.6,17c-0.6-0.6-0.6-1.5,0-2.1l3.2-3.2
	C6,11.5,6.2,11.5,6.3,11.6z"/>
</svg>
