<?xml version="1.0" encoding="utf-8"?>
<!-- Generator: Adobe Illustrator 19.0.1, SVG Export Plug-In . SVG Version: 6.00 Build 0)  -->
<svg version="1.1" id="Layer_1" xmlns="http://www.w3.org/2000/svg" xmlns:xlink="http://www.w3.org/1999/xlink" x="0px" y="0px"
	 viewBox="0 0 90 86" enable-background="new 0 0 90 86" xml:space="preserve">
<path id="LinkedIn" d="M90,52.7V86H70.7V55c0-7.8-2.8-13.1-9.8-13.1c-5.3,0-8.5,3.6-9.9,7.1c-0.5,1.2-0.6,3-0.6,4.7V86H31.1
	c0,0,0.3-52.6,0-58h19.3v8.2c0,0.1-0.1,0.1-0.1,0.2h0.1v-0.2c2.6-3.9,7.1-9.6,17.4-9.6C80.5,26.6,90,34.9,90,52.7z M10.9,0
	C4.3,0,0,4.3,0,10c0,5.6,4.2,10,10.7,10h0.1c6.7,0,10.9-4.5,10.9-10C21.6,4.3,17.5,0,10.9,0z M1.1,86h19.3V28H1.1V86z"/>
</svg>
