<?xml version="1.0" encoding="utf-8"?>
<!-- Generator: Adobe Illustrator 19.0.1, SVG Export Plug-In . SVG Version: 6.00 Build 0)  -->
<svg version="1.1" id="Layer_1" xmlns="http://www.w3.org/2000/svg" xmlns:xlink="http://www.w3.org/1999/xlink" x="0px" y="0px"
	 viewBox="0 0 22.2 22.2" enable-background="new 0 0 22.2 22.2" xml:space="preserve">
<path d="M21.5,18.6l-5-4.5c-0.4-0.4-0.5-1-0.3-1.5c0.8-1.5,1.2-3.3,0.9-5.1c-0.5-3.7-3.4-6.8-7.1-7.4c-5.9-1-10.9,4.1-10,9.9
	c0.6,3.7,3.6,6.6,7.3,7.1c1.9,0.2,3.6-0.1,5.1-0.9c0.5-0.3,1.1-0.2,1.5,0.3l4.7,5c0.8,0.9,2.3,0.8,3-0.1
	C22.4,20.6,22.3,19.3,21.5,18.6z M2.2,8.6c0-3.5,2.9-6.4,6.4-6.4S15,5.1,15,8.6c0,3.5-2.9,6.4-6.4,6.4S2.2,12.2,2.2,8.6z"/>
</svg>
