<?xml version="1.0" encoding="utf-8"?>
<!-- Generator: Adobe Illustrator 19.0.1, SVG Export Plug-In . SVG Version: 6.00 Build 0)  -->
<svg version="1.1" id="Layer_1" xmlns="http://www.w3.org/2000/svg" xmlns:xlink="http://www.w3.org/1999/xlink" x="0px" y="0px"
	 viewBox="0 0 22.8 14.8" enable-background="new 0 0 22.8 14.8" xml:space="preserve">
<g>
	<path d="M12.3,9.9l9.4-7.4c0.4-0.3,1.1,0,1.1,0.5v10.4c0,0.7-0.6,1.3-1.3,1.3h-10h-10c-0.7,0-1.3-0.6-1.3-1.3V3
		c0-0.6,0.6-0.9,1.1-0.5l9.4,7.4C11,10.4,11.8,10.4,12.3,9.9z"/>
	<path d="M11.4,0l9.5,0c0.6,0,0.9,0.8,0.4,1.2L12,8.2c-0.4,0.3-0.9,0.3-1.3,0L1.5,1.2C1,0.8,1.3,0,1.9,0H11.4z"/>
</g>
</svg>
