<?xml version="1.0" encoding="utf-8"?>
<!-- Generator: Adobe Illustrator 19.0.1, SVG Export Plug-In . SVG Version: 6.00 Build 0)  -->
<svg version="1.1" id="Layer_1" xmlns="http://www.w3.org/2000/svg" xmlns:xlink="http://www.w3.org/1999/xlink" x="0px" y="0px"
	 viewBox="0 0 13.8 24.4" enable-background="new 0 0 13.8 24.4" xml:space="preserve">
<path d="M12.1,0H1.7C0.8,0,0,0.8,0,1.7v20.9c0,1,0.8,1.7,1.7,1.7h10.3c1,0,1.7-0.8,1.7-1.7V1.7C13.8,0.8,13,0,12.1,0z M5.6,1.4h2.7
	c0.3,0,0.6,0.2,0.6,0.6S8.5,2.5,8.2,2.5H5.6C5.3,2.5,5,2.3,5,2S5.3,1.4,5.6,1.4z M6.9,23.5c-0.6,0-1.1-0.5-1.1-1.1
	c0-0.6,0.5-1.1,1.1-1.1S8,21.7,8,22.3C8,23,7.5,23.5,6.9,23.5z M11.9,19.5c0,0.6-0.5,1-1,1h-8c-0.6,0-1-0.5-1-1V4.9c0-0.6,0.5-1,1-1
	h8c0.6,0,1,0.5,1,1V19.5z"/>
</svg>
