<?xml version="1.0" encoding="utf-8"?>
<!-- Generator: Adobe Illustrator 19.0.1, SVG Export Plug-In . SVG Version: 6.00 Build 0)  -->
<svg version="1.1" id="Layer_1" xmlns="http://www.w3.org/2000/svg" xmlns:xlink="http://www.w3.org/1999/xlink" x="0px" y="0px"
	 viewBox="0 0 22.8 22.8" enable-background="new 0 0 22.8 22.8" xml:space="preserve">
<path d="M20.3,8.9h-4.5c-1.1,0-1.9-0.9-1.9-1.9V2.5c0-1.4-1.1-2.5-2.5-2.5S8.9,1.1,8.9,2.5V7C8.9,8,8,8.9,7,8.9H2.5
	C1.1,8.9,0,10,0,11.4s1.1,2.5,2.5,2.5H7c1.1,0,1.9,0.9,1.9,1.9v4.5c0,1.4,1.1,2.5,2.5,2.5s2.5-1.1,2.5-2.5v-4.5
	c0-1.1,0.9-1.9,1.9-1.9h4.5c1.4,0,2.5-1.1,2.5-2.5S21.7,8.9,20.3,8.9z"/>
</svg>
