<?xml version="1.0" encoding="utf-8"?>
<!-- Generator: Adobe Illustrator 19.0.1, SVG Export Plug-In . SVG Version: 6.00 Build 0)  -->
<svg version="1.1" id="Layer_1" xmlns="http://www.w3.org/2000/svg" xmlns:xlink="http://www.w3.org/1999/xlink" x="0px" y="0px"
	 viewBox="0 0 18.4 17.2" enable-background="new 0 0 18.4 17.2" xml:space="preserve">
<g>
	<path d="M13.1,2.9H5.2c-0.4,0-0.6-0.3-0.6-0.6V0.6C4.6,0.3,4.9,0,5.2,0h7.9c0.4,0,0.6,0.3,0.6,0.6v1.6C13.8,2.6,13.5,2.9,13.1,2.9z
		"/>
	<path d="M15.9,4.1H2.5C1.1,4.1,0,5.2,0,6.6v4.7c0,1.4,1.1,2.5,2.5,2.5h0.3c0.3,0,0.6-0.3,0.6-0.6v-1.3c0-0.8,0.7-1.5,1.5-1.5h8.5
		c0.8,0,1.5,0.7,1.5,1.5v1.3c0,0.3,0.3,0.6,0.6,0.6h0.3c1.4,0,2.5-1.1,2.5-2.5V6.6C18.4,5.2,17.2,4.1,15.9,4.1z M16.5,7
		c0,0.4-0.3,0.6-0.6,0.6h-0.5c-0.4,0-0.6-0.3-0.6-0.6V6.5c0-0.4,0.3-0.6,0.6-0.6h0.5c0.4,0,0.6,0.3,0.6,0.6V7z"/>
	<path d="M13.1,11.5H5.3c-0.4,0-0.7,0.3-0.7,0.7v4.3c0,0.4,0.3,0.7,0.7,0.7h7.8c0.4,0,0.7-0.3,0.7-0.7v-4.3
		C13.8,11.8,13.5,11.5,13.1,11.5z M11.4,16.1H6.9c-0.3,0-0.5-0.2-0.5-0.5c0-0.3,0.2-0.6,0.5-0.6h4.4c0.3,0,0.5,0.2,0.5,0.5
		C11.9,15.9,11.7,16.1,11.4,16.1z M11.4,13.9H6.9c-0.3,0-0.5-0.2-0.5-0.5c0-0.3,0.2-0.6,0.5-0.6h4.4c0.3,0,0.5,0.2,0.5,0.5
		C11.9,13.6,11.7,13.9,11.4,13.9z"/>
</g>
</svg>
