<?xml version="1.0" encoding="utf-8"?>
<!-- Generator: Adobe Illustrator 19.0.1, SVG Export Plug-In . SVG Version: 6.00 Build 0)  -->
<svg version="1.1" id="Layer_1" xmlns="http://www.w3.org/2000/svg" xmlns:xlink="http://www.w3.org/1999/xlink" x="0px" y="0px"
	 viewBox="0 0 90 90" enable-background="new 0 0 90 90" xml:space="preserve">
<path id="Skype" d="M86.2,51.5c0.3-2.1,0.5-4.3,0.5-6.5C86.8,21.9,68.1,3.2,45,3.2c-2.2,0-4.4,0.2-6.5,0.5C34.6,1.4,30.1,0,25.2,0
	C11.3,0,0,11.3,0,25.2c0,4.9,1.4,9.4,3.8,13.3c-0.3,2.1-0.5,4.3-0.5,6.5c0,23.1,18.7,41.8,41.8,41.8c2.2,0,4.4-0.2,6.5-0.5
	c3.8,2.4,8.4,3.8,13.2,3.8C78.7,90,90,78.7,90,64.8C90,59.9,88.6,55.4,86.2,51.5z M64.8,64c-1.8,2.5-4.4,4.5-7.8,6
	c-3.4,1.4-7.4,2.1-12,2.1c-5.6,0-10.2-1-13.8-2.9c-2.6-1.4-4.7-3.3-6.3-5.6c-1.6-2.4-2.4-4.7-2.4-6.9c0-1.3,0.5-2.5,1.5-3.4
	c1-0.9,2.3-1.4,3.8-1.4c1.2,0,2.3,0.4,3.2,1.1c0.9,0.7,1.6,1.8,2.2,3.2c0.7,1.6,1.5,3,2.3,4.1c0.8,1.1,2,2,3.4,2.7
	c1.5,0.7,3.4,1.1,5.9,1.1c3.3,0,6-0.7,8.1-2.1c2.1-1.4,3.1-3.2,3.1-5.3c0-1.7-0.5-3-1.6-4.1c-1.1-1.1-2.5-1.9-4.3-2.4
	c-1.8-0.6-4.2-1.2-7.2-1.8c-4-0.9-7.4-1.9-10.2-3.1c-2.7-1.2-4.9-2.8-6.5-4.8c-1.6-2.1-2.4-4.6-2.4-7.7c0-2.9,0.9-5.5,2.6-7.7
	c1.7-2.3,4.2-4,7.4-5.2c3.2-1.2,7-1.8,11.3-1.8c3.5,0,6.5,0.4,9,1.2c2.5,0.8,4.6,1.9,6.3,3.2c1.7,1.3,2.9,2.7,3.7,4.2
	c0.8,1.5,1.2,2.9,1.2,4.3c0,1.3-0.5,2.5-1.5,3.5c-1,1-2.2,1.6-3.7,1.6c-1.3,0-2.4-0.3-3.1-1c-0.7-0.6-1.4-1.6-2.2-3
	c-1-1.9-2.2-3.5-3.6-4.5c-1.4-1.1-3.6-1.6-6.8-1.6c-2.9,0-5.2,0.6-7,1.8c-1.8,1.2-2.6,2.6-2.6,4.2c0,1,0.3,1.9,0.9,2.6
	c0.6,0.7,1.4,1.4,2.5,1.9c1.1,0.5,2.1,1,3.2,1.3c1.1,0.3,2.9,0.8,5.4,1.4c3.2,0.7,6,1.4,8.6,2.3c2.6,0.8,4.8,1.8,6.6,3
	c1.8,1.2,3.3,2.7,4.3,4.6c1,1.8,1.5,4.1,1.5,6.7C67.5,58.6,66.6,61.4,64.8,64z"/>
</svg>
