<?xml version="1.0" encoding="utf-8"?>
<!-- Generator: Adobe Illustrator 19.0.1, SVG Export Plug-In . SVG Version: 6.00 Build 0)  -->
<svg version="1.1" id="Layer_1" xmlns="http://www.w3.org/2000/svg" xmlns:xlink="http://www.w3.org/1999/xlink" x="0px" y="0px"
	 viewBox="0 0 16.4 21.8" enable-background="new 0 0 16.4 21.8" xml:space="preserve">
<path d="M0,1.8V20c0,1,0.8,1.8,1.8,1.8h12.8c1,0,1.8-0.8,1.8-1.8V1.8c0-1-0.8-1.8-1.8-1.8H1.8C0.8,0,0,0.8,0,1.8z M8.2,20.8
	c-0.5,0-1-0.4-1-1s0.4-1,1-1c0.5,0,1,0.4,1,1S8.7,20.8,8.2,20.8z M13.5,17.9H2.9c-0.6,0-1-0.4-1-1V3c0-0.6,0.4-1,1-1h10.6
	c0.6,0,1,0.4,1,1v13.9C14.5,17.5,14,17.9,13.5,17.9z"/>
</svg>
