<?xml version="1.0" encoding="utf-8"?>
<!-- Generator: Adobe Illustrator 19.0.1, SVG Export Plug-In . SVG Version: 6.00 Build 0)  -->
<svg version="1.1" id="Layer_1" xmlns="http://www.w3.org/2000/svg" xmlns:xlink="http://www.w3.org/1999/xlink" x="0px" y="0px"
	 viewBox="0 0 30.9 49.2" enable-background="new 0 0 30.9 49.2" xml:space="preserve">
<path d="M17.6,0v11.4H29v8.8H17.6v12.6c0,2.9,0,4.5,0.3,5.3c0.3,0.8,1.1,1.6,1.9,2.1c1.1,0.7,2.3,1,3.7,1c2.5,0,5-0.8,7.4-2.4v7.8
	c-2.1,1-4,1.7-5.7,2.1c-1.7,0.4-3.5,0.6-5.5,0.6c-2.2,0-3.6-0.3-5.3-0.8c-1.7-0.6-3.2-1.4-4.4-2.4c-1.2-1.1-2.1-2.2-2.5-3.4
	c-0.5-1.2-0.7-2.9-0.7-5.2V20.2H0v-7c1.9-0.6,4.2-1.5,5.5-2.7C6.9,9.3,8,7.9,8.9,6.3c0.8-1.6,1.4-3.7,1.7-6.3H17.6z"/>
</svg>
