<?xml version="1.0" encoding="utf-8"?>
<!-- Generator: Adobe Illustrator 19.0.1, SVG Export Plug-In . SVG Version: 6.00 Build 0)  -->
<svg version="1.1" id="Layer_1" xmlns="http://www.w3.org/2000/svg" xmlns:xlink="http://www.w3.org/1999/xlink" x="0px" y="0px"
	 viewBox="0 0 22.3 16.7" enable-background="new 0 0 22.3 16.7" xml:space="preserve">
<path d="M20.9,0H1.5C0.6,0,0,0.6,0,1.5v13.8c0,0.8,0.6,1.5,1.5,1.5h19.4c0.8,0,1.4-0.6,1.4-1.5V1.5C22.3,0.6,21.7,0,20.9,0z
	 M8.8,13.4c-0.5,0-2.2,0-2.2,0s-1.7,0-2.2,0c-0.5,0-1.3-0.2-1.3-1.1c0-1.4,2.3-1,2.3-2.5C5.3,9,3.9,8.1,3.9,6c0-1.8,1.2-2.8,2.7-2.8
	s2.7,1,2.7,2.8c0,2.1-1.5,2.9-1.5,3.9c0,1.5,2.3,1.1,2.3,2.5C10,13.2,9.3,13.4,8.8,13.4z M19.1,12.3c0,0.4-0.4,0.8-0.8,0.8h-5.1
	c-0.4,0-0.8-0.4-0.8-0.8v-0.2c0-0.4,0.4-0.8,0.8-0.8h5.1c0.4,0,0.8,0.4,0.8,0.8V12.3z M19.1,8.5c0,0.4-0.4,0.8-0.8,0.8h-5.1
	c-0.4,0-0.8-0.4-0.8-0.8V8.3c0-0.4,0.4-0.8,0.8-0.8h5.1c0.4,0,0.8,0.4,0.8,0.8V8.5z M19.1,4.7c0,0.4-0.4,0.8-0.8,0.8h-5.1
	c-0.4,0-0.8-0.4-0.8-0.8V4.5c0-0.4,0.4-0.8,0.8-0.8h5.1c0.4,0,0.8,0.4,0.8,0.8V4.7z"/>
</svg>
