<?xml version="1.0" encoding="utf-8"?>
<!-- Generator: Adobe Illustrator 19.0.1, SVG Export Plug-In . SVG Version: 6.00 Build 0)  -->
<svg version="1.1" id="Layer_1" xmlns="http://www.w3.org/2000/svg" xmlns:xlink="http://www.w3.org/1999/xlink" x="0px" y="0px"
	 viewBox="0 0 90 78" enable-background="new 0 0 90 78" xml:space="preserve">
<path id="Vimeo" d="M76.8,0c-12.5-0.4-21,6.6-25.4,21.1c2.3-0.9,4.5-1.4,6.7-1.4c4.6,0,6.6,2.6,6,7.7c-0.3,3.1-2.3,7.6-6,13.6
	c-3.8,5.9-6.6,8.9-8.5,8.9c-2.4,0-4.6-4.6-6.7-13.8c-0.7-2.7-1.9-9.6-3.6-20.7C37.7,5.1,33.4,0.4,26.4,1c-3,0.3-7.4,3-13.3,8.1
	C8.8,13,4.4,17,0,20.9l4.2,5.5c4-2.8,6.4-4.2,7.1-4.2c3.1,0,6,4.9,8.7,14.6c2.4,8.9,4.8,17.8,7.3,26.7C30.9,73.1,35.3,78,40.5,78
	c8.5,0,18.8-8,31.1-23.9C83.4,38.8,89.5,26.8,90,18C90.5,6.3,86.1,0.3,76.8,0z"/>
</svg>
