<?xml version="1.0" encoding="utf-8"?>
<!-- Generator: Adobe Illustrator 19.0.1, SVG Export Plug-In . SVG Version: 6.00 Build 0)  -->
<svg version="1.1" id="Layer_1" xmlns="http://www.w3.org/2000/svg" xmlns:xlink="http://www.w3.org/1999/xlink" x="0px" y="0px"
	 viewBox="0 0 23.1 23.1" enable-background="new 0 0 23.1 23.1" xml:space="preserve">
<g>
	<path d="M9.8,16.3l-3.7,1.3c-0.4,0.1-0.7-0.2-0.6-0.6l1.3-3.7c0.1-0.3,0.4-0.3,0.6-0.1l2.6,2.6C10.2,15.9,10.1,16.2,9.8,16.3z"/>
	<path d="M19.8,6.5L11.3,15c-0.3,0.3-0.7,0.3-0.9,0L8,12.6c-0.2-0.2-0.2-0.7,0-0.9l8.5-8.5c0.3-0.3,0.7-0.3,0.9,0l2.4,2.4
		C20,5.8,20,6.2,19.8,6.5z"/>
	<path d="M22.7,3.7l-1.4,1.4c-0.3,0.3-0.7,0.3-0.9,0L18,2.7c-0.3-0.3-0.3-0.7,0-0.9l1.4-1.4c0.5-0.5,1.2-0.5,1.6,0l1.8,1.8
		C23.2,2.6,23.2,3.3,22.7,3.7z"/>
	<path d="M13.2,3c0-0.5-0.4-1-1-1H1.5C0.7,2,0,2.7,0,3.5v18.1c0,0.8,0.7,1.5,1.5,1.5h18.1c0.8,0,1.5-0.7,1.5-1.5V10.8
		c0-0.5-0.4-1-1-1s-1,0.4-1,1v9.6c0,0.4-0.4,0.8-0.8,0.8H2.7c-0.4,0-0.8-0.4-0.8-0.8V4.7c0-0.4,0.4-0.8,0.8-0.8h9.5
		C12.7,3.9,13.2,3.5,13.2,3z"/>
</g>
</svg>
